<?xml version="1.0" encoding="UTF-8"?>
<!DOCTYPE svg PUBLIC "-//W3C//DTD SVG 1.1//EN" "http://www.w3.org/Graphics/SVG/1.1/DTD/svg11.dtd">
<svg xmlns="http://www.w3.org/2000/svg" version="1.1" width="512px" height="300px" style="shape-rendering:geometricPrecision; text-rendering:geometricPrecision; image-rendering:optimizeQuality; fill-rule:evenodd; clip-rule:evenodd" xmlns:xlink="http://www.w3.org/1999/xlink">
<g><path style="opacity:0.844" fill="#0012de" d="M 278.5,75.5 C 285.402,77.3018 292.069,79.8018 298.5,83C 318.21,92.5199 337.543,102.52 356.5,113C 382.147,117.092 407.813,121.092 433.5,125C 444.723,126.778 455.723,129.444 466.5,133C 470.092,135.921 472.925,139.421 475,143.5C 481.545,160.31 483.878,177.643 482,195.5C 480.413,198.756 477.913,200.923 474.5,202C 461.5,202.667 448.5,202.667 435.5,202C 433.643,200.818 432.643,199.151 432.5,197C 436.022,175.712 428.355,160.045 409.5,150C 390.124,142.874 373.624,147.041 360,162.5C 353.159,173.216 350.492,184.883 352,197.5C 351.5,198.667 350.667,199.5 349.5,200C 287.156,199.464 224.823,198.13 162.5,196C 161.069,195.535 159.903,194.701 159,193.5C 158.698,165.706 144.864,150.039 117.5,146.5C 97.573,147.593 84.4063,157.593 78,176.5C 77.339,182.174 76.1723,187.674 74.5,193C 59.6703,194.199 45.0036,193.199 30.5,190C 29.2986,189.097 28.4652,187.931 28,186.5C 27.3333,178.833 27.3333,171.167 28,163.5C 28.6667,162.167 29.6667,161.167 31,160.5C 31.3333,149.833 31.6667,139.167 32,128.5C 33.4578,126.04 35.2911,123.873 37.5,122C 68.0096,117.423 98.6762,114.257 129.5,112.5C 129.49,105.686 132.823,103.186 139.5,105C 142.664,111.149 145.83,117.316 149,123.5C 150.579,125.041 152.413,126.208 154.5,127C 174.497,127.5 194.497,127.667 214.5,127.5C 214.334,122.821 214.501,118.155 215,113.5C 220.333,105.5 225.667,105.5 231,113.5C 231.499,118.155 231.666,122.821 231.5,127.5C 265.173,127.833 298.84,127.5 332.5,126.5C 333.77,124.452 334.103,122.452 333.5,120.5C 314.5,110.333 295.5,100.167 276.5,90C 270.771,84.1623 271.438,79.329 278.5,75.5 Z M 41.5,128.5 C 51.5896,126.319 61.923,124.819 72.5,124C 92.8199,122.168 113.153,120.501 133.5,119C 135.049,117.786 136.215,116.286 137,114.5C 139.36,124.19 145.193,130.69 154.5,134C 175.833,134.667 197.167,134.667 218.5,134C 219.701,133.097 220.535,131.931 221,130.5C 222.333,109.167 223.667,109.167 225,130.5C 225.465,131.931 226.299,133.097 227.5,134C 263.5,134.667 299.5,134.667 335.5,134C 340.618,128.687 341.952,122.687 339.5,116C 319.179,105.508 299.179,94.5077 279.5,83C 303.834,92.5004 327.167,104.167 349.5,118C 353.123,119.156 356.789,120.156 360.5,121C 391.685,124.884 422.685,129.884 453.5,136C 446.008,135.987 438.674,136.987 431.5,139C 429.993,139.837 429.493,141.004 430,142.5C 440.959,147.32 452.125,151.654 463.5,155.5C 465.425,155.41 466.592,154.41 467,152.5C 467.333,150.167 467.667,147.833 468,145.5C 474.344,160.395 476.844,175.895 475.5,192C 475.245,193.326 474.578,194.326 473.5,195C 462.152,195.832 450.819,195.666 439.5,194.5C 441.996,168.994 431.329,151.494 407.5,142C 378.368,135.496 358.202,145.996 347,173.5C 345.671,180.092 345.171,186.759 345.5,193.5C 285.486,192.596 225.486,191.263 165.5,189.5C 163.36,159.194 147.193,142.527 117,139.5C 88.26,142.74 72.4267,158.74 69.5,187.5C 57.8017,186.911 46.1351,185.911 34.5,184.5C 34.3338,178.491 34.5005,172.491 35,166.5C 36.3848,165.449 37.3848,164.116 38,162.5C 38.3333,151.5 38.6667,140.5 39,129.5C 39.6708,128.748 40.5041,128.414 41.5,128.5 Z M 46.5,135.5 C 54.091,135.408 54.091,136.408 46.5,138.5C 46.5,137.5 46.5,136.5 46.5,135.5 Z M 451.5,144.5 C 454.771,143.09 457.771,143.756 460.5,146.5C 460.333,146.833 460.167,147.167 460,147.5C 457.413,145.804 454.579,144.804 451.5,144.5 Z M 390.5,180.5 C 397.771,180.036 400.604,183.369 399,190.5C 392.672,196.46 388.172,195.293 385.5,187C 386.283,184.062 387.95,181.896 390.5,180.5 Z"/></g>
<g><path style="opacity:0.857" fill="#0012de" d="M 41.5,128.5 C 48.5079,128.334 55.5079,128.5 62.5,129C 62.9574,129.414 63.2907,129.914 63.5,130.5C 59.5829,141.957 51.7496,146.957 40,145.5C 39.3141,139.696 39.8141,134.029 41.5,128.5 Z M 46.5,135.5 C 46.5,136.5 46.5,137.5 46.5,138.5C 54.091,136.408 54.091,135.408 46.5,135.5 Z"/></g>
<g><path style="opacity:0.779" fill="#0012de" d="M 234.5,144.5 C 240.176,144.334 245.843,144.501 251.5,145C 254.167,147 254.167,149 251.5,151C 246.167,151.667 240.833,151.667 235.5,151C 233.176,149.175 232.843,147.009 234.5,144.5 Z"/></g>
<g><path style="opacity:0.845" fill="#0012de" d="M 111.5,151.5 C 136.3,150.97 150.3,162.97 153.5,187.5C 151.167,209.167 139.167,221.167 117.5,223.5C 92.8243,220.326 80.9909,206.326 82,181.5C 86.0418,165.626 95.8752,155.626 111.5,151.5 Z M 111.5,158.5 C 137.264,158.384 148.431,171.051 145,196.5C 135.507,215.661 121.007,220.828 101.5,212C 87.691,200.885 84.8577,187.385 93,171.5C 97.6892,164.964 103.856,160.631 111.5,158.5 Z M 114.5,180.5 C 122.501,180.323 125.334,183.99 123,191.5C 118.203,195.802 114.203,195.136 111,189.5C 109.98,185.553 111.147,182.553 114.5,180.5 Z"/></g>
<g><path style="opacity:0.842" fill="#0012de" d="M 387.5,151.5 C 406.556,150.607 419.722,158.941 427,176.5C 431.496,203.845 419.996,219.512 392.5,223.5C 370.833,221.166 358.833,209.166 356.5,187.5C 358.332,168.012 368.665,156.012 387.5,151.5 Z M 386.5,158.5 C 410.654,157.82 422.154,169.486 421,193.5C 415.071,211.886 402.571,219.053 383.5,215C 369.494,209.157 362.994,198.657 364,183.5C 366.837,170.835 374.337,162.502 386.5,158.5 Z M 390.5,180.5 C 387.95,181.896 386.283,184.062 385.5,187C 388.172,195.293 392.672,196.46 399,190.5C 400.604,183.369 397.771,180.036 390.5,180.5 Z"/></g>
<g><path style="opacity:0.838" fill="#0012de" d="M 114.5,173.5 C 129.839,174.847 134.339,182.514 128,196.5C 119.242,203.557 111.575,202.557 105,193.5C 102.01,183.816 105.177,177.149 114.5,173.5 Z M 114.5,180.5 C 111.147,182.553 109.98,185.553 111,189.5C 114.203,195.136 118.203,195.802 123,191.5C 125.334,183.99 122.501,180.323 114.5,180.5 Z"/></g>
<g><path style="opacity:0.844" fill="#0012de" d="M 389.5,173.5 C 404.142,174.46 408.975,181.794 404,195.5C 394.907,203.731 386.907,202.731 380,192.5C 377.819,183.529 380.986,177.196 389.5,173.5 Z M 390.5,180.5 C 387.95,181.896 386.283,184.062 385.5,187C 388.172,195.293 392.672,196.46 399,190.5C 400.604,183.369 397.771,180.036 390.5,180.5 Z"/></g>
</svg>
