<?xml version="1.0" encoding="utf-8" ?>
<svg baseProfile="tiny" height="300" version="1.2" width="512" xmlns="http://www.w3.org/2000/svg" xmlns:ev="http://www.w3.org/2001/xml-events" xmlns:xlink="http://www.w3.org/1999/xlink"><defs /><path d="M 32,64 L 32,167 L 31,168 L 31,169 L 30,170 L 30,173 L 29,174 L 29,195 L 30,196 L 30,203 L 32,205 L 32,235 L 479,235 L 479,208 L 480,207 L 480,206 L 481,205 L 481,201 L 482,200 L 482,180 L 481,179 L 481,172 L 480,171 L 480,168 L 479,167 L 479,64 Z M 36,69 L 37,68 L 474,68 L 475,69 L 475,166 L 476,167 L 476,170 L 477,171 L 477,178 L 478,179 L 478,201 L 477,202 L 477,205 L 476,206 L 476,208 L 475,209 L 475,230 L 474,231 L 37,231 L 36,230 L 36,206 L 35,205 L 35,203 L 34,202 L 34,197 L 33,196 L 33,173 L 34,172 L 34,170 L 35,169 L 35,167 L 36,166 Z" fill="black" fill-rule="evenodd" /></svg>