<?xml version="1.0" encoding="utf-8" ?>
<svg baseProfile="tiny" height="300" version="1.2" width="512" xmlns="http://www.w3.org/2000/svg" xmlns:ev="http://www.w3.org/2001/xml-events" xmlns:xlink="http://www.w3.org/1999/xlink"><defs /><path d="M 32,63 L 31,64 L 31,166 L 30,167 L 30,168 L 29,169 L 29,172 L 28,173 L 28,196 L 29,197 L 29,203 L 30,204 L 30,205 L 31,206 L 31,235 L 32,236 L 479,236 L 480,235 L 480,209 L 481,208 L 481,207 L 482,206 L 482,202 L 483,201 L 483,179 L 482,178 L 482,171 L 481,170 L 481,167 L 480,166 L 480,64 L 479,63 Z" fill="black" fill-rule="evenodd" /></svg>