<?xml version="1.0" encoding="utf-8" ?>
<svg baseProfile="tiny" height="309" version="1.2" width="1932" xmlns="http://www.w3.org/2000/svg" xmlns:ev="http://www.w3.org/2001/xml-events" xmlns:xlink="http://www.w3.org/1999/xlink"><defs /><path d="M 1751,55 L 1751,56 L 1750,57 L 1750,58 L 1749,59 L 1749,61 L 1748,62 L 1748,63 L 1747,64 L 1747,65 L 1746,66 L 1746,68 L 1745,69 L 1745,70 L 1744,71 L 1744,73 L 1743,74 L 1743,75 L 1742,76 L 1742,77 L 1741,78 L 1741,80 L 1740,81 L 1740,82 L 1739,83 L 1739,85 L 1738,86 L 1738,87 L 1737,88 L 1737,89 L 1736,90 L 1736,92 L 1735,93 L 1735,94 L 1734,95 L 1734,97 L 1733,98 L 1733,99 L 1732,100 L 1732,101 L 1731,102 L 1731,104 L 1730,105 L 1730,106 L 1729,107 L 1729,109 L 1728,110 L 1728,111 L 1727,112 L 1727,114 L 1726,115 L 1726,116 L 1725,117 L 1725,118 L 1724,119 L 1724,121 L 1723,122 L 1723,123 L 1722,124 L 1722,126 L 1721,127 L 1721,128 L 1720,129 L 1720,130 L 1719,131 L 1719,133 L 1718,134 L 1718,135 L 1717,136 L 1717,138 L 1716,139 L 1716,140 L 1715,141 L 1715,142 L 1714,143 L 1714,145 L 1713,146 L 1713,147 L 1712,148 L 1712,150 L 1711,151 L 1711,152 L 1710,153 L 1710,154 L 1709,155 L 1709,157 L 1708,158 L 1708,159 L 1707,160 L 1707,162 L 1706,163 L 1706,164 L 1705,165 L 1705,166 L 1704,167 L 1704,169 L 1703,170 L 1703,171 L 1702,172 L 1702,174 L 1701,175 L 1701,176 L 1700,177 L 1700,178 L 1699,179 L 1699,181 L 1698,182 L 1698,183 L 1697,184 L 1697,186 L 1696,187 L 1696,188 L 1695,189 L 1695,191 L 1694,192 L 1694,193 L 1693,194 L 1693,195 L 1692,196 L 1692,198 L 1691,199 L 1691,200 L 1690,201 L 1690,203 L 1689,204 L 1689,205 L 1688,206 L 1688,207 L 1687,208 L 1687,210 L 1686,211 L 1686,212 L 1685,213 L 1685,215 L 1684,216 L 1684,217 L 1683,218 L 1683,219 L 1682,220 L 1682,222 L 1681,223 L 1681,224 L 1680,225 L 1680,227 L 1679,228 L 1679,229 L 1678,230 L 1678,231 L 1677,232 L 1677,234 L 1676,235 L 1676,236 L 1675,237 L 1675,239 L 1674,240 L 1674,241 L 1673,242 L 1673,243 L 1672,244 L 1672,246 L 1671,247 L 1671,248 L 1670,249 L 1670,251 L 1669,252 L 1669,254 L 1685,254 L 1686,253 L 1686,252 L 1687,251 L 1687,249 L 1688,248 L 1688,247 L 1689,246 L 1689,244 L 1690,243 L 1690,242 L 1691,241 L 1691,239 L 1692,238 L 1692,237 L 1693,236 L 1693,235 L 1694,234 L 1694,232 L 1695,231 L 1695,230 L 1696,229 L 1696,227 L 1697,226 L 1697,225 L 1698,224 L 1698,222 L 1699,221 L 1699,220 L 1700,219 L 1700,218 L 1701,217 L 1701,215 L 1702,214 L 1702,213 L 1703,212 L 1703,210 L 1704,209 L 1704,208 L 1705,207 L 1705,205 L 1706,204 L 1706,203 L 1707,202 L 1707,201 L 1708,200 L 1708,198 L 1709,197 L 1709,196 L 1711,194 L 1807,194 L 1809,196 L 1809,198 L 1810,199 L 1810,200 L 1811,201 L 1811,202 L 1812,203 L 1812,205 L 1813,206 L 1813,207 L 1814,208 L 1814,210 L 1815,211 L 1815,212 L 1816,213 L 1816,215 L 1817,216 L 1817,217 L 1818,218 L 1818,219 L 1819,220 L 1819,222 L 1820,223 L 1820,224 L 1821,225 L 1821,227 L 1822,228 L 1822,229 L 1823,230 L 1823,232 L 1824,233 L 1824,234 L 1825,235 L 1825,236 L 1826,237 L 1826,239 L 1827,240 L 1827,241 L 1828,242 L 1828,244 L 1829,245 L 1829,246 L 1830,247 L 1830,249 L 1831,250 L 1831,251 L 1832,252 L 1832,253 L 1833,254 L 1850,254 L 1850,252 L 1849,251 L 1849,250 L 1848,249 L 1848,248 L 1847,247 L 1847,245 L 1846,244 L 1846,243 L 1845,242 L 1845,240 L 1844,239 L 1844,238 L 1843,237 L 1843,236 L 1842,235 L 1842,233 L 1841,232 L 1841,231 L 1840,230 L 1840,228 L 1839,227 L 1839,226 L 1838,225 L 1838,224 L 1837,223 L 1837,221 L 1836,220 L 1836,219 L 1835,218 L 1835,217 L 1834,216 L 1834,214 L 1833,213 L 1833,212 L 1832,211 L 1832,209 L 1831,208 L 1831,207 L 1830,206 L 1830,205 L 1829,204 L 1829,202 L 1828,201 L 1828,200 L 1827,199 L 1827,197 L 1826,196 L 1826,195 L 1825,194 L 1825,193 L 1824,192 L 1824,190 L 1823,189 L 1823,188 L 1822,187 L 1822,185 L 1821,184 L 1821,183 L 1820,182 L 1820,181 L 1819,180 L 1819,178 L 1818,177 L 1818,176 L 1817,175 L 1817,174 L 1816,173 L 1816,171 L 1815,170 L 1815,169 L 1814,168 L 1814,166 L 1813,165 L 1813,164 L 1812,163 L 1812,162 L 1811,161 L 1811,159 L 1810,158 L 1810,157 L 1809,156 L 1809,154 L 1808,153 L 1808,152 L 1807,151 L 1807,150 L 1806,149 L 1806,147 L 1805,146 L 1805,145 L 1804,144 L 1804,142 L 1803,141 L 1803,140 L 1802,139 L 1802,138 L 1801,137 L 1801,135 L 1800,134 L 1800,133 L 1799,132 L 1799,131 L 1798,130 L 1798,128 L 1797,127 L 1797,126 L 1796,125 L 1796,123 L 1795,122 L 1795,121 L 1794,120 L 1794,119 L 1793,118 L 1793,116 L 1792,115 L 1792,114 L 1791,113 L 1791,111 L 1790,110 L 1790,109 L 1789,108 L 1789,107 L 1788,106 L 1788,104 L 1787,103 L 1787,102 L 1786,101 L 1786,99 L 1785,98 L 1785,97 L 1784,96 L 1784,95 L 1783,94 L 1783,92 L 1782,91 L 1782,90 L 1781,89 L 1781,88 L 1780,87 L 1780,85 L 1779,84 L 1779,83 L 1778,82 L 1778,80 L 1777,79 L 1777,78 L 1776,77 L 1776,76 L 1775,75 L 1775,73 L 1774,72 L 1774,71 L 1773,70 L 1773,68 L 1772,67 L 1772,66 L 1771,65 L 1771,64 L 1770,63 L 1770,61 L 1769,60 L 1769,59 L 1768,58 L 1768,56 L 1767,55 Z M 1758,76 L 1759,75 L 1760,76 L 1760,77 L 1761,78 L 1761,79 L 1762,80 L 1762,82 L 1763,83 L 1763,84 L 1764,85 L 1764,87 L 1765,88 L 1765,89 L 1766,90 L 1766,92 L 1767,93 L 1767,94 L 1768,95 L 1768,97 L 1769,98 L 1769,99 L 1770,100 L 1770,102 L 1771,103 L 1771,104 L 1772,105 L 1772,107 L 1773,108 L 1773,109 L 1774,110 L 1774,112 L 1775,113 L 1775,114 L 1776,115 L 1776,117 L 1777,118 L 1777,119 L 1778,120 L 1778,122 L 1779,123 L 1779,124 L 1780,125 L 1780,127 L 1781,128 L 1781,129 L 1782,130 L 1782,131 L 1783,132 L 1783,134 L 1784,135 L 1784,136 L 1785,137 L 1785,139 L 1786,140 L 1786,141 L 1787,142 L 1787,144 L 1788,145 L 1788,146 L 1789,147 L 1789,149 L 1790,150 L 1790,151 L 1791,152 L 1791,154 L 1792,155 L 1792,156 L 1793,157 L 1793,158 L 1794,159 L 1794,161 L 1795,162 L 1795,163 L 1796,164 L 1796,166 L 1797,167 L 1797,168 L 1798,169 L 1798,171 L 1799,172 L 1799,173 L 1800,174 L 1800,176 L 1801,177 L 1801,178 L 1800,179 L 1718,179 L 1717,178 L 1717,176 L 1718,175 L 1718,174 L 1719,173 L 1719,171 L 1720,170 L 1720,169 L 1721,168 L 1721,166 L 1722,165 L 1722,164 L 1723,163 L 1723,162 L 1724,161 L 1724,159 L 1725,158 L 1725,157 L 1726,156 L 1726,154 L 1727,153 L 1727,152 L 1728,151 L 1728,149 L 1729,148 L 1729,147 L 1730,146 L 1730,145 L 1731,144 L 1731,142 L 1732,141 L 1732,140 L 1733,139 L 1733,137 L 1734,136 L 1734,135 L 1735,134 L 1735,132 L 1736,131 L 1736,130 L 1737,129 L 1737,128 L 1738,127 L 1738,125 L 1739,124 L 1739,123 L 1740,122 L 1740,120 L 1741,119 L 1741,118 L 1742,117 L 1742,115 L 1743,114 L 1743,113 L 1744,112 L 1744,110 L 1745,109 L 1745,108 L 1746,107 L 1746,106 L 1747,105 L 1747,103 L 1748,102 L 1748,101 L 1749,100 L 1749,98 L 1750,97 L 1750,96 L 1751,95 L 1751,93 L 1752,92 L 1752,91 L 1753,90 L 1753,88 L 1754,87 L 1754,86 L 1755,85 L 1755,83 L 1756,82 L 1756,81 L 1757,80 L 1757,78 L 1758,77 Z" fill="black" fill-rule="evenodd" /><path d="M 1479,55 L 1479,254 L 1495,254 L 1495,84 L 1496,83 L 1499,86 L 1499,87 L 1502,90 L 1502,91 L 1505,94 L 1505,95 L 1507,97 L 1507,98 L 1510,101 L 1510,102 L 1513,105 L 1513,106 L 1516,109 L 1516,110 L 1519,113 L 1519,114 L 1521,116 L 1521,117 L 1524,120 L 1524,121 L 1527,124 L 1527,125 L 1530,128 L 1530,129 L 1533,132 L 1533,133 L 1536,136 L 1536,137 L 1539,140 L 1539,141 L 1542,144 L 1542,145 L 1545,148 L 1545,149 L 1548,152 L 1548,153 L 1551,156 L 1551,157 L 1554,160 L 1554,161 L 1557,164 L 1557,165 L 1560,168 L 1560,169 L 1563,172 L 1563,173 L 1566,176 L 1566,177 L 1569,180 L 1569,181 L 1572,184 L 1572,185 L 1575,188 L 1575,189 L 1578,192 L 1578,193 L 1581,196 L 1581,197 L 1584,200 L 1584,201 L 1587,204 L 1587,205 L 1590,208 L 1590,209 L 1593,212 L 1593,213 L 1596,216 L 1596,217 L 1599,220 L 1599,221 L 1602,224 L 1602,225 L 1605,228 L 1605,229 L 1608,232 L 1608,233 L 1611,236 L 1611,237 L 1614,240 L 1614,241 L 1618,245 L 1618,246 L 1620,248 L 1620,249 L 1623,252 L 1623,253 L 1624,254 L 1640,254 L 1640,55 L 1624,55 L 1624,225 L 1623,226 L 1621,224 L 1621,223 L 1618,220 L 1618,219 L 1616,217 L 1616,216 L 1613,213 L 1613,212 L 1610,209 L 1610,208 L 1607,205 L 1607,204 L 1605,202 L 1605,201 L 1602,198 L 1602,197 L 1599,194 L 1599,193 L 1596,190 L 1596,189 L 1593,186 L 1593,185 L 1590,182 L 1590,181 L 1587,178 L 1587,177 L 1584,174 L 1584,173 L 1581,170 L 1581,169 L 1578,166 L 1578,165 L 1575,162 L 1575,161 L 1572,158 L 1572,157 L 1569,154 L 1569,153 L 1566,150 L 1566,149 L 1563,146 L 1563,145 L 1560,142 L 1560,141 L 1557,138 L 1557,137 L 1554,134 L 1554,133 L 1551,130 L 1551,129 L 1548,126 L 1548,125 L 1545,122 L 1545,121 L 1542,118 L 1542,117 L 1539,114 L 1539,113 L 1536,110 L 1536,109 L 1533,106 L 1533,105 L 1530,102 L 1530,101 L 1527,98 L 1527,97 L 1524,94 L 1524,93 L 1521,90 L 1521,89 L 1518,86 L 1518,85 L 1515,82 L 1515,81 L 1512,78 L 1512,77 L 1509,74 L 1509,73 L 1506,70 L 1506,69 L 1503,66 L 1503,65 L 1500,62 L 1500,61 L 1497,58 L 1497,57 L 1495,55 Z" fill="black" fill-rule="evenodd" /><path d="M 1303,55 L 1303,254 L 1319,254 L 1319,166 L 1320,165 L 1363,165 L 1364,166 L 1364,167 L 1366,169 L 1366,170 L 1369,173 L 1369,174 L 1372,177 L 1372,178 L 1374,180 L 1374,181 L 1377,184 L 1377,185 L 1380,188 L 1380,189 L 1382,191 L 1382,192 L 1385,195 L 1385,196 L 1388,199 L 1388,200 L 1390,202 L 1390,203 L 1393,206 L 1393,207 L 1396,210 L 1396,211 L 1398,213 L 1398,214 L 1401,217 L 1401,218 L 1404,221 L 1404,222 L 1407,225 L 1407,226 L 1409,228 L 1409,229 L 1412,232 L 1412,233 L 1415,236 L 1415,237 L 1417,239 L 1417,240 L 1420,243 L 1420,244 L 1423,247 L 1423,248 L 1425,250 L 1425,251 L 1428,254 L 1447,254 L 1447,253 L 1445,251 L 1445,250 L 1443,248 L 1443,247 L 1440,244 L 1440,243 L 1437,240 L 1437,239 L 1434,236 L 1434,235 L 1432,233 L 1432,232 L 1429,229 L 1429,228 L 1426,225 L 1426,224 L 1423,221 L 1423,220 L 1420,217 L 1420,216 L 1418,214 L 1418,213 L 1415,210 L 1415,209 L 1412,206 L 1412,205 L 1409,202 L 1409,201 L 1407,199 L 1407,198 L 1404,195 L 1404,194 L 1401,191 L 1401,190 L 1398,187 L 1398,186 L 1395,183 L 1395,182 L 1393,180 L 1393,179 L 1390,176 L 1390,175 L 1387,172 L 1387,171 L 1384,168 L 1384,167 L 1381,164 L 1382,163 L 1385,163 L 1386,162 L 1390,162 L 1391,161 L 1393,161 L 1394,160 L 1397,160 L 1398,159 L 1400,159 L 1401,158 L 1402,158 L 1403,157 L 1404,157 L 1405,156 L 1406,156 L 1407,155 L 1408,155 L 1409,154 L 1410,154 L 1412,152 L 1413,152 L 1416,149 L 1417,149 L 1423,143 L 1423,142 L 1426,139 L 1426,138 L 1427,137 L 1427,136 L 1428,135 L 1428,134 L 1429,133 L 1429,132 L 1430,131 L 1430,130 L 1431,129 L 1431,127 L 1432,126 L 1432,124 L 1433,123 L 1433,119 L 1434,118 L 1434,100 L 1433,99 L 1433,96 L 1432,95 L 1432,93 L 1431,92 L 1431,90 L 1430,89 L 1430,88 L 1429,87 L 1429,86 L 1428,85 L 1428,84 L 1427,83 L 1427,82 L 1425,80 L 1425,79 L 1414,68 L 1413,68 L 1411,66 L 1410,66 L 1409,65 L 1408,65 L 1406,63 L 1404,63 L 1403,62 L 1402,62 L 1401,61 L 1400,61 L 1399,60 L 1397,60 L 1396,59 L 1393,59 L 1392,58 L 1389,58 L 1388,57 L 1384,57 L 1383,56 L 1376,56 L 1375,55 Z M 1319,71 L 1320,70 L 1374,70 L 1375,71 L 1381,71 L 1382,72 L 1386,72 L 1387,73 L 1390,73 L 1391,74 L 1393,74 L 1394,75 L 1395,75 L 1396,76 L 1397,76 L 1398,77 L 1399,77 L 1401,79 L 1402,79 L 1405,82 L 1406,82 L 1409,85 L 1409,86 L 1412,89 L 1412,90 L 1414,92 L 1414,93 L 1415,94 L 1415,96 L 1416,97 L 1416,99 L 1417,100 L 1417,104 L 1418,105 L 1418,115 L 1417,116 L 1417,121 L 1416,122 L 1416,124 L 1415,125 L 1415,126 L 1414,127 L 1414,128 L 1413,129 L 1413,130 L 1411,132 L 1411,133 L 1403,141 L 1402,141 L 1400,143 L 1399,143 L 1398,144 L 1397,144 L 1396,145 L 1395,145 L 1394,146 L 1392,146 L 1391,147 L 1389,147 L 1388,148 L 1385,148 L 1384,149 L 1380,149 L 1379,150 L 1368,150 L 1367,151 L 1320,151 L 1319,150 Z" fill="black" fill-rule="evenodd" /><path d="M 1151,55 L 1151,254 L 1263,254 L 1263,239 L 1168,239 L 1167,238 L 1167,159 L 1168,158 L 1250,158 L 1250,143 L 1168,143 L 1167,142 L 1167,71 L 1168,70 L 1260,70 L 1261,69 L 1261,55 Z" fill="black" fill-rule="evenodd" /><path d="M 947,55 L 947,254 L 1009,254 L 1010,253 L 1020,253 L 1021,252 L 1027,252 L 1028,251 L 1032,251 L 1033,250 L 1037,250 L 1038,249 L 1041,249 L 1042,248 L 1044,248 L 1045,247 L 1048,247 L 1049,246 L 1050,246 L 1051,245 L 1053,245 L 1054,244 L 1055,244 L 1056,243 L 1058,243 L 1059,242 L 1060,242 L 1061,241 L 1062,241 L 1063,240 L 1064,240 L 1066,238 L 1067,238 L 1068,237 L 1069,237 L 1071,235 L 1072,235 L 1074,233 L 1075,233 L 1079,229 L 1080,229 L 1089,220 L 1089,219 L 1094,214 L 1094,213 L 1096,211 L 1096,210 L 1098,208 L 1098,207 L 1100,205 L 1100,204 L 1101,203 L 1101,202 L 1102,201 L 1102,200 L 1103,199 L 1103,198 L 1104,197 L 1104,196 L 1105,195 L 1105,193 L 1106,192 L 1106,191 L 1107,190 L 1107,188 L 1108,187 L 1108,185 L 1109,184 L 1109,182 L 1110,181 L 1110,178 L 1111,177 L 1111,173 L 1112,172 L 1112,167 L 1113,166 L 1113,142 L 1112,141 L 1112,135 L 1111,134 L 1111,131 L 1110,130 L 1110,127 L 1109,126 L 1109,123 L 1108,122 L 1108,120 L 1107,119 L 1107,118 L 1106,117 L 1106,115 L 1105,114 L 1105,113 L 1104,112 L 1104,111 L 1103,110 L 1103,109 L 1102,108 L 1102,107 L 1101,106 L 1101,105 L 1100,104 L 1100,103 L 1098,101 L 1098,100 L 1097,99 L 1097,98 L 1094,95 L 1094,94 L 1090,90 L 1090,89 L 1080,79 L 1079,79 L 1076,76 L 1075,76 L 1073,74 L 1072,74 L 1070,72 L 1069,72 L 1067,70 L 1066,70 L 1065,69 L 1064,69 L 1063,68 L 1062,68 L 1061,67 L 1060,67 L 1059,66 L 1058,66 L 1057,65 L 1056,65 L 1055,64 L 1053,64 L 1052,63 L 1050,63 L 1049,62 L 1048,62 L 1047,61 L 1044,61 L 1043,60 L 1041,60 L 1040,59 L 1036,59 L 1035,58 L 1032,58 L 1031,57 L 1026,57 L 1025,56 L 1018,56 L 1017,55 Z M 964,71 L 965,70 L 1014,70 L 1015,71 L 1023,71 L 1024,72 L 1029,72 L 1030,73 L 1033,73 L 1034,74 L 1037,74 L 1038,75 L 1040,75 L 1041,76 L 1043,76 L 1044,77 L 1046,77 L 1047,78 L 1048,78 L 1049,79 L 1050,79 L 1051,80 L 1052,80 L 1053,81 L 1054,81 L 1055,82 L 1056,82 L 1057,83 L 1058,83 L 1060,85 L 1061,85 L 1063,87 L 1064,87 L 1068,91 L 1069,91 L 1077,99 L 1077,100 L 1081,104 L 1081,105 L 1083,107 L 1083,108 L 1085,110 L 1085,111 L 1086,112 L 1086,113 L 1087,114 L 1087,115 L 1088,116 L 1088,117 L 1089,118 L 1089,119 L 1090,120 L 1090,121 L 1091,122 L 1091,124 L 1092,125 L 1092,126 L 1093,127 L 1093,130 L 1094,131 L 1094,134 L 1095,135 L 1095,139 L 1096,140 L 1096,147 L 1097,148 L 1097,161 L 1096,162 L 1096,169 L 1095,170 L 1095,174 L 1094,175 L 1094,178 L 1093,179 L 1093,181 L 1092,182 L 1092,184 L 1091,185 L 1091,187 L 1090,188 L 1090,189 L 1089,190 L 1089,191 L 1088,192 L 1088,193 L 1087,194 L 1087,195 L 1086,196 L 1086,197 L 1084,199 L 1084,200 L 1082,202 L 1082,203 L 1080,205 L 1080,206 L 1066,220 L 1065,220 L 1062,223 L 1061,223 L 1059,225 L 1058,225 L 1057,226 L 1056,226 L 1055,227 L 1054,227 L 1053,228 L 1052,228 L 1051,229 L 1050,229 L 1049,230 L 1048,230 L 1047,231 L 1046,231 L 1045,232 L 1043,232 L 1042,233 L 1040,233 L 1039,234 L 1036,234 L 1035,235 L 1032,235 L 1031,236 L 1027,236 L 1026,237 L 1021,237 L 1020,238 L 1010,238 L 1009,239 L 965,239 L 964,238 Z" fill="black" fill-rule="evenodd" /><path d="M 483,55 L 483,254 L 499,254 L 499,90 L 498,89 L 498,84 L 499,83 L 501,85 L 501,86 L 504,89 L 504,90 L 506,92 L 506,93 L 508,95 L 508,96 L 510,98 L 510,99 L 512,101 L 512,102 L 515,105 L 515,106 L 517,108 L 517,109 L 519,111 L 519,112 L 521,114 L 521,115 L 523,117 L 523,118 L 526,121 L 526,122 L 528,124 L 528,125 L 530,127 L 530,128 L 532,130 L 532,131 L 535,134 L 535,135 L 537,137 L 537,138 L 539,140 L 539,141 L 542,144 L 542,145 L 544,147 L 544,148 L 546,150 L 546,151 L 548,153 L 548,154 L 551,157 L 551,158 L 553,160 L 553,161 L 555,163 L 555,164 L 557,166 L 557,167 L 560,170 L 560,171 L 562,173 L 562,174 L 564,176 L 564,177 L 567,180 L 567,181 L 569,183 L 569,184 L 571,186 L 571,187 L 573,189 L 573,190 L 576,193 L 576,194 L 577,193 L 577,192 L 579,190 L 579,189 L 582,186 L 582,185 L 584,183 L 584,182 L 586,180 L 586,179 L 589,176 L 589,175 L 591,173 L 591,172 L 593,170 L 593,169 L 595,167 L 595,166 L 598,163 L 598,162 L 600,160 L 600,159 L 602,157 L 602,156 L 604,154 L 604,153 L 607,150 L 607,149 L 609,147 L 609,146 L 611,144 L 611,143 L 614,140 L 614,139 L 616,137 L 616,136 L 618,134 L 618,133 L 620,131 L 620,130 L 623,127 L 623,126 L 625,124 L 625,123 L 627,121 L 627,120 L 629,118 L 629,117 L 632,114 L 632,113 L 634,111 L 634,110 L 636,108 L 636,107 L 638,105 L 638,104 L 641,101 L 641,100 L 643,98 L 643,97 L 645,95 L 645,94 L 647,92 L 647,91 L 649,89 L 649,88 L 651,86 L 651,85 L 653,83 L 654,84 L 654,254 L 670,254 L 670,55 L 654,55 L 652,57 L 652,58 L 650,60 L 650,61 L 647,64 L 647,65 L 645,67 L 645,68 L 643,70 L 643,71 L 641,73 L 641,74 L 638,77 L 638,78 L 636,80 L 636,81 L 634,83 L 634,84 L 631,87 L 631,88 L 629,90 L 629,91 L 627,93 L 627,94 L 625,96 L 625,97 L 622,100 L 622,101 L 620,103 L 620,104 L 618,106 L 618,107 L 615,110 L 615,111 L 613,113 L 613,114 L 611,116 L 611,117 L 609,119 L 609,120 L 606,123 L 606,124 L 604,126 L 604,127 L 602,129 L 602,130 L 599,133 L 599,134 L 597,136 L 597,137 L 595,139 L 595,140 L 593,142 L 593,143 L 590,146 L 590,147 L 588,149 L 588,150 L 586,152 L 586,153 L 583,156 L 583,157 L 581,159 L 581,160 L 579,162 L 579,163 L 577,165 L 576,165 L 574,163 L 574,162 L 571,159 L 571,158 L 569,156 L 569,155 L 567,153 L 567,152 L 564,149 L 564,148 L 562,146 L 562,145 L 560,143 L 560,142 L 558,140 L 558,139 L 555,136 L 555,135 L 553,133 L 553,132 L 551,130 L 551,129 L 548,126 L 548,125 L 546,123 L 546,122 L 544,120 L 544,119 L 542,117 L 542,116 L 539,113 L 539,112 L 537,110 L 537,109 L 535,107 L 535,106 L 532,103 L 532,102 L 530,100 L 530,99 L 528,97 L 528,96 L 526,94 L 526,93 L 523,90 L 523,89 L 521,87 L 521,86 L 519,84 L 519,83 L 516,80 L 516,79 L 514,77 L 514,76 L 512,74 L 512,73 L 510,71 L 510,70 L 507,67 L 507,66 L 505,64 L 505,63 L 503,61 L 503,60 L 500,57 L 500,56 L 499,55 Z" fill="black" fill-rule="evenodd" /><path d="M 288,55 L 287,56 L 287,57 L 286,58 L 286,60 L 285,61 L 285,62 L 284,63 L 284,64 L 283,65 L 283,67 L 282,68 L 282,69 L 281,70 L 281,72 L 280,73 L 280,74 L 279,75 L 279,76 L 278,77 L 278,79 L 277,80 L 277,81 L 276,82 L 276,84 L 275,85 L 275,86 L 274,87 L 274,88 L 273,89 L 273,91 L 272,92 L 272,93 L 271,94 L 271,96 L 270,97 L 270,98 L 269,99 L 269,100 L 268,101 L 268,103 L 267,104 L 267,105 L 266,106 L 266,108 L 265,109 L 265,110 L 264,111 L 264,112 L 263,113 L 263,115 L 262,116 L 262,117 L 261,118 L 261,120 L 260,121 L 260,122 L 259,123 L 259,125 L 258,126 L 258,127 L 257,128 L 257,129 L 256,130 L 256,132 L 255,133 L 255,134 L 254,135 L 254,137 L 253,138 L 253,139 L 252,140 L 252,141 L 251,142 L 251,144 L 250,145 L 250,146 L 249,147 L 249,149 L 248,150 L 248,151 L 247,152 L 247,153 L 246,154 L 246,156 L 245,157 L 245,158 L 244,159 L 244,161 L 243,162 L 243,163 L 242,164 L 242,165 L 241,166 L 241,168 L 240,169 L 240,170 L 239,171 L 239,173 L 238,174 L 238,175 L 237,176 L 237,177 L 236,178 L 236,180 L 235,181 L 235,182 L 234,183 L 234,185 L 233,186 L 233,187 L 232,188 L 232,189 L 231,190 L 231,192 L 230,193 L 230,194 L 229,195 L 229,197 L 228,198 L 228,199 L 227,200 L 227,201 L 226,202 L 226,204 L 225,205 L 225,206 L 224,207 L 224,209 L 223,210 L 223,211 L 222,212 L 222,213 L 221,214 L 221,216 L 220,217 L 220,218 L 219,219 L 219,221 L 218,222 L 218,223 L 217,224 L 217,225 L 216,226 L 216,228 L 215,229 L 215,230 L 214,231 L 214,233 L 213,234 L 213,235 L 212,236 L 212,237 L 211,238 L 211,240 L 210,241 L 210,242 L 209,243 L 209,245 L 208,246 L 208,247 L 207,248 L 207,250 L 206,251 L 206,252 L 205,253 L 205,254 L 222,254 L 222,253 L 223,252 L 223,251 L 224,250 L 224,248 L 225,247 L 225,246 L 226,245 L 226,243 L 227,242 L 227,241 L 228,240 L 228,238 L 229,237 L 229,236 L 230,235 L 230,234 L 231,233 L 231,231 L 232,230 L 232,229 L 233,228 L 233,226 L 234,225 L 234,224 L 235,223 L 235,221 L 236,220 L 236,219 L 237,218 L 237,217 L 238,216 L 238,214 L 239,213 L 239,212 L 240,211 L 240,209 L 241,208 L 241,207 L 242,206 L 242,204 L 243,203 L 243,202 L 244,201 L 244,200 L 245,199 L 245,197 L 246,196 L 246,195 L 247,194 L 344,194 L 345,195 L 345,196 L 346,197 L 346,199 L 347,200 L 347,201 L 348,202 L 348,203 L 349,204 L 349,206 L 350,207 L 350,208 L 351,209 L 351,211 L 352,212 L 352,213 L 353,214 L 353,216 L 354,217 L 354,218 L 355,219 L 355,220 L 356,221 L 356,223 L 357,224 L 357,225 L 358,226 L 358,228 L 359,229 L 359,230 L 360,231 L 360,233 L 361,234 L 361,235 L 362,236 L 362,237 L 363,238 L 363,240 L 364,241 L 364,242 L 365,243 L 365,245 L 366,246 L 366,247 L 367,248 L 367,250 L 368,251 L 368,252 L 369,253 L 369,254 L 387,254 L 387,253 L 386,252 L 386,251 L 385,250 L 385,249 L 384,248 L 384,246 L 383,245 L 383,244 L 382,243 L 382,241 L 381,240 L 381,239 L 380,238 L 380,237 L 379,236 L 379,234 L 378,233 L 378,232 L 377,231 L 377,229 L 376,228 L 376,227 L 375,226 L 375,225 L 374,224 L 374,222 L 373,221 L 373,220 L 372,219 L 372,218 L 371,217 L 371,215 L 370,214 L 370,213 L 369,212 L 369,210 L 368,209 L 368,208 L 367,207 L 367,206 L 366,205 L 366,203 L 365,202 L 365,201 L 364,200 L 364,198 L 363,197 L 363,196 L 362,195 L 362,194 L 361,193 L 361,191 L 360,190 L 360,189 L 359,188 L 359,186 L 358,185 L 358,184 L 357,183 L 357,182 L 356,181 L 356,179 L 355,178 L 355,177 L 354,176 L 354,175 L 353,174 L 353,172 L 352,171 L 352,170 L 351,169 L 351,167 L 350,166 L 350,165 L 349,164 L 349,163 L 348,162 L 348,160 L 347,159 L 347,158 L 346,157 L 346,155 L 345,154 L 345,153 L 344,152 L 344,151 L 343,150 L 343,148 L 342,147 L 342,146 L 341,145 L 341,143 L 340,142 L 340,141 L 339,140 L 339,139 L 338,138 L 338,136 L 337,135 L 337,134 L 336,133 L 336,132 L 335,131 L 335,129 L 334,128 L 334,127 L 333,126 L 333,124 L 332,123 L 332,122 L 331,121 L 331,120 L 330,119 L 330,117 L 329,116 L 329,115 L 328,114 L 328,112 L 327,111 L 327,110 L 326,109 L 326,108 L 325,107 L 325,105 L 324,104 L 324,103 L 323,102 L 323,100 L 322,99 L 322,98 L 321,97 L 321,96 L 320,95 L 320,93 L 319,92 L 319,91 L 318,90 L 318,89 L 317,88 L 317,86 L 316,85 L 316,84 L 315,83 L 315,81 L 314,80 L 314,79 L 313,78 L 313,77 L 312,76 L 312,74 L 311,73 L 311,72 L 310,71 L 310,69 L 309,68 L 309,67 L 308,66 L 308,65 L 307,64 L 307,62 L 306,61 L 306,60 L 305,59 L 305,57 L 304,56 L 304,55 Z M 296,75 L 297,76 L 297,78 L 298,79 L 298,80 L 299,81 L 299,83 L 300,84 L 300,85 L 301,86 L 301,88 L 302,89 L 302,91 L 303,92 L 303,93 L 304,94 L 304,96 L 305,97 L 305,98 L 306,99 L 306,100 L 307,101 L 307,103 L 308,104 L 308,105 L 309,106 L 309,108 L 310,109 L 310,110 L 311,111 L 311,113 L 312,114 L 312,115 L 313,116 L 313,118 L 314,119 L 314,120 L 315,121 L 315,123 L 316,124 L 316,125 L 317,126 L 317,128 L 318,129 L 318,130 L 319,131 L 319,132 L 320,133 L 320,135 L 321,136 L 321,137 L 322,138 L 322,140 L 323,141 L 323,142 L 324,143 L 324,145 L 325,146 L 325,147 L 326,148 L 326,150 L 327,151 L 327,152 L 328,153 L 328,155 L 329,156 L 329,157 L 330,158 L 330,159 L 331,160 L 331,162 L 332,163 L 332,164 L 333,165 L 333,167 L 334,168 L 334,169 L 335,170 L 335,172 L 336,173 L 336,174 L 337,175 L 337,177 L 338,178 L 337,179 L 254,179 L 253,178 L 254,177 L 254,175 L 255,174 L 255,173 L 256,172 L 256,170 L 257,169 L 257,168 L 258,167 L 258,165 L 259,164 L 259,163 L 260,162 L 260,161 L 261,160 L 261,158 L 262,157 L 262,156 L 263,155 L 263,153 L 264,152 L 264,151 L 265,150 L 265,148 L 266,147 L 266,146 L 267,145 L 267,144 L 268,143 L 268,141 L 269,140 L 269,139 L 270,138 L 270,136 L 271,135 L 271,134 L 272,133 L 272,131 L 273,130 L 273,129 L 274,128 L 274,127 L 275,126 L 275,124 L 276,123 L 276,122 L 277,121 L 277,119 L 278,118 L 278,117 L 279,116 L 279,114 L 280,113 L 280,112 L 281,111 L 281,109 L 282,108 L 282,107 L 283,106 L 283,104 L 284,103 L 284,102 L 285,101 L 285,100 L 286,99 L 286,97 L 287,96 L 287,95 L 288,94 L 288,92 L 289,91 L 289,90 L 290,89 L 290,87 L 291,86 L 291,85 L 292,84 L 292,82 L 293,81 L 293,80 L 294,79 L 294,77 Z" fill="black" fill-rule="evenodd" /><path d="M 75,55 L 75,253 L 76,254 L 191,254 L 191,239 L 93,239 L 92,238 L 92,55 Z" fill="black" fill-rule="evenodd" /><path d="M 796,52 L 795,53 L 789,53 L 788,54 L 785,54 L 784,55 L 781,55 L 780,56 L 777,56 L 776,57 L 774,57 L 773,58 L 772,58 L 771,59 L 769,59 L 768,60 L 767,60 L 766,61 L 765,61 L 764,62 L 763,62 L 762,63 L 761,63 L 760,64 L 759,64 L 757,66 L 756,66 L 755,67 L 754,67 L 752,69 L 751,69 L 748,72 L 747,72 L 743,76 L 742,76 L 733,85 L 733,86 L 729,90 L 729,91 L 726,94 L 726,95 L 724,97 L 724,98 L 723,99 L 723,100 L 722,101 L 722,102 L 720,104 L 720,105 L 719,106 L 719,107 L 718,108 L 718,109 L 717,110 L 717,112 L 716,113 L 716,114 L 715,115 L 715,117 L 714,118 L 714,120 L 713,121 L 713,123 L 712,124 L 712,127 L 711,128 L 711,131 L 710,132 L 710,137 L 709,138 L 709,145 L 708,146 L 708,163 L 709,164 L 709,171 L 710,172 L 710,177 L 711,178 L 711,181 L 712,182 L 712,185 L 713,186 L 713,188 L 714,189 L 714,191 L 715,192 L 715,193 L 716,194 L 716,196 L 717,197 L 717,198 L 718,199 L 718,200 L 719,201 L 719,202 L 720,203 L 720,204 L 721,205 L 721,206 L 722,207 L 722,208 L 723,209 L 723,210 L 725,212 L 725,213 L 727,215 L 727,216 L 730,219 L 730,220 L 746,236 L 747,236 L 750,239 L 751,239 L 753,241 L 754,241 L 756,243 L 757,243 L 758,244 L 759,244 L 760,245 L 761,245 L 762,246 L 763,246 L 764,247 L 765,247 L 766,248 L 767,248 L 768,249 L 769,249 L 770,250 L 772,250 L 773,251 L 775,251 L 776,252 L 778,252 L 779,253 L 781,253 L 782,254 L 785,254 L 786,255 L 790,255 L 791,256 L 798,256 L 799,257 L 818,257 L 819,256 L 826,256 L 827,255 L 831,255 L 832,254 L 835,254 L 836,253 L 839,253 L 840,252 L 842,252 L 843,251 L 844,251 L 845,250 L 847,250 L 848,249 L 849,249 L 850,248 L 852,248 L 853,247 L 854,247 L 856,245 L 857,245 L 858,244 L 859,244 L 860,243 L 861,243 L 863,241 L 864,241 L 866,239 L 867,239 L 869,237 L 870,237 L 875,232 L 876,232 L 883,225 L 883,224 L 888,219 L 888,218 L 891,215 L 891,214 L 893,212 L 893,211 L 894,210 L 894,209 L 896,207 L 896,206 L 897,205 L 897,204 L 898,203 L 898,202 L 899,201 L 899,200 L 900,199 L 900,198 L 901,197 L 901,195 L 902,194 L 902,192 L 903,191 L 903,190 L 904,189 L 904,186 L 905,185 L 905,183 L 906,182 L 906,179 L 907,178 L 907,174 L 908,173 L 908,167 L 909,166 L 909,143 L 908,142 L 908,136 L 907,135 L 907,131 L 906,130 L 906,127 L 905,126 L 905,123 L 904,122 L 904,120 L 903,119 L 903,117 L 902,116 L 902,115 L 901,114 L 901,112 L 900,111 L 900,110 L 899,109 L 899,108 L 898,107 L 898,106 L 897,105 L 897,104 L 896,103 L 896,102 L 895,101 L 895,100 L 893,98 L 893,97 L 891,95 L 891,94 L 889,92 L 889,91 L 885,87 L 885,86 L 873,74 L 872,74 L 869,71 L 868,71 L 866,69 L 865,69 L 863,67 L 862,67 L 860,65 L 859,65 L 858,64 L 857,64 L 856,63 L 855,63 L 854,62 L 853,62 L 852,61 L 851,61 L 850,60 L 849,60 L 848,59 L 846,59 L 845,58 L 844,58 L 843,57 L 841,57 L 840,56 L 837,56 L 836,55 L 834,55 L 833,54 L 829,54 L 828,53 L 823,53 L 822,52 Z M 798,68 L 799,67 L 818,67 L 819,68 L 825,68 L 826,69 L 829,69 L 830,70 L 833,70 L 834,71 L 836,71 L 837,72 L 839,72 L 840,73 L 841,73 L 842,74 L 843,74 L 844,75 L 845,75 L 846,76 L 847,76 L 848,77 L 849,77 L 850,78 L 851,78 L 852,79 L 853,79 L 855,81 L 856,81 L 859,84 L 860,84 L 874,98 L 874,99 L 877,102 L 877,103 L 879,105 L 879,106 L 881,108 L 881,109 L 882,110 L 882,111 L 883,112 L 883,113 L 884,114 L 884,115 L 885,116 L 885,118 L 886,119 L 886,120 L 887,121 L 887,123 L 888,124 L 888,126 L 889,127 L 889,129 L 890,130 L 890,133 L 891,134 L 891,139 L 892,140 L 892,148 L 893,149 L 893,160 L 892,161 L 892,169 L 891,170 L 891,174 L 890,175 L 890,178 L 889,179 L 889,182 L 888,183 L 888,185 L 887,186 L 887,188 L 886,189 L 886,190 L 885,191 L 885,192 L 884,193 L 884,195 L 883,196 L 883,197 L 881,199 L 881,200 L 880,201 L 880,202 L 878,204 L 878,205 L 876,207 L 876,208 L 873,211 L 873,212 L 862,223 L 861,223 L 857,227 L 856,227 L 854,229 L 853,229 L 852,230 L 851,230 L 849,232 L 848,232 L 847,233 L 846,233 L 845,234 L 844,234 L 843,235 L 841,235 L 840,236 L 839,236 L 838,237 L 836,237 L 835,238 L 832,238 L 831,239 L 829,239 L 828,240 L 824,240 L 823,241 L 814,241 L 813,242 L 804,242 L 803,241 L 795,241 L 794,240 L 790,240 L 789,239 L 786,239 L 785,238 L 783,238 L 782,237 L 780,237 L 779,236 L 777,236 L 776,235 L 775,235 L 774,234 L 772,234 L 770,232 L 769,232 L 768,231 L 767,231 L 766,230 L 765,230 L 763,228 L 762,228 L 760,226 L 759,226 L 755,222 L 754,222 L 746,214 L 746,213 L 742,209 L 742,208 L 740,206 L 740,205 L 738,203 L 738,202 L 736,200 L 736,199 L 735,198 L 735,197 L 734,196 L 734,195 L 733,194 L 733,193 L 732,192 L 732,191 L 731,190 L 731,188 L 730,187 L 730,185 L 729,184 L 729,182 L 728,181 L 728,178 L 727,177 L 727,174 L 726,173 L 726,168 L 725,167 L 725,141 L 726,140 L 726,136 L 727,135 L 727,131 L 728,130 L 728,128 L 729,127 L 729,125 L 730,124 L 730,122 L 731,121 L 731,119 L 732,118 L 732,117 L 733,116 L 733,115 L 734,114 L 734,113 L 735,112 L 735,111 L 736,110 L 736,109 L 737,108 L 737,107 L 739,105 L 739,104 L 741,102 L 741,101 L 744,98 L 744,97 L 756,85 L 757,85 L 760,82 L 761,82 L 763,80 L 764,80 L 766,78 L 767,78 L 768,77 L 769,77 L 770,76 L 771,76 L 772,75 L 773,75 L 774,74 L 775,74 L 776,73 L 778,73 L 779,72 L 780,72 L 781,71 L 784,71 L 785,70 L 787,70 L 788,69 L 792,69 L 793,68 Z" fill="black" fill-rule="evenodd" /></svg>