<?xml version="1.0" encoding="utf-8" ?>
<svg baseProfile="tiny" height="309" version="1.2" width="1932" xmlns="http://www.w3.org/2000/svg" xmlns:ev="http://www.w3.org/2001/xml-events" xmlns:xlink="http://www.w3.org/1999/xlink"><defs /><polygon fill="black" points="1751,55 1751,56 1750,57 1750,58 1749,59 1749,61 1748,62 1748,63 1747,64 1747,65 1746,66 1746,68 1745,69 1745,70 1744,71 1744,73 1743,74 1743,75 1742,76 1742,77 1741,78 1741,80 1740,81 1740,82 1739,83 1739,85 1738,86 1738,87 1737,88 1737,89 1736,90 1736,92 1735,93 1735,94 1734,95 1734,97 1733,98 1733,99 1732,100 1732,101 1731,102 1731,104 1730,105 1730,106 1729,107 1729,109 1728,110 1728,111 1727,112 1727,114 1726,115 1726,116 1725,117 1725,118 1724,119 1724,121 1723,122 1723,123 1722,124 1722,126 1721,127 1721,128 1720,129 1720,130 1719,131 1719,133 1718,134 1718,135 1717,136 1717,138 1716,139 1716,140 1715,141 1715,142 1714,143 1714,145 1713,146 1713,147 1712,148 1712,150 1711,151 1711,152 1710,153 1710,154 1709,155 1709,157 1708,158 1708,159 1707,160 1707,162 1706,163 1706,164 1705,165 1705,166 1704,167 1704,169 1703,170 1703,171 1702,172 1702,174 1701,175 1701,176 1700,177 1700,178 1699,179 1699,181 1698,182 1698,183 1697,184 1697,186 1696,187 1696,188 1695,189 1695,191 1694,192 1694,193 1693,194 1693,195 1692,196 1692,198 1691,199 1691,200 1690,201 1690,203 1689,204 1689,205 1688,206 1688,207 1687,208 1687,210 1686,211 1686,212 1685,213 1685,215 1684,216 1684,217 1683,218 1683,219 1682,220 1682,222 1681,223 1681,224 1680,225 1680,227 1679,228 1679,229 1678,230 1678,231 1677,232 1677,234 1676,235 1676,236 1675,237 1675,239 1674,240 1674,241 1673,242 1673,243 1672,244 1672,246 1671,247 1671,248 1670,249 1670,251 1669,252 1669,254 1685,254 1686,253 1686,252 1687,251 1687,249 1688,248 1688,247 1689,246 1689,244 1690,243 1690,242 1691,241 1691,239 1692,238 1692,237 1693,236 1693,235 1694,234 1694,232 1695,231 1695,230 1696,229 1696,227 1697,226 1697,225 1698,224 1698,222 1699,221 1699,220 1700,219 1700,218 1701,217 1701,215 1702,214 1702,213 1703,212 1703,210 1704,209 1704,208 1705,207 1705,205 1706,204 1706,203 1707,202 1707,201 1708,200 1708,198 1709,197 1709,196 1711,194 1807,194 1809,196 1809,198 1810,199 1810,200 1811,201 1811,202 1812,203 1812,205 1813,206 1813,207 1814,208 1814,210 1815,211 1815,212 1816,213 1816,215 1817,216 1817,217 1818,218 1818,219 1819,220 1819,222 1820,223 1820,224 1821,225 1821,227 1822,228 1822,229 1823,230 1823,232 1824,233 1824,234 1825,235 1825,236 1826,237 1826,239 1827,240 1827,241 1828,242 1828,244 1829,245 1829,246 1830,247 1830,249 1831,250 1831,251 1832,252 1832,253 1833,254 1850,254 1850,252 1849,251 1849,250 1848,249 1848,248 1847,247 1847,245 1846,244 1846,243 1845,242 1845,240 1844,239 1844,238 1843,237 1843,236 1842,235 1842,233 1841,232 1841,231 1840,230 1840,228 1839,227 1839,226 1838,225 1838,224 1837,223 1837,221 1836,220 1836,219 1835,218 1835,217 1834,216 1834,214 1833,213 1833,212 1832,211 1832,209 1831,208 1831,207 1830,206 1830,205 1829,204 1829,202 1828,201 1828,200 1827,199 1827,197 1826,196 1826,195 1825,194 1825,193 1824,192 1824,190 1823,189 1823,188 1822,187 1822,185 1821,184 1821,183 1820,182 1820,181 1819,180 1819,178 1818,177 1818,176 1817,175 1817,174 1816,173 1816,171 1815,170 1815,169 1814,168 1814,166 1813,165 1813,164 1812,163 1812,162 1811,161 1811,159 1810,158 1810,157 1809,156 1809,154 1808,153 1808,152 1807,151 1807,150 1806,149 1806,147 1805,146 1805,145 1804,144 1804,142 1803,141 1803,140 1802,139 1802,138 1801,137 1801,135 1800,134 1800,133 1799,132 1799,131 1798,130 1798,128 1797,127 1797,126 1796,125 1796,123 1795,122 1795,121 1794,120 1794,119 1793,118 1793,116 1792,115 1792,114 1791,113 1791,111 1790,110 1790,109 1789,108 1789,107 1788,106 1788,104 1787,103 1787,102 1786,101 1786,99 1785,98 1785,97 1784,96 1784,95 1783,94 1783,92 1782,91 1782,90 1781,89 1781,88 1780,87 1780,85 1779,84 1779,83 1778,82 1778,80 1777,79 1777,78 1776,77 1776,76 1775,75 1775,73 1774,72 1774,71 1773,70 1773,68 1772,67 1772,66 1771,65 1771,64 1770,63 1770,61 1769,60 1769,59 1768,58 1768,56 1767,55" /><polygon fill="white" points="1758,76 1759,75 1760,76 1760,77 1761,78 1761,79 1762,80 1762,82 1763,83 1763,84 1764,85 1764,87 1765,88 1765,89 1766,90 1766,92 1767,93 1767,94 1768,95 1768,97 1769,98 1769,99 1770,100 1770,102 1771,103 1771,104 1772,105 1772,107 1773,108 1773,109 1774,110 1774,112 1775,113 1775,114 1776,115 1776,117 1777,118 1777,119 1778,120 1778,122 1779,123 1779,124 1780,125 1780,127 1781,128 1781,129 1782,130 1782,131 1783,132 1783,134 1784,135 1784,136 1785,137 1785,139 1786,140 1786,141 1787,142 1787,144 1788,145 1788,146 1789,147 1789,149 1790,150 1790,151 1791,152 1791,154 1792,155 1792,156 1793,157 1793,158 1794,159 1794,161 1795,162 1795,163 1796,164 1796,166 1797,167 1797,168 1798,169 1798,171 1799,172 1799,173 1800,174 1800,176 1801,177 1801,178 1800,179 1718,179 1717,178 1717,176 1718,175 1718,174 1719,173 1719,171 1720,170 1720,169 1721,168 1721,166 1722,165 1722,164 1723,163 1723,162 1724,161 1724,159 1725,158 1725,157 1726,156 1726,154 1727,153 1727,152 1728,151 1728,149 1729,148 1729,147 1730,146 1730,145 1731,144 1731,142 1732,141 1732,140 1733,139 1733,137 1734,136 1734,135 1735,134 1735,132 1736,131 1736,130 1737,129 1737,128 1738,127 1738,125 1739,124 1739,123 1740,122 1740,120 1741,119 1741,118 1742,117 1742,115 1743,114 1743,113 1744,112 1744,110 1745,109 1745,108 1746,107 1746,106 1747,105 1747,103 1748,102 1748,101 1749,100 1749,98 1750,97 1750,96 1751,95 1751,93 1752,92 1752,91 1753,90 1753,88 1754,87 1754,86 1755,85 1755,83 1756,82 1756,81 1757,80 1757,78 1758,77" /><polygon fill="black" points="1479,55 1479,254 1495,254 1495,84 1496,83 1499,86 1499,87 1502,90 1502,91 1505,94 1505,95 1507,97 1507,98 1510,101 1510,102 1513,105 1513,106 1516,109 1516,110 1519,113 1519,114 1521,116 1521,117 1524,120 1524,121 1527,124 1527,125 1530,128 1530,129 1533,132 1533,133 1536,136 1536,137 1539,140 1539,141 1542,144 1542,145 1545,148 1545,149 1548,152 1548,153 1551,156 1551,157 1554,160 1554,161 1557,164 1557,165 1560,168 1560,169 1563,172 1563,173 1566,176 1566,177 1569,180 1569,181 1572,184 1572,185 1575,188 1575,189 1578,192 1578,193 1581,196 1581,197 1584,200 1584,201 1587,204 1587,205 1590,208 1590,209 1593,212 1593,213 1596,216 1596,217 1599,220 1599,221 1602,224 1602,225 1605,228 1605,229 1608,232 1608,233 1611,236 1611,237 1614,240 1614,241 1618,245 1618,246 1620,248 1620,249 1623,252 1623,253 1624,254 1640,254 1640,55 1624,55 1624,225 1623,226 1621,224 1621,223 1618,220 1618,219 1616,217 1616,216 1613,213 1613,212 1610,209 1610,208 1607,205 1607,204 1605,202 1605,201 1602,198 1602,197 1599,194 1599,193 1596,190 1596,189 1593,186 1593,185 1590,182 1590,181 1587,178 1587,177 1584,174 1584,173 1581,170 1581,169 1578,166 1578,165 1575,162 1575,161 1572,158 1572,157 1569,154 1569,153 1566,150 1566,149 1563,146 1563,145 1560,142 1560,141 1557,138 1557,137 1554,134 1554,133 1551,130 1551,129 1548,126 1548,125 1545,122 1545,121 1542,118 1542,117 1539,114 1539,113 1536,110 1536,109 1533,106 1533,105 1530,102 1530,101 1527,98 1527,97 1524,94 1524,93 1521,90 1521,89 1518,86 1518,85 1515,82 1515,81 1512,78 1512,77 1509,74 1509,73 1506,70 1506,69 1503,66 1503,65 1500,62 1500,61 1497,58 1497,57 1495,55" /><polygon fill="black" points="1303,55 1303,254 1319,254 1319,166 1320,165 1363,165 1364,166 1364,167 1366,169 1366,170 1369,173 1369,174 1372,177 1372,178 1374,180 1374,181 1377,184 1377,185 1380,188 1380,189 1382,191 1382,192 1385,195 1385,196 1388,199 1388,200 1390,202 1390,203 1393,206 1393,207 1396,210 1396,211 1398,213 1398,214 1401,217 1401,218 1404,221 1404,222 1407,225 1407,226 1409,228 1409,229 1412,232 1412,233 1415,236 1415,237 1417,239 1417,240 1420,243 1420,244 1423,247 1423,248 1425,250 1425,251 1428,254 1447,254 1447,253 1445,251 1445,250 1443,248 1443,247 1440,244 1440,243 1437,240 1437,239 1434,236 1434,235 1432,233 1432,232 1429,229 1429,228 1426,225 1426,224 1423,221 1423,220 1420,217 1420,216 1418,214 1418,213 1415,210 1415,209 1412,206 1412,205 1409,202 1409,201 1407,199 1407,198 1404,195 1404,194 1401,191 1401,190 1398,187 1398,186 1395,183 1395,182 1393,180 1393,179 1390,176 1390,175 1387,172 1387,171 1384,168 1384,167 1381,164 1382,163 1385,163 1386,162 1390,162 1391,161 1393,161 1394,160 1397,160 1398,159 1400,159 1401,158 1402,158 1403,157 1404,157 1405,156 1406,156 1407,155 1408,155 1409,154 1410,154 1412,152 1413,152 1416,149 1417,149 1423,143 1423,142 1426,139 1426,138 1427,137 1427,136 1428,135 1428,134 1429,133 1429,132 1430,131 1430,130 1431,129 1431,127 1432,126 1432,124 1433,123 1433,119 1434,118 1434,100 1433,99 1433,96 1432,95 1432,93 1431,92 1431,90 1430,89 1430,88 1429,87 1429,86 1428,85 1428,84 1427,83 1427,82 1425,80 1425,79 1414,68 1413,68 1411,66 1410,66 1409,65 1408,65 1406,63 1404,63 1403,62 1402,62 1401,61 1400,61 1399,60 1397,60 1396,59 1393,59 1392,58 1389,58 1388,57 1384,57 1383,56 1376,56 1375,55" /><polygon fill="white" points="1319,71 1320,70 1374,70 1375,71 1381,71 1382,72 1386,72 1387,73 1390,73 1391,74 1393,74 1394,75 1395,75 1396,76 1397,76 1398,77 1399,77 1401,79 1402,79 1405,82 1406,82 1409,85 1409,86 1412,89 1412,90 1414,92 1414,93 1415,94 1415,96 1416,97 1416,99 1417,100 1417,104 1418,105 1418,115 1417,116 1417,121 1416,122 1416,124 1415,125 1415,126 1414,127 1414,128 1413,129 1413,130 1411,132 1411,133 1403,141 1402,141 1400,143 1399,143 1398,144 1397,144 1396,145 1395,145 1394,146 1392,146 1391,147 1389,147 1388,148 1385,148 1384,149 1380,149 1379,150 1368,150 1367,151 1320,151 1319,150" /><polygon fill="black" points="1151,55 1151,254 1263,254 1263,239 1168,239 1167,238 1167,159 1168,158 1250,158 1250,143 1168,143 1167,142 1167,71 1168,70 1260,70 1261,69 1261,55" /><polygon fill="black" points="947,55 947,254 1009,254 1010,253 1020,253 1021,252 1027,252 1028,251 1032,251 1033,250 1037,250 1038,249 1041,249 1042,248 1044,248 1045,247 1048,247 1049,246 1050,246 1051,245 1053,245 1054,244 1055,244 1056,243 1058,243 1059,242 1060,242 1061,241 1062,241 1063,240 1064,240 1066,238 1067,238 1068,237 1069,237 1071,235 1072,235 1074,233 1075,233 1079,229 1080,229 1089,220 1089,219 1094,214 1094,213 1096,211 1096,210 1098,208 1098,207 1100,205 1100,204 1101,203 1101,202 1102,201 1102,200 1103,199 1103,198 1104,197 1104,196 1105,195 1105,193 1106,192 1106,191 1107,190 1107,188 1108,187 1108,185 1109,184 1109,182 1110,181 1110,178 1111,177 1111,173 1112,172 1112,167 1113,166 1113,142 1112,141 1112,135 1111,134 1111,131 1110,130 1110,127 1109,126 1109,123 1108,122 1108,120 1107,119 1107,118 1106,117 1106,115 1105,114 1105,113 1104,112 1104,111 1103,110 1103,109 1102,108 1102,107 1101,106 1101,105 1100,104 1100,103 1098,101 1098,100 1097,99 1097,98 1094,95 1094,94 1090,90 1090,89 1080,79 1079,79 1076,76 1075,76 1073,74 1072,74 1070,72 1069,72 1067,70 1066,70 1065,69 1064,69 1063,68 1062,68 1061,67 1060,67 1059,66 1058,66 1057,65 1056,65 1055,64 1053,64 1052,63 1050,63 1049,62 1048,62 1047,61 1044,61 1043,60 1041,60 1040,59 1036,59 1035,58 1032,58 1031,57 1026,57 1025,56 1018,56 1017,55" /><polygon fill="white" points="964,71 965,70 1014,70 1015,71 1023,71 1024,72 1029,72 1030,73 1033,73 1034,74 1037,74 1038,75 1040,75 1041,76 1043,76 1044,77 1046,77 1047,78 1048,78 1049,79 1050,79 1051,80 1052,80 1053,81 1054,81 1055,82 1056,82 1057,83 1058,83 1060,85 1061,85 1063,87 1064,87 1068,91 1069,91 1077,99 1077,100 1081,104 1081,105 1083,107 1083,108 1085,110 1085,111 1086,112 1086,113 1087,114 1087,115 1088,116 1088,117 1089,118 1089,119 1090,120 1090,121 1091,122 1091,124 1092,125 1092,126 1093,127 1093,130 1094,131 1094,134 1095,135 1095,139 1096,140 1096,147 1097,148 1097,161 1096,162 1096,169 1095,170 1095,174 1094,175 1094,178 1093,179 1093,181 1092,182 1092,184 1091,185 1091,187 1090,188 1090,189 1089,190 1089,191 1088,192 1088,193 1087,194 1087,195 1086,196 1086,197 1084,199 1084,200 1082,202 1082,203 1080,205 1080,206 1066,220 1065,220 1062,223 1061,223 1059,225 1058,225 1057,226 1056,226 1055,227 1054,227 1053,228 1052,228 1051,229 1050,229 1049,230 1048,230 1047,231 1046,231 1045,232 1043,232 1042,233 1040,233 1039,234 1036,234 1035,235 1032,235 1031,236 1027,236 1026,237 1021,237 1020,238 1010,238 1009,239 965,239 964,238" /><polygon fill="black" points="483,55 483,254 499,254 499,90 498,89 498,84 499,83 501,85 501,86 504,89 504,90 506,92 506,93 508,95 508,96 510,98 510,99 512,101 512,102 515,105 515,106 517,108 517,109 519,111 519,112 521,114 521,115 523,117 523,118 526,121 526,122 528,124 528,125 530,127 530,128 532,130 532,131 535,134 535,135 537,137 537,138 539,140 539,141 542,144 542,145 544,147 544,148 546,150 546,151 548,153 548,154 551,157 551,158 553,160 553,161 555,163 555,164 557,166 557,167 560,170 560,171 562,173 562,174 564,176 564,177 567,180 567,181 569,183 569,184 571,186 571,187 573,189 573,190 576,193 576,194 577,193 577,192 579,190 579,189 582,186 582,185 584,183 584,182 586,180 586,179 589,176 589,175 591,173 591,172 593,170 593,169 595,167 595,166 598,163 598,162 600,160 600,159 602,157 602,156 604,154 604,153 607,150 607,149 609,147 609,146 611,144 611,143 614,140 614,139 616,137 616,136 618,134 618,133 620,131 620,130 623,127 623,126 625,124 625,123 627,121 627,120 629,118 629,117 632,114 632,113 634,111 634,110 636,108 636,107 638,105 638,104 641,101 641,100 643,98 643,97 645,95 645,94 647,92 647,91 649,89 649,88 651,86 651,85 653,83 654,84 654,254 670,254 670,55 654,55 652,57 652,58 650,60 650,61 647,64 647,65 645,67 645,68 643,70 643,71 641,73 641,74 638,77 638,78 636,80 636,81 634,83 634,84 631,87 631,88 629,90 629,91 627,93 627,94 625,96 625,97 622,100 622,101 620,103 620,104 618,106 618,107 615,110 615,111 613,113 613,114 611,116 611,117 609,119 609,120 606,123 606,124 604,126 604,127 602,129 602,130 599,133 599,134 597,136 597,137 595,139 595,140 593,142 593,143 590,146 590,147 588,149 588,150 586,152 586,153 583,156 583,157 581,159 581,160 579,162 579,163 577,165 576,165 574,163 574,162 571,159 571,158 569,156 569,155 567,153 567,152 564,149 564,148 562,146 562,145 560,143 560,142 558,140 558,139 555,136 555,135 553,133 553,132 551,130 551,129 548,126 548,125 546,123 546,122 544,120 544,119 542,117 542,116 539,113 539,112 537,110 537,109 535,107 535,106 532,103 532,102 530,100 530,99 528,97 528,96 526,94 526,93 523,90 523,89 521,87 521,86 519,84 519,83 516,80 516,79 514,77 514,76 512,74 512,73 510,71 510,70 507,67 507,66 505,64 505,63 503,61 503,60 500,57 500,56 499,55" /><polygon fill="black" points="288,55 287,56 287,57 286,58 286,60 285,61 285,62 284,63 284,64 283,65 283,67 282,68 282,69 281,70 281,72 280,73 280,74 279,75 279,76 278,77 278,79 277,80 277,81 276,82 276,84 275,85 275,86 274,87 274,88 273,89 273,91 272,92 272,93 271,94 271,96 270,97 270,98 269,99 269,100 268,101 268,103 267,104 267,105 266,106 266,108 265,109 265,110 264,111 264,112 263,113 263,115 262,116 262,117 261,118 261,120 260,121 260,122 259,123 259,125 258,126 258,127 257,128 257,129 256,130 256,132 255,133 255,134 254,135 254,137 253,138 253,139 252,140 252,141 251,142 251,144 250,145 250,146 249,147 249,149 248,150 248,151 247,152 247,153 246,154 246,156 245,157 245,158 244,159 244,161 243,162 243,163 242,164 242,165 241,166 241,168 240,169 240,170 239,171 239,173 238,174 238,175 237,176 237,177 236,178 236,180 235,181 235,182 234,183 234,185 233,186 233,187 232,188 232,189 231,190 231,192 230,193 230,194 229,195 229,197 228,198 228,199 227,200 227,201 226,202 226,204 225,205 225,206 224,207 224,209 223,210 223,211 222,212 222,213 221,214 221,216 220,217 220,218 219,219 219,221 218,222 218,223 217,224 217,225 216,226 216,228 215,229 215,230 214,231 214,233 213,234 213,235 212,236 212,237 211,238 211,240 210,241 210,242 209,243 209,245 208,246 208,247 207,248 207,250 206,251 206,252 205,253 205,254 222,254 222,253 223,252 223,251 224,250 224,248 225,247 225,246 226,245 226,243 227,242 227,241 228,240 228,238 229,237 229,236 230,235 230,234 231,233 231,231 232,230 232,229 233,228 233,226 234,225 234,224 235,223 235,221 236,220 236,219 237,218 237,217 238,216 238,214 239,213 239,212 240,211 240,209 241,208 241,207 242,206 242,204 243,203 243,202 244,201 244,200 245,199 245,197 246,196 246,195 247,194 344,194 345,195 345,196 346,197 346,199 347,200 347,201 348,202 348,203 349,204 349,206 350,207 350,208 351,209 351,211 352,212 352,213 353,214 353,216 354,217 354,218 355,219 355,220 356,221 356,223 357,224 357,225 358,226 358,228 359,229 359,230 360,231 360,233 361,234 361,235 362,236 362,237 363,238 363,240 364,241 364,242 365,243 365,245 366,246 366,247 367,248 367,250 368,251 368,252 369,253 369,254 387,254 387,253 386,252 386,251 385,250 385,249 384,248 384,246 383,245 383,244 382,243 382,241 381,240 381,239 380,238 380,237 379,236 379,234 378,233 378,232 377,231 377,229 376,228 376,227 375,226 375,225 374,224 374,222 373,221 373,220 372,219 372,218 371,217 371,215 370,214 370,213 369,212 369,210 368,209 368,208 367,207 367,206 366,205 366,203 365,202 365,201 364,200 364,198 363,197 363,196 362,195 362,194 361,193 361,191 360,190 360,189 359,188 359,186 358,185 358,184 357,183 357,182 356,181 356,179 355,178 355,177 354,176 354,175 353,174 353,172 352,171 352,170 351,169 351,167 350,166 350,165 349,164 349,163 348,162 348,160 347,159 347,158 346,157 346,155 345,154 345,153 344,152 344,151 343,150 343,148 342,147 342,146 341,145 341,143 340,142 340,141 339,140 339,139 338,138 338,136 337,135 337,134 336,133 336,132 335,131 335,129 334,128 334,127 333,126 333,124 332,123 332,122 331,121 331,120 330,119 330,117 329,116 329,115 328,114 328,112 327,111 327,110 326,109 326,108 325,107 325,105 324,104 324,103 323,102 323,100 322,99 322,98 321,97 321,96 320,95 320,93 319,92 319,91 318,90 318,89 317,88 317,86 316,85 316,84 315,83 315,81 314,80 314,79 313,78 313,77 312,76 312,74 311,73 311,72 310,71 310,69 309,68 309,67 308,66 308,65 307,64 307,62 306,61 306,60 305,59 305,57 304,56 304,55" /><polygon fill="white" points="296,75 297,76 297,78 298,79 298,80 299,81 299,83 300,84 300,85 301,86 301,88 302,89 302,91 303,92 303,93 304,94 304,96 305,97 305,98 306,99 306,100 307,101 307,103 308,104 308,105 309,106 309,108 310,109 310,110 311,111 311,113 312,114 312,115 313,116 313,118 314,119 314,120 315,121 315,123 316,124 316,125 317,126 317,128 318,129 318,130 319,131 319,132 320,133 320,135 321,136 321,137 322,138 322,140 323,141 323,142 324,143 324,145 325,146 325,147 326,148 326,150 327,151 327,152 328,153 328,155 329,156 329,157 330,158 330,159 331,160 331,162 332,163 332,164 333,165 333,167 334,168 334,169 335,170 335,172 336,173 336,174 337,175 337,177 338,178 337,179 254,179 253,178 254,177 254,175 255,174 255,173 256,172 256,170 257,169 257,168 258,167 258,165 259,164 259,163 260,162 260,161 261,160 261,158 262,157 262,156 263,155 263,153 264,152 264,151 265,150 265,148 266,147 266,146 267,145 267,144 268,143 268,141 269,140 269,139 270,138 270,136 271,135 271,134 272,133 272,131 273,130 273,129 274,128 274,127 275,126 275,124 276,123 276,122 277,121 277,119 278,118 278,117 279,116 279,114 280,113 280,112 281,111 281,109 282,108 282,107 283,106 283,104 284,103 284,102 285,101 285,100 286,99 286,97 287,96 287,95 288,94 288,92 289,91 289,90 290,89 290,87 291,86 291,85 292,84 292,82 293,81 293,80 294,79 294,77" /><polygon fill="black" points="75,55 75,253 76,254 191,254 191,239 93,239 92,238 92,55" /><polygon fill="black" points="796,52 795,53 789,53 788,54 785,54 784,55 781,55 780,56 777,56 776,57 774,57 773,58 772,58 771,59 769,59 768,60 767,60 766,61 765,61 764,62 763,62 762,63 761,63 760,64 759,64 757,66 756,66 755,67 754,67 752,69 751,69 748,72 747,72 743,76 742,76 733,85 733,86 729,90 729,91 726,94 726,95 724,97 724,98 723,99 723,100 722,101 722,102 720,104 720,105 719,106 719,107 718,108 718,109 717,110 717,112 716,113 716,114 715,115 715,117 714,118 714,120 713,121 713,123 712,124 712,127 711,128 711,131 710,132 710,137 709,138 709,145 708,146 708,163 709,164 709,171 710,172 710,177 711,178 711,181 712,182 712,185 713,186 713,188 714,189 714,191 715,192 715,193 716,194 716,196 717,197 717,198 718,199 718,200 719,201 719,202 720,203 720,204 721,205 721,206 722,207 722,208 723,209 723,210 725,212 725,213 727,215 727,216 730,219 730,220 746,236 747,236 750,239 751,239 753,241 754,241 756,243 757,243 758,244 759,244 760,245 761,245 762,246 763,246 764,247 765,247 766,248 767,248 768,249 769,249 770,250 772,250 773,251 775,251 776,252 778,252 779,253 781,253 782,254 785,254 786,255 790,255 791,256 798,256 799,257 818,257 819,256 826,256 827,255 831,255 832,254 835,254 836,253 839,253 840,252 842,252 843,251 844,251 845,250 847,250 848,249 849,249 850,248 852,248 853,247 854,247 856,245 857,245 858,244 859,244 860,243 861,243 863,241 864,241 866,239 867,239 869,237 870,237 875,232 876,232 883,225 883,224 888,219 888,218 891,215 891,214 893,212 893,211 894,210 894,209 896,207 896,206 897,205 897,204 898,203 898,202 899,201 899,200 900,199 900,198 901,197 901,195 902,194 902,192 903,191 903,190 904,189 904,186 905,185 905,183 906,182 906,179 907,178 907,174 908,173 908,167 909,166 909,143 908,142 908,136 907,135 907,131 906,130 906,127 905,126 905,123 904,122 904,120 903,119 903,117 902,116 902,115 901,114 901,112 900,111 900,110 899,109 899,108 898,107 898,106 897,105 897,104 896,103 896,102 895,101 895,100 893,98 893,97 891,95 891,94 889,92 889,91 885,87 885,86 873,74 872,74 869,71 868,71 866,69 865,69 863,67 862,67 860,65 859,65 858,64 857,64 856,63 855,63 854,62 853,62 852,61 851,61 850,60 849,60 848,59 846,59 845,58 844,58 843,57 841,57 840,56 837,56 836,55 834,55 833,54 829,54 828,53 823,53 822,52" /><polygon fill="white" points="798,68 799,67 818,67 819,68 825,68 826,69 829,69 830,70 833,70 834,71 836,71 837,72 839,72 840,73 841,73 842,74 843,74 844,75 845,75 846,76 847,76 848,77 849,77 850,78 851,78 852,79 853,79 855,81 856,81 859,84 860,84 874,98 874,99 877,102 877,103 879,105 879,106 881,108 881,109 882,110 882,111 883,112 883,113 884,114 884,115 885,116 885,118 886,119 886,120 887,121 887,123 888,124 888,126 889,127 889,129 890,130 890,133 891,134 891,139 892,140 892,148 893,149 893,160 892,161 892,169 891,170 891,174 890,175 890,178 889,179 889,182 888,183 888,185 887,186 887,188 886,189 886,190 885,191 885,192 884,193 884,195 883,196 883,197 881,199 881,200 880,201 880,202 878,204 878,205 876,207 876,208 873,211 873,212 862,223 861,223 857,227 856,227 854,229 853,229 852,230 851,230 849,232 848,232 847,233 846,233 845,234 844,234 843,235 841,235 840,236 839,236 838,237 836,237 835,238 832,238 831,239 829,239 828,240 824,240 823,241 814,241 813,242 804,242 803,241 795,241 794,240 790,240 789,239 786,239 785,238 783,238 782,237 780,237 779,236 777,236 776,235 775,235 774,234 772,234 770,232 769,232 768,231 767,231 766,230 765,230 763,228 762,228 760,226 759,226 755,222 754,222 746,214 746,213 742,209 742,208 740,206 740,205 738,203 738,202 736,200 736,199 735,198 735,197 734,196 734,195 733,194 733,193 732,192 732,191 731,190 731,188 730,187 730,185 729,184 729,182 728,181 728,178 727,177 727,174 726,173 726,168 725,167 725,141 726,140 726,136 727,135 727,131 728,130 728,128 729,127 729,125 730,124 730,122 731,121 731,119 732,118 732,117 733,116 733,115 734,114 734,113 735,112 735,111 736,110 736,109 737,108 737,107 739,105 739,104 741,102 741,101 744,98 744,97 756,85 757,85 760,82 761,82 763,80 764,80 766,78 767,78 768,77 769,77 770,76 771,76 772,75 773,75 774,74 775,74 776,73 778,73 779,72 780,72 781,71 784,71 785,70 787,70 788,69 792,69 793,68" /></svg>