<?xml version="1.0" encoding="utf-8" ?>
<svg baseProfile="tiny" height="720" version="1.2" width="909" xmlns="http://www.w3.org/2000/svg" xmlns:ev="http://www.w3.org/2001/xml-events" xmlns:xlink="http://www.w3.org/1999/xlink"><defs /><polygon fill="black" points="308.0,602.998 307.0,602.998 306.0,602.998 305.0,602.998 304.0,602.998 303.0,602.998 302.0,602.998 301.0,602.998 300.0,602.998 299.0,602.998 298.0,602.998 297.0,602.998 296.0,602.998 295.0,602.998 294.0,602.998 293.0,602.998 292.0,602.998 291.0,602.998 290.0,602.998 289.0,602.998 288.0,602.998 287.0,602.998 286.0,602.998 285.0,602.998 284.0,602.998 283.0,602.998 282.0,602.998 281.0,602.998 280.0,602.998 279.0,602.998 278.0,602.998 277.0,602.998 276.0,602.998 275.0,602.998 274.0,602.998 273.0,602.998 272.0,602.998 271.0,602.998 270.0,602.998 269.0,602.998 268.0,602.998 267.0,602.998 266.0,602.998 265.0,602.998 264.0,602.998 263.0,602.998 262.0,602.998 261.0,602.998 260.0,602.998 259.0,602.998 258.0,602.998 257.0,602.998 256.0,602.998 255.0,602.998 254.0,602.998 253.0,602.998 252.0,602.998 251.0,602.998 250.0,602.998 249.0,602.998 248.0,602.998 247.0,602.998 246.0,602.998 245.0,602.998 244.0,602.998 243.0,602.998 242.0,602.998 241.0,602.998 240.0,602.998 239.0,602.998 238.0,602.998 237.0,602.998 236.0,602.998 235.0,602.998 234.0,602.998 233.0,602.998 232.0,602.998 231.0,602.998 230.0,602.998 229.0,602.998 228.0,602.998 227.0,602.998 226.0,602.998 225.0,602.998 224.0,602.998 223.0,602.998 222.0,602.998 221.0,602.998 220.0,602.998 219.0,602.998 218.0,602.998 217.0,602.998 216.0,602.998 215.0,602.998 214.0,602.998 213.0,602.998 212.0,602.998 211.0,602.998 210.0,602.998 209.0,602.998 208.0,602.998 207.0,602.998 206.0,602.998 205.0,602.998 204.0,602.998 203.0,602.998 202.0,602.998 201.0,602.998 200.0,602.998 199.0,602.998 198.0,602.998 197.0,602.998 196.0,602.998 195.0,602.998 194.0,602.998 193.0,602.998 192.0,602.998 191.0,602.998 190.0,602.998 189.0,602.998 188.0,602.998 187.0,602.998 186.0,602.998 185.0,602.998 184.0,602.998 183.0,602.998 182.0,602.998 181.0,602.998 180.0,602.998 179.0,602.998 178.0,602.998 177.0,602.998 176.0,602.998 175.0,602.998 174.0,602.998 173.0,602.998 172.0,602.998 171.0,602.998 170.0,602.998 169.0,602.998 168.0,602.998 167.0,602.998 166.0,602.998 165.0,602.998 164.0,602.998 163.0,602.998 162.0,602.998 161.0,602.998 160.0,602.998 159.0,602.998 158.0,602.998 157.0,602.998 156.0,602.998 155.0,602.998 154.0,602.998 153.0,602.998 152.0,602.998 151.0,602.998 150.0,602.998 149.0,602.998 148.0,602.998 147.0,602.998 146.0,602.998 145.0,602.998 144.0,602.998 143.0,602.998 142.0,602.998 141.0,602.998 140.0,602.998 139.0,602.998 138.0,602.998 137.0,602.998 136.0,602.998 135.0,602.998 134.0,602.998 133.0,602.998 132.0,602.998 131.0,602.998 130.0,602.998 129.0,602.998 128.0,602.998 127.0,602.998 126.0,602.998 125.0,602.998 124.0,602.998 123.0,602.998 122.0,602.998 121.0,602.998 120.0,602.998 119.0,602.998 118.0,602.998 117.0,602.998 116.0,602.998 115.0,602.998 114.0,602.998 113.0,602.998 112.0,602.998 111.0,602.998 110.0,602.998 109.0,602.998 108.0,602.998 107.0,602.998 106.0,602.998 105.0,602.998 104.0,602.998 103.0,602.998 102.0,602.998 101.0,602.998 100.0,602.998 99.0,602.998 98.0,602.998 97.0,602.998 96.0,602.998 95.0,602.998 94.0,602.998 93.0,602.998 92.0,602.998 91.0,602.998 90.0,602.998 89.0,602.998 88.0,602.998 87.0,602.998 86.0,602.998 85.0,602.998 84.0,602.998 83.0,602.998 82.0,602.998 81.0,602.998 80.0,602.998 79.0,602.998 78.0,602.998 77.0,602.998 76.0,602.998 75.0,602.998 74.0,602.998 73.0,602.998 72.0,602.998 71.0,602.998 70.0,602.998 69.0,602.998 68.0,602.998 67.0,602.998 66.0,602.998 65.0,602.998 64.0,602.998 63.0,602.998 62.0,602.998 61.0,602.998 60.0,602.998 59.0,602.998 58.0,602.998 57.0,602.998 56.0,602.998 55.0,602.998 54.0,602.998 53.0,602.998 52.0,602.998 51.0,602.998 50.0,602.998 49.0,602.998 48.0,602.998 47.0,602.998 46.0,602.998 45.0,602.998 44.0,602.998 43.0,602.998 42.0,602.998 41.0,602.998 40.0,602.998 39.0,602.998 38.002,602.0 38.002,601.0 38.002,600.0 38.002,599.0 38.002,598.0 38.002,597.0 38.002,596.0 38.002,595.0 38.002,594.0 38.002,593.0 38.002,592.0 38.002,591.0 38.002,590.0 38.002,589.0 38.002,588.0 38.002,587.0 38.002,586.0 38.002,585.0 38.002,584.0 38.002,583.0 38.002,582.0 38.002,581.0 38.002,580.0 38.002,579.0 38.002,578.0 38.002,577.0 38.002,576.0 38.002,575.0 38.002,574.0 38.002,573.0 38.002,572.0 38.002,571.0 38.002,570.0 38.002,569.0 38.002,568.0 38.002,567.0 38.002,566.0 38.002,565.0 38.002,564.0 38.002,563.0 38.002,562.0 38.002,561.0 38.002,560.0 38.002,559.0 38.002,558.0 38.002,557.0 38.002,556.0 38.002,555.0 38.002,554.0 38.002,553.0 38.002,552.0 38.002,551.0 38.002,550.0 38.002,549.0 38.002,548.0 38.002,547.0 38.002,546.0 38.002,545.0 38.002,544.0 38.002,543.0 38.002,542.0 38.002,541.0 38.002,540.0 38.002,539.0 38.002,538.0 38.002,537.0 38.002,536.0 38.002,535.0 38.002,534.0 38.002,533.0 38.002,532.0 38.002,531.0 38.002,530.0 38.002,529.0 38.002,528.0 38.002,527.0 38.002,526.0 38.002,525.0 38.002,524.0 38.002,523.0 38.002,522.0 38.002,521.0 38.002,520.0 38.002,519.0 38.002,518.0 38.002,517.0 38.002,516.0 38.002,515.0 38.002,514.0 38.002,513.0 38.002,512.0 38.002,511.0 38.002,510.0 38.002,509.0 38.002,508.0 38.002,507.0 38.002,506.0 38.002,505.0 38.002,504.0 38.002,503.0 38.002,502.0 38.002,501.0 38.002,500.0 38.002,499.0 38.002,498.0 38.002,497.0 38.002,496.0 38.002,495.0 38.002,494.0 38.002,493.0 38.002,492.0 38.002,491.0 38.002,490.0 38.002,489.0 38.002,488.0 38.002,487.0 38.002,486.0 38.002,485.0 38.002,484.0 38.002,483.0 38.002,482.0 38.002,481.0 38.002,480.0 38.002,479.0 38.002,478.0 38.002,477.0 38.002,476.0 38.002,475.0 38.002,474.0 38.002,473.0 38.002,472.0 38.002,471.0 38.002,470.0 38.002,469.0 38.002,468.0 38.002,467.0 38.002,466.0 38.002,465.0 38.002,464.0 38.002,463.0 38.002,462.0 38.002,461.0 38.002,460.0 38.002,459.0 38.002,458.0 38.002,457.0 38.002,456.0 38.002,455.0 38.002,454.0 38.002,453.0 38.002,452.0 38.002,451.0 38.002,450.0 38.002,449.0 38.002,448.0 38.002,447.0 38.002,446.0 38.002,445.0 38.002,444.0 38.002,443.0 38.002,442.0 38.002,441.0 38.002,440.0 38.002,439.0 38.002,438.0 38.002,437.0 38.002,436.0 38.002,435.0 38.002,434.0 38.002,433.0 38.002,432.0 38.002,431.0 38.002,430.0 38.002,429.0 38.002,428.0 38.002,427.0 38.002,426.0 38.002,425.0 38.002,424.0 38.002,423.0 38.002,422.0 38.002,421.0 38.002,420.0 38.002,419.0 38.002,418.0 38.002,417.0 38.002,416.0 38.002,415.0 38.002,414.0 38.002,413.0 38.002,412.0 38.002,411.0 38.002,410.0 38.002,409.0 38.002,408.0 38.002,407.0 38.002,406.0 38.002,405.0 38.002,404.0 38.002,403.0 38.002,402.0 38.002,401.0 38.002,400.0 38.002,399.0 38.002,398.0 38.002,397.0 38.002,396.0 38.002,395.0 38.002,394.0 38.002,393.0 38.002,392.0 38.002,391.0 38.002,390.0 38.002,389.0 38.002,388.0 38.002,387.0 38.002,386.0 38.002,385.0 38.002,384.0 38.002,383.0 38.002,382.0 38.002,381.0 38.002,380.0 38.002,379.0 38.002,378.0 38.002,377.0 38.002,376.0 38.002,375.0 38.002,374.0 38.002,373.0 38.002,372.0 38.002,371.0 38.002,370.0 38.002,369.0 38.002,368.0 38.002,367.0 38.002,366.0 38.002,365.0 38.002,364.0 38.002,363.0 38.002,362.0 38.002,361.0 38.002,360.0 38.002,359.0 38.002,358.0 38.002,357.0 38.002,356.0 38.002,355.0 38.002,354.0 38.002,353.0 38.002,352.0 38.002,351.0 38.002,350.0 38.002,349.0 38.002,348.0 38.002,347.0 38.002,346.0 38.002,345.0 38.002,344.0 38.002,343.0 38.002,342.0 38.002,341.0 38.002,340.0 38.002,339.0 38.002,338.0 38.002,337.0 38.002,336.0 38.002,335.0 38.002,334.0 38.002,333.0 38.002,332.0 38.002,331.0 38.002,330.0 38.002,329.0 38.002,328.0 38.002,327.0 38.002,326.0 38.002,325.0 38.002,324.0 38.002,323.0 38.002,322.0 38.002,321.0 38.002,320.0 38.002,319.0 38.002,318.0 38.002,317.0 38.002,316.0 38.002,315.0 38.002,314.0 38.002,313.0 38.002,312.0 38.002,311.0 38.002,310.0 38.002,309.0 38.002,308.0 38.002,307.0 38.002,306.0 38.002,305.0 38.002,304.0 38.002,303.0 38.002,302.0 38.002,301.0 38.002,300.0 38.002,299.0 38.002,298.0 38.002,297.0 38.002,296.0 38.002,295.0 38.002,294.0 38.002,293.0 38.002,292.0 38.002,291.0 38.002,290.0 38.002,289.0 38.002,288.0 38.002,287.0 38.002,286.0 38.002,285.0 38.002,284.0 38.002,283.0 38.002,282.0 38.002,281.0 38.002,280.0 38.002,279.0 38.002,278.0 38.002,277.0 38.002,276.0 38.002,275.0 38.002,274.0 38.002,273.0 38.002,272.0 38.002,271.0 38.002,270.0 38.002,269.0 38.002,268.0 38.002,267.0 38.002,266.0 38.002,265.0 38.002,264.0 38.002,263.0 38.002,262.0 38.002,261.0 38.002,260.0 38.002,259.0 38.002,258.0 38.002,257.0 38.002,256.0 38.002,255.0 38.002,254.0 38.002,253.0 38.002,252.0 38.002,251.0 38.002,250.0 38.002,249.0 38.002,248.0 38.002,247.0 38.002,246.0 38.002,245.0 38.002,244.0 38.002,243.0 38.002,242.0 38.002,241.0 38.002,240.0 38.002,239.0 38.002,238.0 38.002,237.0 38.002,236.0 38.002,235.0 38.002,234.0 38.002,233.0 38.002,232.0 38.002,231.0 38.002,230.0 38.002,229.0 38.002,228.0 38.002,227.0 38.002,226.0 38.002,225.0 38.002,224.0 38.002,223.0 38.002,222.0 38.002,221.0 38.002,220.0 38.002,219.0 38.002,218.0 38.002,217.0 38.002,216.0 38.002,215.0 38.002,214.0 38.002,213.0 38.002,212.0 38.002,211.0 38.002,210.0 38.002,209.0 38.002,208.0 38.002,207.0 38.002,206.0 38.002,205.0 38.002,204.0 38.002,203.0 38.002,202.0 38.002,201.0 38.002,200.0 38.002,199.0 38.002,198.0 38.002,197.0 38.002,196.0 38.002,195.0 38.002,194.0 38.002,193.0 38.002,192.0 38.002,191.0 38.002,190.0 38.002,189.0 38.002,188.0 38.002,187.0 38.002,186.0 38.002,185.0 38.002,184.0 38.002,183.0 38.002,182.0 38.002,181.0 38.002,180.0 38.002,179.0 38.002,178.0 38.002,177.0 38.002,176.0 38.002,175.0 38.002,174.0 38.002,173.0 38.002,172.0 38.002,171.0 38.002,170.0 38.002,169.0 38.002,168.0 38.002,167.0 38.002,166.0 38.002,165.0 38.002,164.0 38.002,163.0 38.002,162.0 38.002,161.0 38.002,160.0 38.002,159.0 38.002,158.0 38.002,157.0 38.002,156.0 38.002,155.0 38.002,154.0 38.002,153.0 38.002,152.0 38.002,151.0 38.002,150.0 38.002,149.0 38.002,148.0 38.002,147.0 38.002,146.0 38.002,145.0 38.002,144.0 38.002,143.0 38.002,142.0 38.002,141.0 38.002,140.0 38.002,139.0 38.002,138.0 38.002,137.0 38.002,136.0 38.002,135.0 38.002,134.0 38.002,133.0 38.002,132.0 38.002,131.0 38.002,130.0 38.002,129.0 38.002,128.0 38.002,127.0 38.002,126.0 38.002,125.0 38.002,124.0 38.002,123.0 38.002,122.0 38.002,121.0 38.002,120.0 38.002,119.0 38.002,118.0 38.002,117.0 39.0,116.002 39.002,116.0 40.0,115.002 41.0,115.002 42.0,115.002 43.0,115.002 44.0,115.002 45.0,115.002 46.0,115.002 47.0,115.002 48.0,115.002 49.0,115.002 50.0,115.002 51.0,115.002 52.0,115.002 53.0,115.002 54.0,115.002 54.998,116.0 54.998,117.0 54.998,118.0 54.998,119.0 54.998,120.0 54.998,121.0 54.998,122.0 54.998,123.0 54.998,124.0 54.998,125.0 54.998,126.0 54.998,127.0 54.998,128.0 54.998,129.0 54.998,130.0 54.998,131.0 54.998,132.0 54.998,133.0 54.998,134.0 54.998,135.0 54.998,136.0 54.998,137.0 54.998,138.0 54.998,139.0 54.998,140.0 54.998,141.0 54.998,142.0 54.998,143.0 54.998,144.0 54.998,145.0 54.998,146.0 54.998,147.0 54.998,148.0 54.998,149.0 54.998,150.0 54.998,151.0 54.998,152.0 54.998,153.0 54.998,154.0 54.998,155.0 54.998,156.0 54.998,157.0 54.998,158.0 54.998,159.0 54.998,160.0 54.998,161.0 54.998,162.0 54.998,163.0 54.998,164.0 54.998,165.0 54.998,166.0 54.998,167.0 54.998,168.0 54.998,169.0 54.998,170.0 54.998,171.0 54.998,172.0 54.998,173.0 54.998,174.0 54.998,175.0 54.998,176.0 54.998,177.0 54.998,178.0 54.998,179.0 54.998,180.0 54.998,181.0 54.998,182.0 54.998,183.0 54.998,184.0 54.998,185.0 54.998,186.0 54.998,187.0 54.998,188.0 54.998,189.0 54.998,190.0 54.998,191.0 54.998,192.0 54.998,193.0 54.998,194.0 54.998,195.0 54.998,196.0 54.998,197.0 54.998,198.0 54.998,199.0 54.998,200.0 54.998,201.0 54.998,202.0 54.998,203.0 54.998,204.0 54.998,205.0 54.998,206.0 54.998,207.0 54.998,208.0 54.998,209.0 54.998,210.0 54.998,211.0 54.998,212.0 54.998,213.0 54.998,214.0 54.998,215.0 54.998,216.0 54.998,217.0 54.998,218.0 54.998,219.0 54.998,220.0 54.998,221.0 54.998,222.0 54.998,223.0 54.998,224.0 54.998,225.0 54.998,226.0 54.998,227.0 54.998,228.0 54.998,229.0 54.998,230.0 54.998,231.0 54.998,232.0 54.998,233.0 54.998,234.0 54.998,235.0 54.998,236.0 54.998,237.0 54.998,238.0 54.998,239.0 54.998,240.0 54.998,241.0 54.998,242.0 54.998,243.0 54.998,244.0 54.998,245.0 54.998,246.0 54.998,247.0 54.998,248.0 54.998,249.0 54.998,250.0 54.998,251.0 54.998,252.0 54.998,253.0 54.998,254.0 54.998,255.0 54.998,256.0 54.998,257.0 54.998,258.0 54.998,259.0 54.998,260.0 54.998,261.0 54.998,262.0 54.998,263.0 54.998,264.0 54.998,265.0 54.998,266.0 54.998,267.0 54.998,268.0 54.998,269.0 54.998,270.0 54.998,271.0 54.998,272.0 54.998,273.0 54.998,274.0 54.998,275.0 54.998,276.0 54.998,277.0 54.998,278.0 54.998,279.0 54.998,280.0 54.998,281.0 54.998,282.0 54.998,283.0 54.998,284.0 54.998,285.0 54.998,286.0 54.998,287.0 54.998,288.0 54.998,289.0 54.998,290.0 54.998,291.0 54.998,292.0 54.998,293.0 54.998,294.0 54.998,295.0 54.998,296.0 54.998,297.0 54.998,298.0 54.998,299.0 54.998,300.0 54.998,301.0 54.998,302.0 54.998,303.0 54.998,304.0 54.998,305.0 54.998,306.0 54.998,307.0 54.998,308.0 54.998,309.0 54.998,310.0 54.998,311.0 54.998,312.0 54.998,313.0 54.998,314.0 54.998,315.0 54.998,316.0 54.998,317.0 54.998,318.0 54.998,319.0 54.998,320.0 54.998,321.0 54.998,322.0 54.998,323.0 54.998,324.0 54.998,325.0 54.998,326.0 54.998,327.0 54.998,328.0 54.998,329.0 54.998,330.0 54.998,331.0 54.998,332.0 54.998,333.0 54.998,334.0 54.998,335.0 54.998,336.0 54.998,337.0 54.998,338.0 54.998,339.0 54.998,340.0 54.998,341.0 54.998,342.0 54.998,343.0 54.998,344.0 54.998,345.0 54.998,346.0 54.998,347.0 54.998,348.0 54.998,349.0 54.998,350.0 54.998,351.0 54.998,352.0 54.998,353.0 54.998,354.0 54.998,355.0 54.998,356.0 54.998,357.0 54.998,358.0 54.998,359.0 54.998,360.0 54.998,361.0 54.998,362.0 54.998,363.0 54.998,364.0 54.998,365.0 54.998,366.0 54.998,367.0 54.998,368.0 54.998,369.0 54.998,370.0 54.998,371.0 54.998,372.0 54.998,373.0 54.998,374.0 54.998,375.0 54.998,376.0 54.998,377.0 54.998,378.0 54.998,379.0 54.998,380.0 54.998,381.0 54.998,382.0 54.998,383.0 54.998,384.0 54.998,385.0 54.998,386.0 54.998,387.0 54.998,388.0 54.998,389.0 54.998,390.0 54.998,391.0 54.998,392.0 54.998,393.0 54.998,394.0 54.998,395.0 54.998,396.0 54.998,397.0 54.998,398.0 54.998,399.0 54.998,400.0 54.998,401.0 54.998,402.0 54.998,403.0 54.998,404.0 54.998,405.0 54.998,406.0 54.998,407.0 54.998,408.0 54.998,409.0 54.998,410.0 54.998,411.0 54.998,412.0 54.998,413.0 54.998,414.0 54.998,415.0 54.998,416.0 54.998,417.0 54.998,418.0 54.998,419.0 54.998,420.0 54.998,421.0 54.998,422.0 54.998,423.0 54.998,424.0 54.998,425.0 54.998,426.0 54.998,427.0 54.998,428.0 54.998,429.0 54.998,430.0 54.998,431.0 54.998,432.0 54.998,433.0 54.998,434.0 54.998,435.0 54.998,436.0 54.998,437.0 54.998,438.0 54.998,439.0 54.998,440.0 54.998,441.0 54.998,442.0 54.998,443.0 54.998,444.0 54.998,445.0 54.998,446.0 54.998,447.0 54.998,448.0 54.998,449.0 54.998,450.0 54.998,451.0 54.998,452.0 54.998,453.0 54.998,454.0 54.998,455.0 54.998,456.0 54.998,457.0 54.998,458.0 54.998,459.0 54.998,460.0 54.998,461.0 54.998,462.0 54.998,463.0 54.998,464.0 54.998,465.0 54.998,466.0 54.998,467.0 54.998,468.0 54.998,469.0 54.998,470.0 54.998,471.0 54.998,472.0 54.998,473.0 54.998,474.0 54.998,475.0 54.998,476.0 54.998,477.0 54.998,478.0 54.998,479.0 54.998,480.0 54.998,481.0 54.998,482.0 54.998,483.0 54.998,484.0 54.998,485.0 54.998,486.0 54.998,487.0 54.998,488.0 54.998,489.0 54.998,490.0 54.998,491.0 54.998,492.0 54.998,493.0 54.998,494.0 54.998,495.0 54.998,496.0 54.998,497.0 54.998,498.0 54.998,499.0 54.998,500.0 54.998,501.0 54.998,502.0 54.998,503.0 54.998,504.0 54.998,505.0 54.998,506.0 54.998,507.0 54.998,508.0 54.998,509.0 54.998,510.0 54.998,511.0 54.998,512.0 54.998,513.0 54.998,514.0 54.998,515.0 54.998,516.0 54.998,517.0 54.998,518.0 54.998,519.0 54.998,520.0 54.998,521.0 54.998,522.0 54.998,523.0 54.998,524.0 54.998,525.0 54.998,526.0 54.998,527.0 54.998,528.0 54.998,529.0 54.998,530.0 54.998,531.0 54.998,532.0 54.998,533.0 54.998,534.0 54.998,535.0 54.998,536.0 54.998,537.0 54.998,538.0 54.998,539.0 54.998,540.0 54.998,541.0 54.998,542.0 54.998,543.0 54.998,544.0 54.998,545.0 54.998,546.0 54.998,547.0 54.998,548.0 54.998,549.0 54.998,550.0 54.998,551.0 54.998,552.0 54.998,553.0 54.998,554.0 54.998,555.0 54.998,556.0 54.998,557.0 54.998,558.0 54.998,559.0 54.998,560.0 54.998,561.0 54.998,562.0 54.998,563.0 54.998,564.0 54.998,565.0 54.998,566.0 54.998,567.0 54.998,568.0 54.998,569.0 54.998,570.0 54.998,571.0 54.998,572.0 54.998,573.0 54.998,574.0 54.998,575.0 54.998,576.0 54.998,577.0 54.998,578.0 54.998,579.0 54.998,580.0 54.998,581.0 54.998,582.0 54.998,583.0 54.998,584.0 54.998,585.0 54.998,586.0 54.998,587.0 55.0,587.002 56.0,587.002 57.0,587.002 58.0,587.002 59.0,587.002 60.0,587.002 61.0,587.002 62.0,587.002 63.0,587.002 64.0,587.002 65.0,587.002 66.0,587.002 67.0,587.002 68.0,587.002 69.0,587.002 70.0,587.002 71.0,587.002 72.0,587.002 73.0,587.002 74.0,587.002 75.0,587.002 76.0,587.002 77.0,587.002 78.0,587.002 79.0,587.002 80.0,587.002 81.0,587.002 82.0,587.002 83.0,587.002 84.0,587.002 85.0,587.002 86.0,587.002 87.0,587.002 88.0,587.002 89.0,587.002 90.0,587.002 91.0,587.002 92.0,587.002 93.0,587.002 94.0,587.002 95.0,587.002 96.0,587.002 97.0,587.002 98.0,587.002 99.0,587.002 100.0,587.002 101.0,587.002 102.0,587.002 103.0,587.002 104.0,587.002 105.0,587.002 106.0,587.002 107.0,587.002 108.0,587.002 109.0,587.002 110.0,587.002 111.0,587.002 112.0,587.002 113.0,587.002 114.0,587.002 115.0,587.002 116.0,587.002 117.0,587.002 118.0,587.002 119.0,587.002 120.0,587.002 121.0,587.002 122.0,587.002 123.0,587.002 124.0,587.002 125.0,587.002 126.0,587.002 127.0,587.002 128.0,587.002 129.0,587.002 130.0,587.002 131.0,587.002 132.0,587.002 133.0,587.002 134.0,587.002 135.0,587.002 136.0,587.002 137.0,587.002 138.0,587.002 139.0,587.002 140.0,587.002 141.0,587.002 142.0,587.002 143.0,587.002 144.0,587.002 145.0,587.002 146.0,587.002 147.0,587.002 148.0,587.002 149.0,587.002 150.0,587.002 151.0,587.002 152.0,587.002 153.0,587.002 154.0,587.002 155.0,587.002 156.0,587.002 157.0,587.002 158.0,587.002 159.0,587.002 160.0,587.002 161.0,587.002 162.0,587.002 163.0,587.002 164.0,587.002 165.0,587.002 166.0,587.002 167.0,587.002 168.0,587.002 169.0,587.002 170.0,587.002 171.0,587.002 172.0,587.002 173.0,587.002 174.0,587.002 175.0,587.002 176.0,587.002 177.0,587.002 178.0,587.002 179.0,587.002 180.0,587.002 181.0,587.002 182.0,587.002 183.0,587.002 184.0,587.002 185.0,587.002 186.0,587.002 187.0,587.002 188.0,587.002 189.0,587.002 190.0,587.002 191.0,587.002 192.0,587.002 193.0,587.002 194.0,587.002 195.0,587.002 196.0,587.002 197.0,587.002 198.0,587.002 199.0,587.002 200.0,587.002 201.0,587.002 202.0,587.002 203.0,587.002 204.0,587.002 205.0,587.002 206.0,587.002 207.0,587.002 208.0,587.002 209.0,587.002 210.0,587.002 211.0,587.002 212.0,587.002 213.0,587.002 214.0,587.002 215.0,587.002 216.0,587.002 217.0,587.002 218.0,587.002 219.0,587.002 220.0,587.002 221.0,587.002 222.0,587.002 223.0,587.002 224.0,587.002 225.0,587.002 226.0,587.002 227.0,587.002 228.0,587.002 229.0,587.002 230.0,587.002 231.0,587.002 232.0,587.002 233.0,587.002 234.0,587.002 235.0,587.002 236.0,587.002 237.0,587.002 238.0,587.002 239.0,587.002 240.0,587.002 241.0,587.002 242.0,587.002 243.0,587.002 244.0,587.002 245.0,587.002 246.0,587.002 247.0,587.002 248.0,587.002 249.0,587.002 250.0,587.002 251.0,587.002 252.0,587.002 253.0,587.002 254.0,587.002 255.0,587.002 256.0,587.002 257.0,587.002 258.0,587.002 259.0,587.002 260.0,587.002 261.0,587.002 262.0,587.002 263.0,587.002 264.0,587.002 265.0,587.002 266.0,587.002 267.0,587.002 268.0,587.002 269.0,587.002 270.0,587.002 271.0,587.002 272.0,587.002 273.0,587.002 274.0,587.002 275.0,587.002 276.0,587.002 277.0,587.002 278.0,587.002 279.0,587.002 280.0,587.002 281.0,587.002 282.0,587.002 283.0,587.002 284.0,587.002 285.0,587.002 286.0,587.002 287.0,587.002 288.0,587.002 289.0,587.002 290.0,587.002 291.0,587.002 292.0,587.002 293.0,587.002 294.0,587.002 295.0,587.002 296.0,587.002 297.0,587.002 298.0,587.002 299.0,587.002 300.0,587.002 301.0,587.002 302.0,587.002 303.0,587.002 304.0,587.002 305.0,587.002 306.0,587.002 307.0,587.002 308.0,587.002 308.998,588.0 308.998,589.0 308.998,590.0 308.998,591.0 308.998,592.0 308.998,593.0 308.998,594.0 308.998,595.0 308.998,596.0 308.998,597.0 308.998,598.0 308.998,599.0 308.998,600.0 308.998,601.0 308.998,602.0 308.0,602.998" /><polygon fill="black" points="868.0,602.998 867.0,602.998 866.0,602.998 865.0,602.998 864.0,602.998 863.0,602.998 862.0,602.998 861.0,602.998 860.0,602.998 859.0,602.998 858.0,602.998 857.0,602.998 856.0,602.998 855.0,602.998 854.0,602.998 853.0,602.998 852.002,602.0 852.002,601.0 852.002,600.0 852.002,599.0 852.002,598.0 852.002,597.0 852.002,596.0 852.002,595.0 852.002,594.0 852.002,593.0 852.002,592.0 852.002,591.0 852.002,590.0 852.002,589.0 852.002,588.0 852.002,587.0 852.002,586.0 852.002,585.0 852.002,584.0 852.002,583.0 852.002,582.0 852.002,581.0 852.002,580.0 852.002,579.0 852.002,578.0 852.002,577.0 852.002,576.0 852.002,575.0 852.002,574.0 852.002,573.0 852.002,572.0 852.002,571.0 852.002,570.0 852.002,569.0 852.002,568.0 852.002,567.0 852.002,566.0 852.002,565.0 852.002,564.0 852.002,563.0 852.002,562.0 852.002,561.0 852.002,560.0 852.002,559.0 852.002,558.0 852.002,557.0 852.002,556.0 852.002,555.0 852.002,554.0 852.002,553.0 852.002,552.0 852.002,551.0 852.002,550.0 852.002,549.0 852.002,548.0 852.002,547.0 852.002,546.0 852.002,545.0 852.002,544.0 852.002,543.0 852.002,542.0 852.002,541.0 852.002,540.0 852.002,539.0 852.002,538.0 852.002,537.0 852.002,536.0 852.002,535.0 852.002,534.0 852.002,533.0 852.002,532.0 852.002,531.0 852.002,530.0 852.002,529.0 852.002,528.0 852.002,527.0 852.002,526.0 852.002,525.0 852.002,524.0 852.002,523.0 852.002,522.0 852.002,521.0 852.002,520.0 852.002,519.0 852.002,518.0 852.002,517.0 852.002,516.0 852.002,515.0 852.002,514.0 852.002,513.0 852.002,512.0 852.002,511.0 852.002,510.0 852.002,509.0 852.002,508.0 852.002,507.0 852.002,506.0 852.002,505.0 852.002,504.0 852.002,503.0 852.002,502.0 852.002,501.0 852.002,500.0 852.002,499.0 852.002,498.0 852.002,497.0 852.002,496.0 852.002,495.0 852.002,494.0 852.002,493.0 852.002,492.0 852.002,491.0 852.002,490.0 852.002,489.0 852.002,488.0 852.002,487.0 852.002,486.0 852.002,485.0 852.002,484.0 852.002,483.0 852.002,482.0 852.002,481.0 852.002,480.0 852.002,479.0 852.002,478.0 852.002,477.0 852.002,476.0 852.002,475.0 852.002,474.0 852.002,473.0 852.002,472.0 852.002,471.0 852.002,470.0 852.002,469.0 852.002,468.0 852.002,467.0 852.002,466.0 852.002,465.0 852.002,464.0 852.002,463.0 852.002,462.0 852.002,461.0 852.002,460.0 852.002,459.0 852.002,458.0 852.002,457.0 852.002,456.0 852.002,455.0 852.002,454.0 852.002,453.0 852.002,452.0 852.002,451.0 852.002,450.0 852.002,449.0 852.002,448.0 852.002,447.0 852.002,446.0 852.002,445.0 852.002,444.0 852.002,443.0 852.002,442.0 852.002,441.0 852.002,440.0 852.002,439.0 852.002,438.0 852.002,437.0 852.002,436.0 852.002,435.0 852.002,434.0 852.002,433.0 852.002,432.0 852.002,431.0 852.002,430.0 852.002,429.0 852.002,428.0 852.002,427.0 852.002,426.0 852.002,425.0 852.002,424.0 852.002,423.0 852.002,422.0 852.002,421.0 852.002,420.0 852.002,419.0 852.002,418.0 852.002,417.0 852.002,416.0 852.002,415.0 852.002,414.0 852.002,413.0 852.002,412.0 852.002,411.0 852.002,410.0 852.002,409.0 852.002,408.0 852.002,407.0 852.002,406.0 852.002,405.0 852.002,404.0 852.002,403.0 852.002,402.0 852.002,401.0 852.002,400.0 852.002,399.0 852.002,398.0 852.002,397.0 852.002,396.0 852.002,395.0 852.002,394.0 852.002,393.0 852.002,392.0 852.002,391.0 852.002,390.0 852.002,389.0 852.002,388.0 852.002,387.0 852.002,386.0 852.002,385.0 852.002,384.0 852.002,383.0 852.002,382.0 852.002,381.0 852.002,380.0 852.002,379.0 852.002,378.0 852.002,377.0 852.002,376.0 852.002,375.0 852.002,374.0 852.002,373.0 852.002,372.0 852.002,371.0 852.002,370.0 852.002,369.0 852.002,368.0 852.002,367.0 852.002,366.0 852.002,365.0 852.002,364.0 852.002,363.0 852.002,362.0 852.002,361.0 852.002,360.0 852.002,359.0 852.002,358.0 852.002,357.0 852.002,356.0 852.002,355.0 852.002,354.0 852.002,353.0 852.002,352.0 852.002,351.0 852.002,350.0 852.002,349.0 852.002,348.0 852.002,347.0 852.002,346.0 852.002,345.0 852.002,344.0 852.002,343.0 852.002,342.0 852.002,341.0 852.002,340.0 852.002,339.0 852.002,338.0 852.002,337.0 852.002,336.0 852.002,335.0 852.002,334.0 852.002,333.0 852.002,332.0 852.002,331.0 852.002,330.0 852.002,329.0 852.002,328.0 852.002,327.0 852.002,326.0 852.002,325.0 852.002,324.0 852.002,323.0 852.002,322.0 852.002,321.0 852.002,320.0 852.002,319.0 852.002,318.0 852.002,317.0 852.002,316.0 852.002,315.0 852.002,314.0 852.002,313.0 852.002,312.0 852.002,311.0 852.002,310.0 852.002,309.0 852.002,308.0 852.002,307.0 852.002,306.0 852.002,305.0 852.002,304.0 852.002,303.0 852.002,302.0 852.002,301.0 852.002,300.0 852.002,299.0 852.002,298.0 852.002,297.0 852.002,296.0 852.002,295.0 852.002,294.0 852.002,293.0 852.002,292.0 852.002,291.0 852.002,290.0 852.002,289.0 852.002,288.0 852.002,287.0 852.002,286.0 852.002,285.0 852.002,284.0 852.002,283.0 852.002,282.0 852.002,281.0 852.002,280.0 852.002,279.0 852.002,278.0 852.002,277.0 852.002,276.0 852.002,275.0 852.002,274.0 852.002,273.0 852.002,272.0 852.002,271.0 852.002,270.0 852.002,269.0 852.002,268.0 852.002,267.0 852.002,266.0 852.002,265.0 852.002,264.0 852.002,263.0 852.002,262.0 852.002,261.0 852.002,260.0 852.002,259.0 852.002,258.0 852.002,257.0 852.002,256.0 852.002,255.0 852.002,254.0 852.002,253.0 852.002,252.0 852.002,251.0 852.002,250.0 852.002,249.0 852.002,248.0 852.002,247.0 852.002,246.0 852.002,245.0 852.002,244.0 852.002,243.0 852.002,242.0 852.002,241.0 852.002,240.0 852.002,239.0 852.002,238.0 852.002,237.0 852.002,236.0 852.002,235.0 852.002,234.0 852.002,233.0 852.002,232.0 852.002,231.0 852.002,230.0 852.002,229.0 852.002,228.0 852.002,227.0 852.002,226.0 852.002,225.0 852.002,224.0 852.002,223.0 852.002,222.0 852.002,221.0 852.002,220.0 852.002,219.0 852.002,218.0 852.002,217.0 852.002,216.0 852.002,215.0 852.002,214.0 852.002,213.0 852.002,212.0 852.002,211.0 852.002,210.0 852.002,209.0 852.002,208.0 852.002,207.0 852.002,206.0 852.002,205.0 852.002,204.0 852.002,203.0 852.002,202.0 852.002,201.0 852.002,200.0 852.002,199.0 852.002,198.0 852.002,197.0 852.002,196.0 852.002,195.0 852.002,194.0 852.002,193.0 852.002,192.0 852.002,191.0 852.002,190.0 852.002,189.0 852.002,188.0 852.002,187.0 852.002,186.0 852.002,185.0 852.002,184.0 852.002,183.0 852.002,182.0 852.002,181.0 852.002,180.0 852.002,179.0 852.002,178.0 852.002,177.0 852.002,176.0 852.002,175.0 852.002,174.0 852.002,173.0 852.002,172.0 852.002,171.0 852.002,170.0 852.002,169.0 852.002,168.0 852.002,167.0 852.002,166.0 852.002,165.0 852.002,164.0 852.002,163.0 852.002,162.0 852.002,161.0 852.002,160.0 852.002,159.0 852.002,158.0 852.002,157.0 852.002,156.0 852.002,155.0 852.002,154.0 852.002,153.0 852.002,152.0 852.002,151.0 852.002,150.0 852.002,149.0 852.002,148.0 852.002,147.0 852.002,146.0 852.002,145.0 852.0,144.998 851.998,145.0 851.998,146.0 851.0,146.998 850.998,147.0 850.0,147.998 849.998,148.0 849.998,149.0 849.0,149.998 848.998,150.0 848.0,150.998 847.998,151.0 847.998,152.0 847.0,152.998 846.998,153.0 846.0,153.998 845.998,154.0 845.0,154.998 844.998,155.0 844.998,156.0 844.0,156.998 843.998,157.0 843.0,157.998 842.998,158.0 842.998,159.0 842.0,159.998 841.998,160.0 841.0,160.998 840.998,161.0 840.998,162.0 840.0,162.998 839.998,163.0 839.0,163.998 838.998,164.0 838.998,165.0 838.0,165.998 837.998,166.0 837.0,166.998 836.998,167.0 836.0,167.998 835.998,168.0 835.998,169.0 835.0,169.998 834.998,170.0 834.0,170.998 833.998,171.0 833.998,172.0 833.0,172.998 832.998,173.0 832.0,173.998 831.998,174.0 831.998,175.0 831.0,175.998 830.998,176.0 830.0,176.998 829.998,177.0 829.998,178.0 829.0,178.998 828.998,179.0 828.0,179.998 827.998,180.0 827.0,180.998 826.998,181.0 826.998,182.0 826.0,182.998 825.998,183.0 825.0,183.998 824.998,184.0 824.998,185.0 824.0,185.998 823.998,186.0 823.0,186.998 822.998,187.0 822.998,188.0 822.0,188.998 821.998,189.0 821.0,189.998 820.998,190.0 820.998,191.0 820.0,191.998 819.998,192.0 819.0,192.998 818.998,193.0 818.0,193.998 817.998,194.0 817.998,195.0 817.0,195.998 816.998,196.0 816.0,196.998 815.998,197.0 815.998,198.0 815.0,198.998 814.998,199.0 814.0,199.998 813.998,200.0 813.998,201.0 813.0,201.998 812.998,202.0 812.0,202.998 811.998,203.0 811.0,203.998 810.998,204.0 810.998,205.0 810.0,205.998 809.998,206.0 809.0,206.998 808.998,207.0 808.998,208.0 808.0,208.998 807.998,209.0 807.0,209.998 806.998,210.0 806.998,211.0 806.0,211.998 805.998,212.0 805.0,212.998 804.998,213.0 804.998,214.0 804.0,214.998 803.998,215.0 803.0,215.998 802.998,216.0 802.0,216.998 801.998,217.0 801.998,218.0 801.0,218.998 800.998,219.0 800.0,219.998 799.998,220.0 799.998,221.0 799.0,221.998 798.998,222.0 798.0,222.998 797.998,223.0 797.998,224.0 797.0,224.998 796.998,225.0 796.0,225.998 795.998,226.0 795.998,227.0 795.0,227.998 794.998,228.0 794.0,228.998 793.998,229.0 793.0,229.998 792.998,230.0 792.998,231.0 792.0,231.998 791.998,232.0 791.0,232.998 790.998,233.0 790.998,234.0 790.0,234.998 789.998,235.0 789.0,235.998 788.998,236.0 788.998,237.0 788.0,237.998 787.998,238.0 787.0,238.998 786.998,239.0 786.998,240.0 786.0,240.998 785.998,241.0 785.0,241.998 784.998,242.0 784.0,242.998 783.998,243.0 783.998,244.0 783.0,244.998 782.998,245.0 782.0,245.998 781.998,246.0 781.998,247.0 781.0,247.998 780.998,248.0 780.0,248.998 779.998,249.0 779.998,250.0 779.0,250.998 778.998,251.0 778.0,251.998 777.998,252.0 777.0,252.998 776.998,253.0 776.998,254.0 776.0,254.998 775.998,255.0 775.0,255.998 774.998,256.0 774.998,257.0 774.0,257.998 773.998,258.0 773.0,258.998 772.998,259.0 772.998,260.0 772.0,260.998 771.998,261.0 771.0,261.998 770.998,262.0 770.998,263.0 770.0,263.998 769.998,264.0 769.0,264.998 768.998,265.0 768.0,265.998 767.998,266.0 767.998,267.0 767.0,267.998 766.998,268.0 766.0,268.998 765.998,269.0 765.998,270.0 765.0,270.998 764.998,271.0 764.0,271.998 763.998,272.0 763.998,273.0 763.0,273.998 762.998,274.0 762.0,274.998 761.998,275.0 761.998,276.0 761.0,276.998 760.998,277.0 760.0,277.998 759.998,278.0 759.0,278.998 758.998,279.0 758.998,280.0 758.0,280.998 757.998,281.0 757.0,281.998 756.998,282.0 756.998,283.0 756.0,283.998 755.998,284.0 755.0,284.998 754.998,285.0 754.998,286.0 754.0,286.998 753.998,287.0 753.0,287.998 752.998,288.0 752.998,289.0 752.0,289.998 751.998,290.0 751.0,290.998 750.998,291.0 750.0,291.998 749.998,292.0 749.998,293.0 749.0,293.998 748.998,294.0 748.0,294.998 747.998,295.0 747.998,296.0 747.0,296.998 746.998,297.0 746.0,297.998 745.998,298.0 745.998,299.0 745.0,299.998 744.998,300.0 744.0,300.998 743.998,301.0 743.0,301.998 742.998,302.0 742.998,303.0 742.0,303.998 741.998,304.0 741.0,304.998 740.998,305.0 740.998,306.0 740.0,306.998 739.998,307.0 739.0,307.998 738.998,308.0 738.998,309.0 738.0,309.998 737.998,310.0 737.0,310.998 736.998,311.0 736.998,312.0 736.0,312.998 735.998,313.0 735.0,313.998 734.998,314.0 734.0,314.998 733.998,315.0 733.998,316.0 733.0,316.998 732.998,317.0 732.0,317.998 731.998,318.0 731.998,319.0 731.0,319.998 730.998,320.0 730.0,320.998 729.998,321.0 729.998,322.0 729.0,322.998 728.998,323.0 728.0,323.998 727.998,324.0 727.998,325.0 727.0,325.998 726.998,326.0 726.0,326.998 725.998,327.0 725.0,327.998 724.998,328.0 724.998,329.0 724.0,329.998 723.998,330.0 723.0,330.998 722.998,331.0 722.998,332.0 722.0,332.998 721.998,333.0 721.0,333.998 720.998,334.0 720.998,335.0 720.0,335.998 719.998,336.0 719.0,336.998 718.998,337.0 718.998,338.0 718.0,338.998 717.998,339.0 717.0,339.998 716.998,340.0 716.0,340.998 715.998,341.0 715.998,342.0 715.0,342.998 714.998,343.0 714.0,343.998 713.998,344.0 713.998,345.0 713.0,345.998 712.998,346.0 712.0,346.998 711.998,347.0 711.998,348.0 711.0,348.998 710.998,349.0 710.0,349.998 709.998,350.0 709.998,351.0 709.0,351.998 708.998,352.0 708.0,352.998 707.998,353.0 707.0,353.998 706.998,354.0 706.998,355.0 706.0,355.998 705.998,356.0 705.0,356.998 704.998,357.0 704.998,358.0 704.0,358.998 703.998,359.0 703.0,359.998 702.998,360.0 702.998,361.0 702.0,361.998 701.998,362.0 701.0,362.998 700.998,363.0 700.0,363.998 699.998,364.0 699.998,365.0 699.0,365.998 698.998,366.0 698.0,366.998 697.998,367.0 697.998,368.0 697.0,368.998 696.998,369.0 696.0,369.998 695.998,370.0 695.998,371.0 695.0,371.998 694.998,372.0 694.0,372.998 693.998,373.0 693.998,374.0 693.0,374.998 692.998,375.0 692.0,375.998 691.998,376.0 691.0,376.998 690.998,377.0 690.998,378.0 690.0,378.998 689.998,379.0 689.0,379.998 688.998,380.0 688.998,381.0 688.0,381.998 687.998,382.0 687.0,382.998 686.998,383.0 686.998,384.0 686.0,384.998 685.998,385.0 685.0,385.998 684.998,386.0 684.998,387.0 684.0,387.998 683.998,388.0 683.0,388.998 682.998,389.0 682.0,389.998 681.998,390.0 681.998,391.0 681.0,391.998 680.998,392.0 680.0,392.998 679.998,393.0 679.998,394.0 679.0,394.998 678.998,395.0 678.0,395.998 677.998,396.0 677.998,397.0 677.0,397.998 676.998,398.0 676.0,398.998 675.998,399.0 675.0,399.998 674.998,400.0 674.998,401.0 674.0,401.998 673.998,402.0 673.0,402.998 672.998,403.0 672.998,404.0 672.0,404.998 671.998,405.0 671.0,405.998 670.998,406.0 670.998,407.0 670.0,407.998 669.998,408.0 669.0,408.998 668.998,409.0 668.998,410.0 668.0,410.998 667.998,411.0 667.0,411.998 666.998,412.0 666.0,412.998 665.998,413.0 665.998,414.0 665.0,414.998 664.998,415.0 664.0,415.998 663.998,416.0 663.998,417.0 663.0,417.998 662.998,418.0 662.0,418.998 661.998,419.0 661.998,420.0 661.0,420.998 660.998,421.0 660.0,421.998 659.998,422.0 659.998,423.0 659.0,423.998 658.998,424.0 658.0,424.998 657.998,425.0 657.0,425.998 656.998,426.0 656.998,427.0 656.0,427.998 655.998,428.0 655.0,428.998 654.998,429.0 654.998,430.0 654.0,430.998 653.998,431.0 653.0,431.998 652.998,432.0 652.998,433.0 652.0,433.998 651.998,434.0 651.0,434.998 650.998,435.0 650.998,436.0 650.0,436.998 649.998,437.0 649.0,437.998 648.998,438.0 648.0,438.998 647.998,439.0 647.998,440.0 647.0,440.998 646.0,440.998 645.002,440.0 645.002,439.0 645.0,438.998 644.002,438.0 644.0,437.998 643.002,437.0 643.002,436.0 643.0,435.998 642.002,435.0 642.0,434.998 641.002,434.0 641.002,433.0 641.0,432.998 640.002,432.0 640.0,431.998 639.002,431.0 639.0,430.998 638.002,430.0 638.002,429.0 638.0,428.998 637.002,428.0 637.0,427.998 636.002,427.0 636.002,426.0 636.0,425.998 635.002,425.0 635.0,424.998 634.002,424.0 634.002,423.0 634.0,422.998 633.002,422.0 633.0,421.998 632.002,421.0 632.002,420.0 632.0,419.998 631.002,419.0 631.0,418.998 630.002,418.0 630.0,417.998 629.002,417.0 629.002,416.0 629.0,415.998 628.002,415.0 628.0,414.998 627.002,414.0 627.002,413.0 627.0,412.998 626.002,412.0 626.0,411.998 625.002,411.0 625.002,410.0 625.0,409.998 624.002,409.0 624.0,408.998 623.002,408.0 623.002,407.0 623.0,406.998 622.002,406.0 622.0,405.998 621.002,405.0 621.0,404.998 620.002,404.0 620.002,403.0 620.0,402.998 619.002,402.0 619.0,401.998 618.002,401.0 618.002,400.0 618.0,399.998 617.002,399.0 617.0,398.998 616.002,398.0 616.002,397.0 616.0,396.998 615.002,396.0 615.0,395.998 614.002,395.0 614.002,394.0 614.0,393.998 613.002,393.0 613.0,392.998 612.002,392.0 612.0,391.998 611.002,391.0 611.002,390.0 611.0,389.998 610.002,389.0 610.0,388.998 609.002,388.0 609.002,387.0 609.0,386.998 608.002,386.0 608.0,385.998 607.002,385.0 607.002,384.0 607.0,383.998 606.002,383.0 606.0,382.998 605.002,382.0 605.0,381.998 604.002,381.0 604.002,380.0 604.0,379.998 603.002,379.0 603.0,378.998 602.002,378.0 602.002,377.0 602.0,376.998 601.002,376.0 601.0,375.998 600.002,375.0 600.002,374.0 600.0,373.998 599.002,373.0 599.0,372.998 598.002,372.0 598.002,371.0 598.0,370.998 597.002,370.0 597.0,369.998 596.002,369.0 596.0,368.998 595.002,368.0 595.002,367.0 595.0,366.998 594.002,366.0 594.0,365.998 593.002,365.0 593.002,364.0 593.0,363.998 592.002,363.0 592.0,362.998 591.002,362.0 591.002,361.0 591.0,360.998 590.002,360.0 590.0,359.998 589.002,359.0 589.002,358.0 589.0,357.998 588.002,357.0 588.0,356.998 587.002,356.0 587.0,355.998 586.002,355.0 586.002,354.0 586.0,353.998 585.002,353.0 585.0,352.998 584.002,352.0 584.002,351.0 584.0,350.998 583.002,350.0 583.0,349.998 582.002,349.0 582.002,348.0 582.0,347.998 581.002,347.0 581.0,346.998 580.002,346.0 580.002,345.0 580.0,344.998 579.002,344.0 579.0,343.998 578.002,343.0 578.0,342.998 577.002,342.0 577.002,341.0 577.0,340.998 576.002,340.0 576.0,339.998 575.002,339.0 575.002,338.0 575.0,337.998 574.002,337.0 574.0,336.998 573.002,336.0 573.002,335.0 573.0,334.998 572.002,334.0 572.0,333.998 571.002,333.0 571.0,332.998 570.002,332.0 570.002,331.0 570.0,330.998 569.002,330.0 569.0,329.998 568.002,329.0 568.002,328.0 568.0,327.998 567.002,327.0 567.0,326.998 566.002,326.0 566.002,325.0 566.0,324.998 565.002,324.0 565.0,323.998 564.002,323.0 564.002,322.0 564.0,321.998 563.002,321.0 563.0,320.998 562.002,320.0 562.0,319.998 561.002,319.0 561.002,318.0 561.0,317.998 560.002,317.0 560.0,316.998 559.002,316.0 559.002,315.0 559.0,314.998 558.002,314.0 558.0,313.998 557.002,313.0 557.002,312.0 557.0,311.998 556.002,311.0 556.0,310.998 555.002,310.0 555.002,309.0 555.0,308.998 554.002,308.0 554.0,307.998 553.002,307.0 553.0,306.998 552.002,306.0 552.002,305.0 552.0,304.998 551.002,304.0 551.0,303.998 550.002,303.0 550.002,302.0 550.0,301.998 549.002,301.0 549.0,300.998 548.002,300.0 548.002,299.0 548.0,298.998 547.002,298.0 547.0,297.998 546.002,297.0 546.002,296.0 546.0,295.998 545.002,295.0 545.0,294.998 544.002,294.0 544.0,293.998 543.002,293.0 543.002,292.0 543.0,291.998 542.002,291.0 542.0,290.998 541.002,290.0 541.002,289.0 541.0,288.998 540.002,288.0 540.0,287.998 539.002,287.0 539.002,286.0 539.0,285.998 538.002,285.0 538.0,284.998 537.002,284.0 537.0,283.998 536.002,283.0 536.002,282.0 536.0,281.998 535.002,281.0 535.0,280.998 534.002,280.0 534.002,279.0 534.0,278.998 533.002,278.0 533.0,277.998 532.002,277.0 532.002,276.0 532.0,275.998 531.002,275.0 531.0,274.998 530.002,274.0 530.002,273.0 530.0,272.998 529.002,272.0 529.0,271.998 528.002,271.0 528.0,270.998 527.002,270.0 527.002,269.0 527.0,268.998 526.002,268.0 526.0,267.998 525.002,267.0 525.002,266.0 525.0,265.998 524.002,265.0 524.0,264.998 523.002,264.0 523.002,263.0 523.0,262.998 522.002,262.0 522.0,261.998 521.002,261.0 521.002,260.0 521.0,259.998 520.002,259.0 520.0,258.998 519.002,258.0 519.0,257.998 518.002,257.0 518.002,256.0 518.0,255.998 517.002,255.0 517.0,254.998 516.002,254.0 516.002,253.0 516.0,252.998 515.002,252.0 515.0,251.998 514.002,251.0 514.002,250.0 514.0,249.998 513.002,249.0 513.0,248.998 512.002,248.0 512.002,247.0 512.0,246.998 511.002,246.0 511.0,245.998 510.002,245.0 510.0,244.998 509.002,244.0 509.002,243.0 509.0,242.998 508.002,242.0 508.0,241.998 507.002,241.0 507.002,240.0 507.0,239.998 506.002,239.0 506.0,238.998 505.002,238.0 505.002,237.0 505.0,236.998 504.002,236.0 504.0,235.998 503.002,235.0 503.002,234.0 503.0,233.998 502.002,233.0 502.0,232.998 501.002,232.0 501.0,231.998 500.002,231.0 500.002,230.0 500.0,229.998 499.002,229.0 499.0,228.998 498.002,228.0 498.002,227.0 498.0,226.998 497.002,226.0 497.0,225.998 496.002,225.0 496.002,224.0 496.0,223.998 495.002,223.0 495.0,222.998 494.002,222.0 494.0,221.998 493.002,221.0 493.002,220.0 493.0,219.998 492.002,219.0 492.0,218.998 491.002,218.0 491.002,217.0 491.0,216.998 490.002,216.0 490.0,215.998 489.002,215.0 489.002,214.0 489.0,213.998 488.002,213.0 488.0,212.998 487.002,212.0 487.002,211.0 487.0,210.998 486.002,210.0 486.0,209.998 485.002,209.0 485.0,208.998 484.002,208.0 484.002,207.0 484.0,206.998 483.002,206.0 483.0,205.998 482.002,205.0 482.002,204.0 482.0,203.998 481.002,203.0 481.0,202.998 480.002,202.0 480.002,201.0 480.0,200.998 479.002,200.0 479.0,199.998 478.002,199.0 478.002,198.0 478.0,197.998 477.002,197.0 477.0,196.998 476.002,196.0 476.0,195.998 475.002,195.0 475.002,194.0 475.0,193.998 474.002,193.0 474.0,192.998 473.002,192.0 473.002,191.0 473.0,190.998 472.002,190.0 472.0,189.998 471.002,189.0 471.002,188.0 471.0,187.998 470.002,187.0 470.0,186.998 469.002,186.0 469.002,185.0 469.0,184.998 468.002,184.0 468.0,183.998 467.002,183.0 467.0,182.998 466.002,182.0 466.002,181.0 466.0,180.998 465.002,180.0 465.0,179.998 464.002,179.0 464.002,178.0 464.0,177.998 463.002,177.0 463.0,176.998 462.002,176.0 462.002,175.0 462.0,174.998 461.002,174.0 461.0,173.998 460.002,173.0 460.0,172.998 459.002,172.0 459.002,171.0 459.0,170.998 458.002,170.0 458.0,169.998 457.002,169.0 457.002,168.0 457.0,167.998 456.002,167.0 456.0,166.998 455.002,166.0 455.002,165.0 455.0,164.998 454.002,164.0 454.0,163.998 453.002,163.0 453.002,162.0 453.0,161.998 452.002,161.0 452.0,160.998 451.002,160.0 451.0,159.998 450.002,159.0 450.002,158.0 450.0,157.998 449.002,157.0 449.0,156.998 448.002,156.0 448.002,155.0 448.0,154.998 447.002,154.0 447.0,153.998 446.002,153.0 446.002,152.0 446.0,151.998 445.002,151.0 445.0,150.998 444.002,150.0 444.002,149.0 444.0,148.998 443.002,148.0 443.0,147.998 442.002,147.0 442.0,146.998 441.002,146.0 441.002,145.0 441.0,144.998 440.998,145.0 440.998,146.0 440.998,147.0 440.998,148.0 440.998,149.0 440.998,150.0 440.998,151.0 440.998,152.0 440.998,153.0 440.998,154.0 440.998,155.0 440.998,156.0 440.998,157.0 440.998,158.0 440.998,159.0 440.998,160.0 440.998,161.0 440.998,162.0 440.998,163.0 440.998,164.0 440.998,165.0 440.998,166.0 440.998,167.0 440.998,168.0 440.998,169.0 440.998,170.0 440.998,171.0 440.998,172.0 440.998,173.0 440.998,174.0 440.998,175.0 440.998,176.0 440.998,177.0 440.998,178.0 440.998,179.0 440.998,180.0 440.998,181.0 440.998,182.0 440.998,183.0 440.998,184.0 440.998,185.0 440.998,186.0 440.998,187.0 440.998,188.0 440.998,189.0 440.998,190.0 440.998,191.0 440.998,192.0 440.998,193.0 440.998,194.0 440.998,195.0 440.998,196.0 440.998,197.0 440.998,198.0 440.998,199.0 440.998,200.0 440.998,201.0 440.998,202.0 440.998,203.0 440.998,204.0 440.998,205.0 440.998,206.0 440.998,207.0 440.998,208.0 440.998,209.0 440.998,210.0 440.998,211.0 440.998,212.0 440.998,213.0 440.998,214.0 440.998,215.0 440.998,216.0 440.998,217.0 440.998,218.0 440.998,219.0 440.998,220.0 440.998,221.0 440.998,222.0 440.998,223.0 440.998,224.0 440.998,225.0 440.998,226.0 440.998,227.0 440.998,228.0 440.998,229.0 440.998,230.0 440.998,231.0 440.998,232.0 440.998,233.0 440.998,234.0 440.998,235.0 440.998,236.0 440.998,237.0 440.998,238.0 440.998,239.0 440.998,240.0 440.998,241.0 440.998,242.0 440.998,243.0 440.998,244.0 440.998,245.0 440.998,246.0 440.998,247.0 440.998,248.0 440.998,249.0 440.998,250.0 440.998,251.0 440.998,252.0 440.998,253.0 440.998,254.0 440.998,255.0 440.998,256.0 440.998,257.0 440.998,258.0 440.998,259.0 440.998,260.0 440.998,261.0 440.998,262.0 440.998,263.0 440.998,264.0 440.998,265.0 440.998,266.0 440.998,267.0 440.998,268.0 440.998,269.0 440.998,270.0 440.998,271.0 440.998,272.0 440.998,273.0 440.998,274.0 440.998,275.0 440.998,276.0 440.998,277.0 440.998,278.0 440.998,279.0 440.998,280.0 440.998,281.0 440.998,282.0 440.998,283.0 440.998,284.0 440.998,285.0 440.998,286.0 440.998,287.0 440.998,288.0 440.998,289.0 440.998,290.0 440.998,291.0 440.998,292.0 440.998,293.0 440.998,294.0 440.998,295.0 440.998,296.0 440.998,297.0 440.998,298.0 440.998,299.0 440.998,300.0 440.998,301.0 440.998,302.0 440.998,303.0 440.998,304.0 440.998,305.0 440.998,306.0 440.998,307.0 440.998,308.0 440.998,309.0 440.998,310.0 440.998,311.0 440.998,312.0 440.998,313.0 440.998,314.0 440.998,315.0 440.998,316.0 440.998,317.0 440.998,318.0 440.998,319.0 440.998,320.0 440.998,321.0 440.998,322.0 440.998,323.0 440.998,324.0 440.998,325.0 440.998,326.0 440.998,327.0 440.998,328.0 440.998,329.0 440.998,330.0 440.998,331.0 440.998,332.0 440.998,333.0 440.998,334.0 440.998,335.0 440.998,336.0 440.998,337.0 440.998,338.0 440.998,339.0 440.998,340.0 440.998,341.0 440.998,342.0 440.998,343.0 440.998,344.0 440.998,345.0 440.998,346.0 440.998,347.0 440.998,348.0 440.998,349.0 440.998,350.0 440.998,351.0 440.998,352.0 440.998,353.0 440.998,354.0 440.998,355.0 440.998,356.0 440.998,357.0 440.998,358.0 440.998,359.0 440.998,360.0 440.998,361.0 440.998,362.0 440.998,363.0 440.998,364.0 440.998,365.0 440.998,366.0 440.998,367.0 440.998,368.0 440.998,369.0 440.998,370.0 440.998,371.0 440.998,372.0 440.998,373.0 440.998,374.0 440.998,375.0 440.998,376.0 440.998,377.0 440.998,378.0 440.998,379.0 440.998,380.0 440.998,381.0 440.998,382.0 440.998,383.0 440.998,384.0 440.998,385.0 440.998,386.0 440.998,387.0 440.998,388.0 440.998,389.0 440.998,390.0 440.998,391.0 440.998,392.0 440.998,393.0 440.998,394.0 440.998,395.0 440.998,396.0 440.998,397.0 440.998,398.0 440.998,399.0 440.998,400.0 440.998,401.0 440.998,402.0 440.998,403.0 440.998,404.0 440.998,405.0 440.998,406.0 440.998,407.0 440.998,408.0 440.998,409.0 440.998,410.0 440.998,411.0 440.998,412.0 440.998,413.0 440.998,414.0 440.998,415.0 440.998,416.0 440.998,417.0 440.998,418.0 440.998,419.0 440.998,420.0 440.998,421.0 440.998,422.0 440.998,423.0 440.998,424.0 440.998,425.0 440.998,426.0 440.998,427.0 440.998,428.0 440.998,429.0 440.998,430.0 440.998,431.0 440.998,432.0 440.998,433.0 440.998,434.0 440.998,435.0 440.998,436.0 440.998,437.0 440.998,438.0 440.998,439.0 440.998,440.0 440.998,441.0 440.998,442.0 440.998,443.0 440.998,444.0 440.998,445.0 440.998,446.0 440.998,447.0 440.998,448.0 440.998,449.0 440.998,450.0 440.998,451.0 440.998,452.0 440.998,453.0 440.998,454.0 440.998,455.0 440.998,456.0 440.998,457.0 440.998,458.0 440.998,459.0 440.998,460.0 440.998,461.0 440.998,462.0 440.998,463.0 440.998,464.0 440.998,465.0 440.998,466.0 440.998,467.0 440.998,468.0 440.998,469.0 440.998,470.0 440.998,471.0 440.998,472.0 440.998,473.0 440.998,474.0 440.998,475.0 440.998,476.0 440.998,477.0 440.998,478.0 440.998,479.0 440.998,480.0 440.998,481.0 440.998,482.0 440.998,483.0 440.998,484.0 440.998,485.0 440.998,486.0 440.998,487.0 440.998,488.0 440.998,489.0 440.998,490.0 440.998,491.0 440.998,492.0 440.998,493.0 440.998,494.0 440.998,495.0 440.998,496.0 440.998,497.0 440.998,498.0 440.998,499.0 440.998,500.0 440.998,501.0 440.998,502.0 440.998,503.0 440.998,504.0 440.998,505.0 440.998,506.0 440.998,507.0 440.998,508.0 440.998,509.0 440.998,510.0 440.998,511.0 440.998,512.0 440.998,513.0 440.998,514.0 440.998,515.0 440.998,516.0 440.998,517.0 440.998,518.0 440.998,519.0 440.998,520.0 440.998,521.0 440.998,522.0 440.998,523.0 440.998,524.0 440.998,525.0 440.998,526.0 440.998,527.0 440.998,528.0 440.998,529.0 440.998,530.0 440.998,531.0 440.998,532.0 440.998,533.0 440.998,534.0 440.998,535.0 440.998,536.0 440.998,537.0 440.998,538.0 440.998,539.0 440.998,540.0 440.998,541.0 440.998,542.0 440.998,543.0 440.998,544.0 440.998,545.0 440.998,546.0 440.998,547.0 440.998,548.0 440.998,549.0 440.998,550.0 440.998,551.0 440.998,552.0 440.998,553.0 440.998,554.0 440.998,555.0 440.998,556.0 440.998,557.0 440.998,558.0 440.998,559.0 440.998,560.0 440.998,561.0 440.998,562.0 440.998,563.0 440.998,564.0 440.998,565.0 440.998,566.0 440.998,567.0 440.998,568.0 440.998,569.0 440.998,570.0 440.998,571.0 440.998,572.0 440.998,573.0 440.998,574.0 440.998,575.0 440.998,576.0 440.998,577.0 440.998,578.0 440.998,579.0 440.998,580.0 440.998,581.0 440.998,582.0 440.998,583.0 440.998,584.0 440.998,585.0 440.998,586.0 440.998,587.0 440.998,588.0 440.998,589.0 440.998,590.0 440.998,591.0 440.998,592.0 440.998,593.0 440.998,594.0 440.998,595.0 440.998,596.0 440.998,597.0 440.998,598.0 440.998,599.0 440.998,600.0 440.998,601.0 440.998,602.0 440.0,602.998 439.0,602.998 438.0,602.998 437.0,602.998 436.0,602.998 435.0,602.998 434.0,602.998 433.0,602.998 432.0,602.998 431.0,602.998 430.0,602.998 429.0,602.998 428.0,602.998 427.0,602.998 426.0,602.998 425.0,602.998 424.002,602.0 424.002,601.0 424.002,600.0 424.002,599.0 424.002,598.0 424.002,597.0 424.002,596.0 424.002,595.0 424.002,594.0 424.002,593.0 424.002,592.0 424.002,591.0 424.002,590.0 424.002,589.0 424.002,588.0 424.002,587.0 424.002,586.0 424.002,585.0 424.002,584.0 424.002,583.0 424.002,582.0 424.002,581.0 424.002,580.0 424.002,579.0 424.002,578.0 424.002,577.0 424.002,576.0 424.002,575.0 424.002,574.0 424.002,573.0 424.002,572.0 424.002,571.0 424.002,570.0 424.002,569.0 424.002,568.0 424.002,567.0 424.002,566.0 424.002,565.0 424.002,564.0 424.002,563.0 424.002,562.0 424.002,561.0 424.002,560.0 424.002,559.0 424.002,558.0 424.002,557.0 424.002,556.0 424.002,555.0 424.002,554.0 424.002,553.0 424.002,552.0 424.002,551.0 424.002,550.0 424.002,549.0 424.002,548.0 424.002,547.0 424.002,546.0 424.002,545.0 424.002,544.0 424.002,543.0 424.002,542.0 424.002,541.0 424.002,540.0 424.002,539.0 424.002,538.0 424.002,537.0 424.002,536.0 424.002,535.0 424.002,534.0 424.002,533.0 424.002,532.0 424.002,531.0 424.002,530.0 424.002,529.0 424.002,528.0 424.002,527.0 424.002,526.0 424.002,525.0 424.002,524.0 424.002,523.0 424.002,522.0 424.002,521.0 424.002,520.0 424.002,519.0 424.002,518.0 424.002,517.0 424.002,516.0 424.002,515.0 424.002,514.0 424.002,513.0 424.002,512.0 424.002,511.0 424.002,510.0 424.002,509.0 424.002,508.0 424.002,507.0 424.002,506.0 424.002,505.0 424.002,504.0 424.002,503.0 424.002,502.0 424.002,501.0 424.002,500.0 424.002,499.0 424.002,498.0 424.002,497.0 424.002,496.0 424.002,495.0 424.002,494.0 424.002,493.0 424.002,492.0 424.002,491.0 424.002,490.0 424.002,489.0 424.002,488.0 424.002,487.0 424.002,486.0 424.002,485.0 424.002,484.0 424.002,483.0 424.002,482.0 424.002,481.0 424.002,480.0 424.002,479.0 424.002,478.0 424.002,477.0 424.002,476.0 424.002,475.0 424.002,474.0 424.002,473.0 424.002,472.0 424.002,471.0 424.002,470.0 424.002,469.0 424.002,468.0 424.002,467.0 424.002,466.0 424.002,465.0 424.002,464.0 424.002,463.0 424.002,462.0 424.002,461.0 424.002,460.0 424.002,459.0 424.002,458.0 424.002,457.0 424.002,456.0 424.002,455.0 424.002,454.0 424.002,453.0 424.002,452.0 424.002,451.0 424.002,450.0 424.002,449.0 424.002,448.0 424.002,447.0 424.002,446.0 424.002,445.0 424.002,444.0 424.002,443.0 424.002,442.0 424.002,441.0 424.002,440.0 424.002,439.0 424.002,438.0 424.002,437.0 424.002,436.0 424.002,435.0 424.002,434.0 424.002,433.0 424.002,432.0 424.002,431.0 424.002,430.0 424.002,429.0 424.002,428.0 424.002,427.0 424.002,426.0 424.002,425.0 424.002,424.0 424.002,423.0 424.002,422.0 424.002,421.0 424.002,420.0 424.002,419.0 424.002,418.0 424.002,417.0 424.002,416.0 424.002,415.0 424.002,414.0 424.002,413.0 424.002,412.0 424.002,411.0 424.002,410.0 424.002,409.0 424.002,408.0 424.002,407.0 424.002,406.0 424.002,405.0 424.002,404.0 424.002,403.0 424.002,402.0 424.002,401.0 424.002,400.0 424.002,399.0 424.002,398.0 424.002,397.0 424.002,396.0 424.002,395.0 424.002,394.0 424.002,393.0 424.002,392.0 424.002,391.0 424.002,390.0 424.002,389.0 424.002,388.0 424.002,387.0 424.002,386.0 424.002,385.0 424.002,384.0 424.002,383.0 424.002,382.0 424.002,381.0 424.002,380.0 424.002,379.0 424.002,378.0 424.002,377.0 424.002,376.0 424.002,375.0 424.002,374.0 424.002,373.0 424.002,372.0 424.002,371.0 424.002,370.0 424.002,369.0 424.002,368.0 424.002,367.0 424.002,366.0 424.002,365.0 424.002,364.0 424.002,363.0 424.002,362.0 424.002,361.0 424.002,360.0 424.002,359.0 424.002,358.0 424.002,357.0 424.002,356.0 424.002,355.0 424.002,354.0 424.002,353.0 424.002,352.0 424.002,351.0 424.002,350.0 424.002,349.0 424.002,348.0 424.002,347.0 424.002,346.0 424.002,345.0 424.002,344.0 424.002,343.0 424.002,342.0 424.002,341.0 424.002,340.0 424.002,339.0 424.002,338.0 424.002,337.0 424.002,336.0 424.002,335.0 424.002,334.0 424.002,333.0 424.002,332.0 424.002,331.0 424.002,330.0 424.002,329.0 424.002,328.0 424.002,327.0 424.002,326.0 424.002,325.0 424.002,324.0 424.002,323.0 424.002,322.0 424.002,321.0 424.002,320.0 424.002,319.0 424.002,318.0 424.002,317.0 424.002,316.0 424.002,315.0 424.002,314.0 424.002,313.0 424.002,312.0 424.002,311.0 424.002,310.0 424.002,309.0 424.002,308.0 424.002,307.0 424.002,306.0 424.002,305.0 424.002,304.0 424.002,303.0 424.002,302.0 424.002,301.0 424.002,300.0 424.002,299.0 424.002,298.0 424.002,297.0 424.002,296.0 424.002,295.0 424.002,294.0 424.002,293.0 424.002,292.0 424.002,291.0 424.002,290.0 424.002,289.0 424.002,288.0 424.002,287.0 424.002,286.0 424.002,285.0 424.002,284.0 424.002,283.0 424.002,282.0 424.002,281.0 424.002,280.0 424.002,279.0 424.002,278.0 424.002,277.0 424.002,276.0 424.002,275.0 424.002,274.0 424.002,273.0 424.002,272.0 424.002,271.0 424.002,270.0 424.002,269.0 424.002,268.0 424.002,267.0 424.002,266.0 424.002,265.0 424.002,264.0 424.002,263.0 424.002,262.0 424.002,261.0 424.002,260.0 424.002,259.0 424.002,258.0 424.002,257.0 424.002,256.0 424.002,255.0 424.002,254.0 424.002,253.0 424.002,252.0 424.002,251.0 424.002,250.0 424.002,249.0 424.002,248.0 424.002,247.0 424.002,246.0 424.002,245.0 424.002,244.0 424.002,243.0 424.002,242.0 424.002,241.0 424.002,240.0 424.002,239.0 424.002,238.0 424.002,237.0 424.002,236.0 424.002,235.0 424.002,234.0 424.002,233.0 424.002,232.0 424.002,231.0 424.002,230.0 424.002,229.0 424.002,228.0 424.002,227.0 424.002,226.0 424.002,225.0 424.002,224.0 424.002,223.0 424.002,222.0 424.002,221.0 424.002,220.0 424.002,219.0 424.002,218.0 424.002,217.0 424.002,216.0 424.002,215.0 424.002,214.0 424.002,213.0 424.002,212.0 424.002,211.0 424.002,210.0 424.002,209.0 424.002,208.0 424.002,207.0 424.002,206.0 424.002,205.0 424.002,204.0 424.002,203.0 424.002,202.0 424.002,201.0 424.002,200.0 424.002,199.0 424.002,198.0 424.002,197.0 424.002,196.0 424.002,195.0 424.002,194.0 424.002,193.0 424.002,192.0 424.002,191.0 424.002,190.0 424.002,189.0 424.002,188.0 424.002,187.0 424.002,186.0 424.002,185.0 424.002,184.0 424.002,183.0 424.002,182.0 424.002,181.0 424.002,180.0 424.002,179.0 424.002,178.0 424.002,177.0 424.002,176.0 424.002,175.0 424.002,174.0 424.002,173.0 424.002,172.0 424.002,171.0 424.002,170.0 424.002,169.0 424.002,168.0 424.002,167.0 424.002,166.0 424.002,165.0 424.002,164.0 424.002,163.0 424.002,162.0 424.002,161.0 424.002,160.0 424.002,159.0 424.002,158.0 424.002,157.0 424.002,156.0 424.002,155.0 424.002,154.0 424.002,153.0 424.002,152.0 424.002,151.0 424.002,150.0 424.002,149.0 424.002,148.0 424.002,147.0 424.002,146.0 424.002,145.0 424.002,144.0 424.002,143.0 424.002,142.0 424.002,141.0 424.002,140.0 424.002,139.0 424.002,138.0 424.002,137.0 424.002,136.0 424.002,135.0 424.002,134.0 424.002,133.0 424.002,132.0 424.002,131.0 424.002,130.0 424.002,129.0 424.002,128.0 424.002,127.0 424.002,126.0 424.002,125.0 424.002,124.0 424.002,123.0 424.002,122.0 424.002,121.0 424.002,120.0 424.002,119.0 424.002,118.0 424.002,117.0 425.0,116.002 425.002,116.0 426.0,115.002 427.0,115.002 428.0,115.002 429.0,115.002 430.0,115.002 431.0,115.002 432.0,115.002 433.0,115.002 434.0,115.002 435.0,115.002 436.0,115.002 437.0,115.002 438.0,115.002 439.0,115.002 439.998,116.0 440.0,116.002 440.998,117.0 441.0,117.002 441.998,118.0 442.0,118.002 442.998,119.0 442.998,120.0 443.0,120.002 443.998,121.0 444.0,121.002 444.998,122.0 444.998,123.0 445.0,123.002 445.998,124.0 446.0,124.002 446.998,125.0 446.998,126.0 447.0,126.002 447.998,127.0 448.0,127.002 448.998,128.0 449.0,128.002 449.998,129.0 449.998,130.0 450.0,130.002 450.998,131.0 451.0,131.002 451.998,132.0 451.998,133.0 452.0,133.002 452.998,134.0 453.0,134.002 453.998,135.0 453.998,136.0 454.0,136.002 454.998,137.0 455.0,137.002 455.998,138.0 455.998,139.0 456.0,139.002 456.998,140.0 457.0,140.002 457.998,141.0 458.0,141.002 458.998,142.0 458.998,143.0 459.0,143.002 459.998,144.0 460.0,144.002 460.998,145.0 460.998,146.0 461.0,146.002 461.998,147.0 462.0,147.002 462.998,148.0 462.998,149.0 463.0,149.002 463.998,150.0 464.0,150.002 464.998,151.0 465.0,151.002 465.998,152.0 465.998,153.0 466.0,153.002 466.998,154.0 467.0,154.002 467.998,155.0 467.998,156.0 468.0,156.002 468.998,157.0 469.0,157.002 469.998,158.0 469.998,159.0 470.0,159.002 470.998,160.0 471.0,160.002 471.998,161.0 471.998,162.0 472.0,162.002 472.998,163.0 473.0,163.002 473.998,164.0 473.998,165.0 474.0,165.002 474.998,166.0 475.0,166.002 475.998,167.0 476.0,167.002 476.998,168.0 476.998,169.0 477.0,169.002 477.998,170.0 478.0,170.002 478.998,171.0 478.998,172.0 479.0,172.002 479.998,173.0 480.0,173.002 480.998,174.0 480.998,175.0 481.0,175.002 481.998,176.0 482.0,176.002 482.998,177.0 483.0,177.002 483.998,178.0 483.998,179.0 484.0,179.002 484.998,180.0 485.0,180.002 485.998,181.0 485.998,182.0 486.0,182.002 486.998,183.0 487.0,183.002 487.998,184.0 487.998,185.0 488.0,185.002 488.998,186.0 489.0,186.002 489.998,187.0 489.998,188.0 490.0,188.002 490.998,189.0 491.0,189.002 491.998,190.0 492.0,190.002 492.998,191.0 492.998,192.0 493.0,192.002 493.998,193.0 494.0,193.002 494.998,194.0 494.998,195.0 495.0,195.002 495.998,196.0 496.0,196.002 496.998,197.0 496.998,198.0 497.0,198.002 497.998,199.0 498.0,199.002 498.998,200.0 498.998,201.0 499.0,201.002 499.998,202.0 500.0,202.002 500.998,203.0 501.0,203.002 501.998,204.0 501.998,205.0 502.0,205.002 502.998,206.0 503.0,206.002 503.998,207.0 503.998,208.0 504.0,208.002 504.998,209.0 505.0,209.002 505.998,210.0 505.998,211.0 506.0,211.002 506.998,212.0 507.0,212.002 507.998,213.0 508.0,213.002 508.998,214.0 508.998,215.0 509.0,215.002 509.998,216.0 510.0,216.002 510.998,217.0 510.998,218.0 511.0,218.002 511.998,219.0 512.0,219.002 512.998,220.0 512.998,221.0 513.0,221.002 513.998,222.0 514.0,222.002 514.998,223.0 514.998,224.0 515.0,224.002 515.998,225.0 516.0,225.002 516.998,226.0 517.0,226.002 517.998,227.0 517.998,228.0 518.0,228.002 518.998,229.0 519.0,229.002 519.998,230.0 519.998,231.0 520.0,231.002 520.998,232.0 521.0,232.002 521.998,233.0 521.998,234.0 522.0,234.002 522.998,235.0 523.0,235.002 523.998,236.0 523.998,237.0 524.0,237.002 524.998,238.0 525.0,238.002 525.998,239.0 526.0,239.002 526.998,240.0 526.998,241.0 527.0,241.002 527.998,242.0 528.0,242.002 528.998,243.0 528.998,244.0 529.0,244.002 529.998,245.0 530.0,245.002 530.998,246.0 530.998,247.0 531.0,247.002 531.998,248.0 532.0,248.002 532.998,249.0 532.998,250.0 533.0,250.002 533.998,251.0 534.0,251.002 534.998,252.0 535.0,252.002 535.998,253.0 535.998,254.0 536.0,254.002 536.998,255.0 537.0,255.002 537.998,256.0 537.998,257.0 538.0,257.002 538.998,258.0 539.0,258.002 539.998,259.0 539.998,260.0 540.0,260.002 540.998,261.0 541.0,261.002 541.998,262.0 541.998,263.0 542.0,263.002 542.998,264.0 543.0,264.002 543.998,265.0 544.0,265.002 544.998,266.0 544.998,267.0 545.0,267.002 545.998,268.0 546.0,268.002 546.998,269.0 546.998,270.0 547.0,270.002 547.998,271.0 548.0,271.002 548.998,272.0 548.998,273.0 549.0,273.002 549.998,274.0 550.0,274.002 550.998,275.0 551.0,275.002 551.998,276.0 551.998,277.0 552.0,277.002 552.998,278.0 553.0,278.002 553.998,279.0 553.998,280.0 554.0,280.002 554.998,281.0 555.0,281.002 555.998,282.0 555.998,283.0 556.0,283.002 556.998,284.0 557.0,284.002 557.998,285.0 557.998,286.0 558.0,286.002 558.998,287.0 559.0,287.002 559.998,288.0 560.0,288.002 560.998,289.0 560.998,290.0 561.0,290.002 561.998,291.0 562.0,291.002 562.998,292.0 562.998,293.0 563.0,293.002 563.998,294.0 564.0,294.002 564.998,295.0 564.998,296.0 565.0,296.002 565.998,297.0 566.0,297.002 566.998,298.0 566.998,299.0 567.0,299.002 567.998,300.0 568.0,300.002 568.998,301.0 569.0,301.002 569.998,302.0 569.998,303.0 570.0,303.002 570.998,304.0 571.0,304.002 571.998,305.0 571.998,306.0 572.0,306.002 572.998,307.0 573.0,307.002 573.998,308.0 573.998,309.0 574.0,309.002 574.998,310.0 575.0,310.002 575.998,311.0 575.998,312.0 576.0,312.002 576.998,313.0 577.0,313.002 577.998,314.0 578.0,314.002 578.998,315.0 578.998,316.0 579.0,316.002 579.998,317.0 580.0,317.002 580.998,318.0 580.998,319.0 581.0,319.002 581.998,320.0 582.0,320.002 582.998,321.0 582.998,322.0 583.0,322.002 583.998,323.0 584.0,323.002 584.998,324.0 584.998,325.0 585.0,325.002 585.998,326.0 586.0,326.002 586.998,327.0 587.0,327.002 587.998,328.0 587.998,329.0 588.0,329.002 588.998,330.0 589.0,330.002 589.998,331.0 589.998,332.0 590.0,332.002 590.998,333.0 591.0,333.002 591.998,334.0 591.998,335.0 592.0,335.002 592.998,336.0 593.0,336.002 593.998,337.0 594.0,337.002 594.998,338.0 594.998,339.0 595.0,339.002 595.998,340.0 596.0,340.002 596.998,341.0 596.998,342.0 597.0,342.002 597.998,343.0 598.0,343.002 598.998,344.0 598.998,345.0 599.0,345.002 599.998,346.0 600.0,346.002 600.998,347.0 600.998,348.0 601.0,348.002 601.998,349.0 602.0,349.002 602.998,350.0 603.0,350.002 603.998,351.0 603.998,352.0 604.0,352.002 604.998,353.0 605.0,353.002 605.998,354.0 605.998,355.0 606.0,355.002 606.998,356.0 607.0,356.002 607.998,357.0 607.998,358.0 608.0,358.002 608.998,359.0 609.0,359.002 609.998,360.0 609.998,361.0 610.0,361.002 610.998,362.0 611.0,362.002 611.998,363.0 612.0,363.002 612.998,364.0 612.998,365.0 613.0,365.002 613.998,366.0 614.0,366.002 614.998,367.0 614.998,368.0 615.0,368.002 615.998,369.0 616.0,369.002 616.998,370.0 616.998,371.0 617.0,371.002 617.998,372.0 618.0,372.002 618.998,373.0 618.998,374.0 619.0,374.002 619.998,375.0 620.0,375.002 620.998,376.0 621.0,376.002 621.998,377.0 621.998,378.0 622.0,378.002 622.998,379.0 623.0,379.002 623.998,380.0 623.998,381.0 624.0,381.002 624.998,382.0 625.0,382.002 625.998,383.0 625.998,384.0 626.0,384.002 626.998,385.0 627.0,385.002 627.998,386.0 627.998,387.0 628.0,387.002 628.998,388.0 629.0,388.002 629.998,389.0 630.0,389.002 630.998,390.0 630.998,391.0 631.0,391.002 631.998,392.0 632.0,392.002 632.998,393.0 632.998,394.0 633.0,394.002 633.998,395.0 634.0,395.002 634.998,396.0 634.998,397.0 635.0,397.002 635.998,398.0 636.0,398.002 636.998,399.0 637.0,399.002 637.998,400.0 637.998,401.0 638.0,401.002 638.998,402.0 639.0,402.002 639.998,403.0 639.998,404.0 640.0,404.002 640.998,405.0 641.0,405.002 641.998,406.0 641.998,407.0 642.0,407.002 642.998,408.0 643.0,408.002 643.998,409.0 643.998,410.0 644.0,410.002 644.998,411.0 645.0,411.002 645.998,412.0 646.0,412.002 646.998,413.0 647.0,413.002 647.002,413.0 647.002,412.0 648.0,411.002 648.002,411.0 649.0,410.002 649.002,410.0 649.002,409.0 650.0,408.002 650.002,408.0 651.0,407.002 651.002,407.0 652.0,406.002 652.002,406.0 652.002,405.0 653.0,404.002 653.002,404.0 654.0,403.002 654.002,403.0 654.002,402.0 655.0,401.002 655.002,401.0 656.0,400.002 656.002,400.0 656.002,399.0 657.0,398.002 657.002,398.0 658.0,397.002 658.002,397.0 658.002,396.0 659.0,395.002 659.002,395.0 660.0,394.002 660.002,394.0 661.0,393.002 661.002,393.0 661.002,392.0 662.0,391.002 662.002,391.0 663.0,390.002 663.002,390.0 663.002,389.0 664.0,388.002 664.002,388.0 665.0,387.002 665.002,387.0 665.002,386.0 666.0,385.002 666.002,385.0 667.0,384.002 667.002,384.0 667.002,383.0 668.0,382.002 668.002,382.0 669.0,381.002 669.002,381.0 670.0,380.002 670.002,380.0 670.002,379.0 671.0,378.002 671.002,378.0 672.0,377.002 672.002,377.0 672.002,376.0 673.0,375.002 673.002,375.0 674.0,374.002 674.002,374.0 674.002,373.0 675.0,372.002 675.002,372.0 676.0,371.002 676.002,371.0 676.002,370.0 677.0,369.002 677.002,369.0 678.0,368.002 678.002,368.0 679.0,367.002 679.002,367.0 679.002,366.0 680.0,365.002 680.002,365.0 681.0,364.002 681.002,364.0 681.002,363.0 682.0,362.002 682.002,362.0 683.0,361.002 683.002,361.0 683.002,360.0 684.0,359.002 684.002,359.0 685.0,358.002 685.002,358.0 686.0,357.002 686.002,357.0 686.002,356.0 687.0,355.002 687.002,355.0 688.0,354.002 688.002,354.0 688.002,353.0 689.0,352.002 689.002,352.0 690.0,351.002 690.002,351.0 690.002,350.0 691.0,349.002 691.002,349.0 692.0,348.002 692.002,348.0 692.002,347.0 693.0,346.002 693.002,346.0 694.0,345.002 694.002,345.0 695.0,344.002 695.002,344.0 695.002,343.0 696.0,342.002 696.002,342.0 697.0,341.002 697.002,341.0 697.002,340.0 698.0,339.002 698.002,339.0 699.0,338.002 699.002,338.0 699.002,337.0 700.0,336.002 700.002,336.0 701.0,335.002 701.002,335.0 701.002,334.0 702.0,333.002 702.002,333.0 703.0,332.002 703.002,332.0 704.0,331.002 704.002,331.0 704.002,330.0 705.0,329.002 705.002,329.0 706.0,328.002 706.002,328.0 706.002,327.0 707.0,326.002 707.002,326.0 708.0,325.002 708.002,325.0 708.002,324.0 709.0,323.002 709.002,323.0 710.0,322.002 710.002,322.0 710.002,321.0 711.0,320.002 711.002,320.0 712.0,319.002 712.002,319.0 713.0,318.002 713.002,318.0 713.002,317.0 714.0,316.002 714.002,316.0 715.0,315.002 715.002,315.0 715.002,314.0 716.0,313.002 716.002,313.0 717.0,312.002 717.002,312.0 717.002,311.0 718.0,310.002 718.002,310.0 719.0,309.002 719.002,309.0 720.0,308.002 720.002,308.0 720.002,307.0 721.0,306.002 721.002,306.0 722.0,305.002 722.002,305.0 722.002,304.0 723.0,303.002 723.002,303.0 724.0,302.002 724.002,302.0 724.002,301.0 725.0,300.002 725.002,300.0 726.0,299.002 726.002,299.0 726.002,298.0 727.0,297.002 727.002,297.0 728.0,296.002 728.002,296.0 729.0,295.002 729.002,295.0 729.002,294.0 730.0,293.002 730.002,293.0 731.0,292.002 731.002,292.0 731.002,291.0 732.0,290.002 732.002,290.0 733.0,289.002 733.002,289.0 733.002,288.0 734.0,287.002 734.002,287.0 735.0,286.002 735.002,286.0 735.002,285.0 736.0,284.002 736.002,284.0 737.0,283.002 737.002,283.0 738.0,282.002 738.002,282.0 738.002,281.0 739.0,280.002 739.002,280.0 740.0,279.002 740.002,279.0 740.002,278.0 741.0,277.002 741.002,277.0 742.0,276.002 742.002,276.0 742.002,275.0 743.0,274.002 743.002,274.0 744.0,273.002 744.002,273.0 744.002,272.0 745.0,271.002 745.002,271.0 746.0,270.002 746.002,270.0 747.0,269.002 747.002,269.0 747.002,268.0 748.0,267.002 748.002,267.0 749.0,266.002 749.002,266.0 749.002,265.0 750.0,264.002 750.002,264.0 751.0,263.002 751.002,263.0 751.002,262.0 752.0,261.002 752.002,261.0 753.0,260.002 753.002,260.0 754.0,259.002 754.002,259.0 754.002,258.0 755.0,257.002 755.002,257.0 756.0,256.002 756.002,256.0 756.002,255.0 757.0,254.002 757.002,254.0 758.0,253.002 758.002,253.0 758.002,252.0 759.0,251.002 759.002,251.0 760.0,250.002 760.002,250.0 760.002,249.0 761.0,248.002 761.002,248.0 762.0,247.002 762.002,247.0 763.0,246.002 763.002,246.0 763.002,245.0 764.0,244.002 764.002,244.0 765.0,243.002 765.002,243.0 765.002,242.0 766.0,241.002 766.002,241.0 767.0,240.002 767.002,240.0 767.002,239.0 768.0,238.002 768.002,238.0 769.0,237.002 769.002,237.0 769.002,236.0 770.0,235.002 770.002,235.0 771.0,234.002 771.002,234.0 772.0,233.002 772.002,233.0 772.002,232.0 773.0,231.002 773.002,231.0 774.0,230.002 774.002,230.0 774.002,229.0 775.0,228.002 775.002,228.0 776.0,227.002 776.002,227.0 776.002,226.0 777.0,225.002 777.002,225.0 778.0,224.002 778.002,224.0 778.002,223.0 779.0,222.002 779.002,222.0 780.0,221.002 780.002,221.0 781.0,220.002 781.002,220.0 781.002,219.0 782.0,218.002 782.002,218.0 783.0,217.002 783.002,217.0 783.002,216.0 784.0,215.002 784.002,215.0 785.0,214.002 785.002,214.0 785.002,213.0 786.0,212.002 786.002,212.0 787.0,211.002 787.002,211.0 788.0,210.002 788.002,210.0 788.002,209.0 789.0,208.002 789.002,208.0 790.0,207.002 790.002,207.0 790.002,206.0 791.0,205.002 791.002,205.0 792.0,204.002 792.002,204.0 792.002,203.0 793.0,202.002 793.002,202.0 794.0,201.002 794.002,201.0 794.002,200.0 795.0,199.002 795.002,199.0 796.0,198.002 796.002,198.0 797.0,197.002 797.002,197.0 797.002,196.0 798.0,195.002 798.002,195.0 799.0,194.002 799.002,194.0 799.002,193.0 800.0,192.002 800.002,192.0 801.0,191.002 801.002,191.0 801.002,190.0 802.0,189.002 802.002,189.0 803.0,188.002 803.002,188.0 803.002,187.0 804.0,186.002 804.002,186.0 805.0,185.002 805.002,185.0 806.0,184.002 806.002,184.0 806.002,183.0 807.0,182.002 807.002,182.0 808.0,181.002 808.002,181.0 808.002,180.0 809.0,179.002 809.002,179.0 810.0,178.002 810.002,178.0 810.002,177.0 811.0,176.002 811.002,176.0 812.0,175.002 812.002,175.0 812.002,174.0 813.0,173.002 813.002,173.0 814.0,172.002 814.002,172.0 815.0,171.002 815.002,171.0 815.002,170.0 816.0,169.002 816.002,169.0 817.0,168.002 817.002,168.0 817.002,167.0 818.0,166.002 818.002,166.0 819.0,165.002 819.002,165.0 819.002,164.0 820.0,163.002 820.002,163.0 821.0,162.002 821.002,162.0 822.0,161.002 822.002,161.0 822.002,160.0 823.0,159.002 823.002,159.0 824.0,158.002 824.002,158.0 824.002,157.0 825.0,156.002 825.002,156.0 826.0,155.002 826.002,155.0 826.002,154.0 827.0,153.002 827.002,153.0 828.0,152.002 828.002,152.0 828.002,151.0 829.0,150.002 829.002,150.0 830.0,149.002 830.002,149.0 831.0,148.002 831.002,148.0 831.002,147.0 832.0,146.002 832.002,146.0 833.0,145.002 833.002,145.0 833.002,144.0 834.0,143.002 834.002,143.0 835.0,142.002 835.002,142.0 835.002,141.0 836.0,140.002 836.002,140.0 837.0,139.002 837.002,139.0 837.002,138.0 838.0,137.002 838.002,137.0 839.0,136.002 839.002,136.0 840.0,135.002 840.002,135.0 840.002,134.0 841.0,133.002 841.002,133.0 842.0,132.002 842.002,132.0 842.002,131.0 843.0,130.002 843.002,130.0 844.0,129.002 844.002,129.0 844.002,128.0 845.0,127.002 845.002,127.0 846.0,126.002 846.002,126.0 846.002,125.0 847.0,124.002 847.002,124.0 848.0,123.002 848.002,123.0 849.0,122.002 849.002,122.0 849.002,121.0 850.0,120.002 850.002,120.0 851.0,119.002 851.002,119.0 851.002,118.0 852.0,117.002 852.002,117.0 853.0,116.002 853.002,116.0 854.0,115.002 855.0,115.002 856.0,115.002 857.0,115.002 858.0,115.002 859.0,115.002 860.0,115.002 861.0,115.002 862.0,115.002 863.0,115.002 864.0,115.002 865.0,115.002 866.0,115.002 867.0,115.002 868.0,115.002 868.998,116.0 868.998,117.0 868.998,118.0 868.998,119.0 868.998,120.0 868.998,121.0 868.998,122.0 868.998,123.0 868.998,124.0 868.998,125.0 868.998,126.0 868.998,127.0 868.998,128.0 868.998,129.0 868.998,130.0 868.998,131.0 868.998,132.0 868.998,133.0 868.998,134.0 868.998,135.0 868.998,136.0 868.998,137.0 868.998,138.0 868.998,139.0 868.998,140.0 868.998,141.0 868.998,142.0 868.998,143.0 868.998,144.0 868.998,145.0 868.998,146.0 868.998,147.0 868.998,148.0 868.998,149.0 868.998,150.0 868.998,151.0 868.998,152.0 868.998,153.0 868.998,154.0 868.998,155.0 868.998,156.0 868.998,157.0 868.998,158.0 868.998,159.0 868.998,160.0 868.998,161.0 868.998,162.0 868.998,163.0 868.998,164.0 868.998,165.0 868.998,166.0 868.998,167.0 868.998,168.0 868.998,169.0 868.998,170.0 868.998,171.0 868.998,172.0 868.998,173.0 868.998,174.0 868.998,175.0 868.998,176.0 868.998,177.0 868.998,178.0 868.998,179.0 868.998,180.0 868.998,181.0 868.998,182.0 868.998,183.0 868.998,184.0 868.998,185.0 868.998,186.0 868.998,187.0 868.998,188.0 868.998,189.0 868.998,190.0 868.998,191.0 868.998,192.0 868.998,193.0 868.998,194.0 868.998,195.0 868.998,196.0 868.998,197.0 868.998,198.0 868.998,199.0 868.998,200.0 868.998,201.0 868.998,202.0 868.998,203.0 868.998,204.0 868.998,205.0 868.998,206.0 868.998,207.0 868.998,208.0 868.998,209.0 868.998,210.0 868.998,211.0 868.998,212.0 868.998,213.0 868.998,214.0 868.998,215.0 868.998,216.0 868.998,217.0 868.998,218.0 868.998,219.0 868.998,220.0 868.998,221.0 868.998,222.0 868.998,223.0 868.998,224.0 868.998,225.0 868.998,226.0 868.998,227.0 868.998,228.0 868.998,229.0 868.998,230.0 868.998,231.0 868.998,232.0 868.998,233.0 868.998,234.0 868.998,235.0 868.998,236.0 868.998,237.0 868.998,238.0 868.998,239.0 868.998,240.0 868.998,241.0 868.998,242.0 868.998,243.0 868.998,244.0 868.998,245.0 868.998,246.0 868.998,247.0 868.998,248.0 868.998,249.0 868.998,250.0 868.998,251.0 868.998,252.0 868.998,253.0 868.998,254.0 868.998,255.0 868.998,256.0 868.998,257.0 868.998,258.0 868.998,259.0 868.998,260.0 868.998,261.0 868.998,262.0 868.998,263.0 868.998,264.0 868.998,265.0 868.998,266.0 868.998,267.0 868.998,268.0 868.998,269.0 868.998,270.0 868.998,271.0 868.998,272.0 868.998,273.0 868.998,274.0 868.998,275.0 868.998,276.0 868.998,277.0 868.998,278.0 868.998,279.0 868.998,280.0 868.998,281.0 868.998,282.0 868.998,283.0 868.998,284.0 868.998,285.0 868.998,286.0 868.998,287.0 868.998,288.0 868.998,289.0 868.998,290.0 868.998,291.0 868.998,292.0 868.998,293.0 868.998,294.0 868.998,295.0 868.998,296.0 868.998,297.0 868.998,298.0 868.998,299.0 868.998,300.0 868.998,301.0 868.998,302.0 868.998,303.0 868.998,304.0 868.998,305.0 868.998,306.0 868.998,307.0 868.998,308.0 868.998,309.0 868.998,310.0 868.998,311.0 868.998,312.0 868.998,313.0 868.998,314.0 868.998,315.0 868.998,316.0 868.998,317.0 868.998,318.0 868.998,319.0 868.998,320.0 868.998,321.0 868.998,322.0 868.998,323.0 868.998,324.0 868.998,325.0 868.998,326.0 868.998,327.0 868.998,328.0 868.998,329.0 868.998,330.0 868.998,331.0 868.998,332.0 868.998,333.0 868.998,334.0 868.998,335.0 868.998,336.0 868.998,337.0 868.998,338.0 868.998,339.0 868.998,340.0 868.998,341.0 868.998,342.0 868.998,343.0 868.998,344.0 868.998,345.0 868.998,346.0 868.998,347.0 868.998,348.0 868.998,349.0 868.998,350.0 868.998,351.0 868.998,352.0 868.998,353.0 868.998,354.0 868.998,355.0 868.998,356.0 868.998,357.0 868.998,358.0 868.998,359.0 868.998,360.0 868.998,361.0 868.998,362.0 868.998,363.0 868.998,364.0 868.998,365.0 868.998,366.0 868.998,367.0 868.998,368.0 868.998,369.0 868.998,370.0 868.998,371.0 868.998,372.0 868.998,373.0 868.998,374.0 868.998,375.0 868.998,376.0 868.998,377.0 868.998,378.0 868.998,379.0 868.998,380.0 868.998,381.0 868.998,382.0 868.998,383.0 868.998,384.0 868.998,385.0 868.998,386.0 868.998,387.0 868.998,388.0 868.998,389.0 868.998,390.0 868.998,391.0 868.998,392.0 868.998,393.0 868.998,394.0 868.998,395.0 868.998,396.0 868.998,397.0 868.998,398.0 868.998,399.0 868.998,400.0 868.998,401.0 868.998,402.0 868.998,403.0 868.998,404.0 868.998,405.0 868.998,406.0 868.998,407.0 868.998,408.0 868.998,409.0 868.998,410.0 868.998,411.0 868.998,412.0 868.998,413.0 868.998,414.0 868.998,415.0 868.998,416.0 868.998,417.0 868.998,418.0 868.998,419.0 868.998,420.0 868.998,421.0 868.998,422.0 868.998,423.0 868.998,424.0 868.998,425.0 868.998,426.0 868.998,427.0 868.998,428.0 868.998,429.0 868.998,430.0 868.998,431.0 868.998,432.0 868.998,433.0 868.998,434.0 868.998,435.0 868.998,436.0 868.998,437.0 868.998,438.0 868.998,439.0 868.998,440.0 868.998,441.0 868.998,442.0 868.998,443.0 868.998,444.0 868.998,445.0 868.998,446.0 868.998,447.0 868.998,448.0 868.998,449.0 868.998,450.0 868.998,451.0 868.998,452.0 868.998,453.0 868.998,454.0 868.998,455.0 868.998,456.0 868.998,457.0 868.998,458.0 868.998,459.0 868.998,460.0 868.998,461.0 868.998,462.0 868.998,463.0 868.998,464.0 868.998,465.0 868.998,466.0 868.998,467.0 868.998,468.0 868.998,469.0 868.998,470.0 868.998,471.0 868.998,472.0 868.998,473.0 868.998,474.0 868.998,475.0 868.998,476.0 868.998,477.0 868.998,478.0 868.998,479.0 868.998,480.0 868.998,481.0 868.998,482.0 868.998,483.0 868.998,484.0 868.998,485.0 868.998,486.0 868.998,487.0 868.998,488.0 868.998,489.0 868.998,490.0 868.998,491.0 868.998,492.0 868.998,493.0 868.998,494.0 868.998,495.0 868.998,496.0 868.998,497.0 868.998,498.0 868.998,499.0 868.998,500.0 868.998,501.0 868.998,502.0 868.998,503.0 868.998,504.0 868.998,505.0 868.998,506.0 868.998,507.0 868.998,508.0 868.998,509.0 868.998,510.0 868.998,511.0 868.998,512.0 868.998,513.0 868.998,514.0 868.998,515.0 868.998,516.0 868.998,517.0 868.998,518.0 868.998,519.0 868.998,520.0 868.998,521.0 868.998,522.0 868.998,523.0 868.998,524.0 868.998,525.0 868.998,526.0 868.998,527.0 868.998,528.0 868.998,529.0 868.998,530.0 868.998,531.0 868.998,532.0 868.998,533.0 868.998,534.0 868.998,535.0 868.998,536.0 868.998,537.0 868.998,538.0 868.998,539.0 868.998,540.0 868.998,541.0 868.998,542.0 868.998,543.0 868.998,544.0 868.998,545.0 868.998,546.0 868.998,547.0 868.998,548.0 868.998,549.0 868.998,550.0 868.998,551.0 868.998,552.0 868.998,553.0 868.998,554.0 868.998,555.0 868.998,556.0 868.998,557.0 868.998,558.0 868.998,559.0 868.998,560.0 868.998,561.0 868.998,562.0 868.998,563.0 868.998,564.0 868.998,565.0 868.998,566.0 868.998,567.0 868.998,568.0 868.998,569.0 868.998,570.0 868.998,571.0 868.998,572.0 868.998,573.0 868.998,574.0 868.998,575.0 868.998,576.0 868.998,577.0 868.998,578.0 868.998,579.0 868.998,580.0 868.998,581.0 868.998,582.0 868.998,583.0 868.998,584.0 868.998,585.0 868.998,586.0 868.998,587.0 868.998,588.0 868.998,589.0 868.998,590.0 868.998,591.0 868.998,592.0 868.998,593.0 868.998,594.0 868.998,595.0 868.998,596.0 868.998,597.0 868.998,598.0 868.998,599.0 868.998,600.0 868.998,601.0 868.998,602.0 868.0,602.998" /></svg>