<svg xmlns="http://www.w3.org/2000/svg" viewBox="0 0 90 75" width="100%" height="auto">
  <g>
    <path d="M75.099,61.775c-4.661,0-8.453-3.792-8.453-8.453s3.792-8.453,8.453-8.453s8.453,3.792,8.453,8.453S79.76,61.775,75.099,61.775z M75.099,47.869c-3.007,0-5.453,2.446-5.453,5.453s2.446,5.453,5.453,5.453s5.453-2.446,5.453-5.453S78.105,47.869,75.099,47.869z"/>
    <path d="M17.819,61.775c-4.661,0-8.453-3.792-8.453-8.453s3.792-8.453,8.453-8.453c4.661,0,8.453,3.792,8.453,8.453S22.48,61.775,17.819,61.775z M17.819,47.869c-3.006,0-5.453,2.446-5.453,5.453s2.446,5.453,5.453,5.453c3.007,0,5.453-2.446,5.453-5.453S20.826,47.869,17.819,47.869z"/>
    <path d="M75.1,56.319c-0.79,0-1.56-0.319-2.12-0.88c-0.14-0.13-0.27-0.29-0.38-0.449c-0.1-0.16-0.2-0.341-0.27-0.521c-0.08-0.18-0.141-0.37-0.17-0.56c-0.04-0.2-0.061-0.391-0.061-0.591c0-0.189,0.021-0.39,0.061-0.579c0.029-0.2,0.09-0.381,0.17-0.57c0.069-0.18,0.17-0.351,0.27-0.51c0.11-0.17,0.24-0.32,0.38-0.46c0.13-0.141,0.29-0.261,0.45-0.37c0.17-0.11,0.34-0.2,0.521-0.28c0.18-0.07,0.369-0.13,0.56-0.17c0.39-0.08,0.79-0.08,1.18,0c0.19,0.04,0.37,0.1,0.561,0.17c0.18,0.08,0.35,0.17,0.51,0.28c0.17,0.109,0.32,0.229,0.46,0.37c0.14,0.14,0.26,0.29,0.37,0.46c0.11,0.159,0.2,0.33,0.28,0.51c0.069,0.189,0.13,0.37,0.17,0.57c0.04,0.189,0.06,0.39,0.06,0.579c0,0.2-0.02,0.391-0.06,0.591c-0.04,0.189-0.101,0.38-0.17,0.56c-0.08,0.18-0.17,0.35-0.28,0.521c-0.11,0.159-0.23,0.319-0.37,0.449c-0.14,0.141-0.29,0.271-0.46,0.38c-0.16,0.101-0.33,0.2-0.51,0.271c-0.19,0.08-0.37,0.14-0.561,0.17C75.49,56.3,75.29,56.319,75.1,56.319z"/>
    <path d="M17.82,56.319c-0.2,0-0.39-0.02-0.59-0.06c-0.19-0.04-0.38-0.09-0.56-0.17c-0.18-0.07-0.35-0.17-0.52-0.271c-0.16-0.109-0.31-0.239-0.45-0.38c-0.56-0.56-0.88-1.33-0.88-2.12c0-0.189,0.02-0.39,0.06-0.579c0.04-0.19,0.09-0.381,0.17-0.561c0.07-0.189,0.17-0.36,0.27-0.52c0.11-0.17,0.24-0.32,0.38-0.46c0.14-0.141,0.29-0.261,0.45-0.37c0.17-0.11,0.34-0.2,0.52-0.28c0.18-0.07,0.37-0.13,0.56-0.17c0.39-0.08,0.79-0.08,1.17,0c0.2,0.04,0.38,0.1,0.57,0.17c0.18,0.08,0.35,0.17,0.51,0.28c0.17,0.109,0.32,0.229,0.46,0.37c0.14,0.14,0.26,0.29,0.37,0.46c0.11,0.159,0.2,0.33,0.28,0.52c0.07,0.18,0.13,0.37,0.17,0.561c0.04,0.189,0.06,0.39,0.06,0.579c0,0.79-0.32,1.57-0.88,2.12c-0.14,0.141-0.29,0.271-0.46,0.38c-0.16,0.101-0.33,0.2-0.51,0.271c-0.18,0.08-0.37,0.13-0.57,0.17C18.21,56.3,18.01,56.319,17.82,56.319z"/>
    <g>
      <path d="M79.759,40.867l-14.705-3.771l-7.009-4.067c-5.417-3.143-11.59-4.805-17.852-4.805h-7.28c-0.005,0-0.009,0-0.014,0h-3.284c-6.824,0-13.343,2.551-18.355,7.183c-0.719,0.665-1.654,1.03-2.634,1.03H6.388c-2.718,0-5.013,2.035-5.339,4.734l-1.013,8.413c-0.277,2.305,1.053,4.468,3.235,5.262l4.599,1.67c-0.324-1.008-0.504-2.08-0.504-3.195c0-5.764,4.689-10.453,10.453-10.453s10.453,4.689,10.453,10.453c0,1.581-0.363,3.075-0.994,4.42H65.64c-0.631-1.345-0.994-2.839-0.994-4.42c0-5.764,4.689-10.453,10.453-10.453s10.453,4.689,10.453,10.453c0,1.379-0.275,2.693-0.762,3.899l2.915-0.466c1.33-0.212,2.295-1.344,2.295-2.69C90,47.841,85.788,42.414,79.759,40.867z M26.937,39.164c-1.307,0-2.492-0.61-3.251-1.673c-0.76-1.063-0.953-2.382-0.529-3.618l0.656-1.916c1.883-0.467,3.825-0.732,5.803-0.732h2.299l3.366,7.939H26.937z M56.358,39.164H38.539l-3.366-7.939h5.02c5.734,0,11.386,1.521,16.346,4.399l4.582,2.658C59.595,38.856,58,39.164,56.358,39.164z"/>
    </g>
  </g>
</svg>
