<svg xmlns="http://www.w3.org/2000/svg" viewBox="0 0 90 75" width="100%" height="auto">
  <path d="M71.343,62.159c-4.758,0-8.628-3.87-8.628-8.627c0-4.758,3.87-8.628,8.628-8.628s8.628,3.87,8.628,8.628C79.971,58.289,76.101,62.159,71.343,62.159z M71.343,47.904c-3.104,0-5.628,2.524-5.628,5.628c0,3.103,2.524,5.627,5.628,5.627s5.628-2.524,5.628-5.627C76.971,50.429,74.446,47.904,71.343,47.904z"/>
  <path d="M17.62,62.159c-4.757,0-8.628-3.87-8.628-8.627c0-4.758,3.871-8.628,8.628-8.628s8.627,3.87,8.627,8.628C26.247,58.289,22.377,62.159,17.62,62.159z M17.62,47.904c-3.103,0-5.628,2.524-5.628,5.628c0,3.103,2.525,5.627,5.628,5.627s5.627-2.524,5.627-5.627C23.247,50.429,20.723,47.904,17.62,47.904z"/>
  <path d="M71.34,56.53c-0.19,0-0.39-0.021-0.58-0.061c-0.2-0.04-0.38-0.09-0.56-0.17c-0.19-0.07-0.36-0.17-0.521-0.27c-0.17-0.11-0.32-0.24-0.46-0.381c-0.56-0.55-0.88-1.33-0.88-2.119c0-0.79,0.32-1.561,0.88-2.12c1.12-1.11,3.12-1.12,4.24,0c0.56,0.56,0.88,1.33,0.88,2.12c0,0.789-0.32,1.56-0.88,2.119C72.899,56.21,72.13,56.53,71.34,56.53z"/>
  <path d="M17.62,56.53c-0.79,0-1.56-0.32-2.12-0.881c-0.14-0.13-0.26-0.29-0.37-0.449c-0.11-0.17-0.21-0.341-0.28-0.521c-0.08-0.18-0.13-0.37-0.17-0.56c-0.04-0.2-0.06-0.391-0.06-0.59c0-0.79,0.32-1.561,0.88-2.12c0.7-0.7,1.73-1.021,2.71-0.82c0.19,0.04,0.38,0.1,0.56,0.17c0.18,0.08,0.35,0.17,0.52,0.28c0.16,0.109,0.31,0.229,0.45,0.37c0.14,0.14,0.27,0.29,0.37,0.46c0.11,0.16,0.2,0.33,0.28,0.52c0.07,0.18,0.13,0.37,0.17,0.561c0.04,0.189,0.06,0.39,0.06,0.58c0,0.199-0.02,0.399-0.06,0.59c-0.04,0.189-0.1,0.38-0.17,0.56c-0.08,0.18-0.17,0.351-0.28,0.521c-0.11,0.159-0.23,0.319-0.37,0.449c-0.14,0.141-0.29,0.271-0.46,0.381c-0.16,0.1-0.33,0.199-0.51,0.27c-0.18,0.08-0.37,0.14-0.56,0.17C18.01,56.51,17.81,56.53,17.62,56.53z"/>
  <g>
    <path d="M84.18,42.13l-22.961-5.208l-12.063-7c-2.348-1.362-5.022-2.082-7.734-2.082h-23.53c-4.746,0-9.154,2.136-12.095,5.861l-3.368,4.266c-1.042,1.321-1.659,2.905-1.783,4.582l-0.631,8.508c-0.181,2.445,1.417,4.643,3.8,5.224l3.851,0.938c-0.428-1.151-0.673-2.389-0.673-3.687c0-5.86,4.768-10.628,10.628-10.628c5.86,0,10.627,4.768,10.627,10.628c0,1.607-0.369,3.125-1.01,4.492h34.488c-0.641-1.367-1.01-2.885-1.01-4.492c0-5.86,4.768-10.628,10.628-10.628s10.628,4.768,10.628,10.628c0,1.468-0.3,2.868-0.841,4.141l4.646-0.504C88.185,56.907,90,54.883,90,52.462v-3.043C90,45.905,87.606,42.908,84.18,42.13z M20.415,39.055c-1.031,0-1.96-0.485-2.551-1.33c-0.59-0.845-0.725-1.885-0.37-2.853l1.48-4.031h14.751l0.832,8.214H20.415z M51.181,39.055H37.572L36.74,30.84h4.68c2.185,0,4.338,0.58,6.229,1.676l9.593,5.566C55.288,38.723,53.257,39.055,51.181,39.055z"/>
  </g>
</svg>
