<?xml version="1.0" encoding="UTF-8"?>
<svg version="1.1" xmlns="http://www.w3.org/2000/svg" width="512" height="512">
<path d="M0 0 C16.90341409 13.78829865 26.74695334 31.27403 29.11914062 52.97021484 C30.20216309 71.81029322 24.87649331 91.31076063 12.23071289 105.60693359 C6.47492551 111.87485086 6.47492551 111.87485086 3.52884579 114.00661659 C-0.16484076 116.70539769 -0.16484076 116.70539769 -2.34391594 120.6048851 C-2.59231033 122.80046573 -2.62557459 124.90312504 -2.57983398 127.11230469 C-2.59599762 128.34256882 -2.59599762 128.34256882 -2.61248779 129.59768677 C-2.63977105 132.29310228 -2.61804666 134.98573024 -2.59570312 137.68115234 C-2.60509087 139.55589529 -2.6175503 141.43062516 -2.63294983 143.30532837 C-2.66515785 148.22765421 -2.65573989 153.1490478 -2.63757324 158.07141113 C-2.62444602 163.98367349 -2.66315798 169.89579751 -2.69315338 175.80796814 C-2.7328788 184.77923641 -2.7068657 193.74815775 -2.69335938 202.72021484 C24.69664062 202.72021484 52.08664063 202.72021484 80.30664062 202.72021484 C80.96664062 201.40021484 81.62664062 200.08021484 82.30664062 198.72021484 C86.84453272 192.73673386 92.34768472 187.28348861 98.30664062 182.72021484 C98.96664062 182.72021484 99.62664062 182.72021484 100.30664062 182.72021484 C100.30664062 161.60021484 100.30664062 140.48021484 100.30664062 118.72021484 C98.98664063 118.06021484 97.66664063 117.40021484 96.30664062 116.72021484 C82.28231904 106.08412222 71.54086191 90.60089157 68.58789062 73.02148438 C66.06495201 52.37806475 68.8023556 31.94221426 81.58642578 15.02685547 C93.29633412 0.67139113 109.47764514 -11.04109355 128.30664062 -13.27978516 C150.02701449 -14.73916078 170.2617808 -11.95223917 187.21533203 2.69946289 C201.68131867 15.90643281 211.69228751 32.35418072 212.61914062 52.27490234 C213.21514773 73.10708413 209.13990903 91.61140344 194.74414062 107.28271484 C189.89579062 112.36159561 189.89579062 112.36159561 187.53997803 113.79559326 C184.18364356 115.9936956 182.55243764 117.68549155 181.60951233 121.65489197 C181.29519933 125.41700519 181.1985484 129.14748708 181.20117188 132.91943359 C181.18372782 134.31941885 181.16496211 135.71938819 181.14494324 137.11933899 C181.11212811 140.05078369 181.10704533 142.98076677 181.11938477 145.91235352 C181.12888961 148.9026426 181.09434191 151.88692941 181.0168457 154.8762207 C179.73246033 171.79858552 179.73246033 171.79858552 184.93017578 187.04858398 C187.69850745 189.88470802 190.86151653 191.77308238 194.30664062 193.72021484 C196.56498183 195.93771288 198.3783805 198.20276412 200.30664062 200.72021484 C200.30664062 201.38021484 200.30664062 202.04021484 200.30664062 202.72021484 C209.01751821 202.65879081 217.72807403 202.58153324 226.4386282 202.48449993 C230.48404861 202.43992315 234.52937126 202.40063979 238.57495117 202.3737793 C242.48496206 202.34761871 246.39459415 202.30712819 250.30436897 202.25702858 C251.79011354 202.24044554 253.27592351 202.22887826 254.76174736 202.22260094 C266.39624946 202.32268531 266.39624946 202.32268531 277.30664062 198.72021484 C281.75591359 194.15971006 282.44187133 191.22020776 282.6105957 184.96655273 C282.63001724 184.27191925 282.64943878 183.57728577 282.66944885 182.86160278 C282.83856134 176.43280469 282.93505111 170.00234549 283.01051807 163.5718317 C283.0617996 159.2559921 283.1359968 154.94337309 283.2668457 150.62915039 C283.39306539 146.45082231 283.4589854 142.27539144 283.48410606 138.09527397 C283.50361253 136.51025457 283.54379763 134.92533715 283.60596657 133.34141731 C284.05045028 123.66406684 284.05045028 123.66406684 279.67172241 115.34542847 C276.75947981 112.50724026 273.57358022 110.13366345 270.30664062 107.72021484 C258.36185613 96.0706508 252.17495 78.58229555 251.92578125 62.1574707 C251.96669871 40.77298082 257.1713858 22.74887335 272.53320312 7.36865234 C288.31868404 -7.70537028 305.55236315 -13.83242135 327.30810547 -13.69750977 C347.8057157 -13.18897518 364.31489827 -4.93190473 378.30664062 9.72021484 C392.96330938 25.18274855 397.16174638 44.09206584 396.64648438 64.86083984 C395.72067464 85.4592828 385.64667444 101.01921849 371.11914062 114.79443359 C366.72665811 118.72021484 366.72665811 118.72021484 364.30664062 118.72021484 C364.31552307 119.70976669 364.32440552 120.69931854 364.33355713 121.71885681 C364.41520502 131.11711194 364.47487267 140.51529363 364.51388931 149.91382504 C364.53462358 154.7438904 364.56267695 159.57366586 364.60839844 164.40356445 C364.6523683 169.07853033 364.67588369 173.75322019 364.6861496 178.42837715 C364.69345044 180.19787494 364.70770219 181.96736037 364.72956085 183.7367382 C365.05410787 211.13713384 356.3511062 234.99730504 337.15039062 254.90380859 C319.26947966 272.87607298 296.08694371 282.98941902 270.73591423 283.06844044 C268.15777135 283.05990398 265.57999766 283.03685092 263.00195312 283.01318359 C261.1835058 283.00757385 259.36505387 283.00331029 257.54660034 283.00032043 C252.8086855 282.98898 248.07105576 282.95960863 243.33325195 282.9262085 C238.47936863 282.89527188 233.62543831 282.88176518 228.77148438 282.86669922 C219.2830793 282.83472628 209.79488386 282.78366419 200.30664062 282.72021484 C199.85526733 283.65269043 199.85526733 283.65269043 199.39477539 284.60400391 C197.02387912 289.21493702 193.18970197 293.36640845 188.99909973 296.37919617 C185.21938417 299.11624507 182.72073627 301.24374207 181.43515015 305.82754517 C181.06772964 309.60381692 180.97310178 313.32610394 181.00585938 317.11474609 C180.99214509 318.51187907 180.97621985 319.9089919 180.95820618 321.30607605 C180.93150529 324.22596709 180.93855632 327.14339339 180.96850586 330.06323242 C180.99608817 333.04008798 180.97538277 336.00989229 180.90698242 338.98608398 C179.69109472 355.83775219 179.69109472 355.83775219 184.91918945 371.015625 C187.69194472 373.85259935 190.88080385 375.73491344 194.30664062 377.72021484 C206.30599638 389.87777466 212.58472396 407.02932056 212.77490234 423.95385742 C212.76475098 424.99050537 212.75459961 426.02715332 212.74414062 427.09521484 C212.73278076 428.7342981 212.73278076 428.7342981 212.72119141 430.40649414 C212.37937987 447.19892159 206.46035879 462.07166848 195.30664062 474.72021484 C194.32244141 475.84556641 194.32244141 475.84556641 193.31835938 476.99365234 C181.2022294 489.97363802 163.47272938 498.3502877 145.66992188 499.05615234 C124.39375963 499.37722295 106.09262131 494.98900396 90.38354492 479.92016602 C75.4003443 464.95745174 68.11855204 448.11746582 67.86914062 426.90771484 C67.97803558 404.37683103 76.32918064 387.3888164 92.19335938 371.66552734 C97.56567677 366.72021484 97.56567677 366.72021484 100.30664062 366.72021484 C100.30664062 345.60021484 100.30664062 324.48021484 100.30664062 302.72021484 C98.98664063 302.06021484 97.66664063 301.40021484 96.30664062 300.72021484 C90.32315964 296.18232275 84.86991439 290.67917075 80.30664062 284.72021484 C80.30664062 284.06021484 80.30664062 283.40021484 80.30664062 282.72021484 C52.91664063 282.72021484 25.52664062 282.72021484 -2.69335938 282.72021484 C-2.77585937 296.35333984 -2.85835938 309.98646484 -2.94335938 324.03271484 C-3.0289209 330.46058472 -3.0289209 330.46058472 -3.11621094 337.01831055 C-3.10971664 340.900757 -3.10971664 340.900757 -3.08734131 344.78312683 C-3.08502997 346.49608842 -3.10608427 348.20918853 -3.14642334 349.92167664 C-3.65396004 360.78449419 -3.65396004 360.78449419 0.9197998 370.20321655 C3.80766772 373.03485984 7.04215748 375.33892772 10.30664062 377.72021484 C24.17996324 392.06282994 28.8451401 410.24561451 28.72436523 429.72167969 C28.21583065 450.21928992 19.9587602 466.72847249 5.30664062 480.72021484 C-10.15589308 495.3768836 -29.06521038 499.5753206 -49.83398438 499.06005859 C-70.58965428 498.1271822 -86.11256081 487.93775835 -99.96679688 473.32177734 C-113.79771818 457.37117461 -116.81842444 438.00359425 -115.90478516 417.54003906 C-114.45825942 398.24746139 -103.65348599 382.41923758 -89.69335938 369.72021484 C-86.01988999 366.72021484 -86.01988999 366.72021484 -83.69335938 366.72021484 C-83.69335938 284.88021484 -83.69335938 203.04021484 -83.69335938 118.72021484 C-85.01335937 118.06021484 -86.33335938 117.40021484 -87.69335938 116.72021484 C-101.71768096 106.08412222 -112.45913809 90.60089157 -115.41210938 73.02148438 C-117.93504799 52.37806475 -115.1976444 31.94221426 -102.41357422 15.02685547 C-77.61421638 -15.37528662 -32.51139975 -24.57104347 0 0 Z M-76.15429688 35.56787109 C-82.87747405 44.9700808 -83.67827098 55.5230354 -82.69335938 66.72021484 C-80.46940949 77.62560764 -73.55116381 86.24211906 -64.69335938 92.72021484 C-62.65099126 94.04530025 -60.59433168 95.31984896 -58.49023438 96.54443359 C-54.36162038 99.24598319 -53.26418293 101.43167031 -52.10704005 106.32451928 C-51.33471162 110.79720535 -51.41577731 115.26853484 -51.43266296 119.79600525 C-51.42883742 120.89088259 -51.42501187 121.98575993 -51.4210704 123.11381537 C-51.41077616 126.77164557 -51.41472579 130.42931776 -51.41870117 134.0871582 C-51.41435276 136.71409754 -51.40916917 139.34103561 -51.4032135 141.9679718 C-51.39048624 148.35608291 -51.38867031 154.74415195 -51.39101376 161.13227361 C-51.39279915 166.3260418 -51.39104256 171.51979725 -51.38678932 176.71356392 C-51.38589654 177.8237355 -51.38589654 177.8237355 -51.38498572 178.95633479 C-51.38377393 180.46002694 -51.38255979 181.96371908 -51.38134334 183.46741123 C-51.37047558 197.55800751 -51.37262678 211.64857984 -51.37872819 225.73917747 C-51.3838977 238.6204062 -51.37263965 251.50155932 -51.35362997 264.38277309 C-51.33424347 277.62117225 -51.32599693 290.85953565 -51.32975322 304.09794909 C-51.3316639 311.52554442 -51.32919062 318.95307538 -51.31503868 326.3806591 C-51.3018658 333.3648261 -51.30439591 340.34883934 -51.31744957 347.33300591 C-51.3198168 349.89481151 -51.31707545 352.45662775 -51.30882645 355.01842117 C-51.29837026 358.51827022 -51.30645126 362.01760999 -51.31913757 365.5174408 C-51.31176329 366.52854241 -51.304389 367.53964402 -51.29679126 368.58138508 C-51.35306352 375.97240662 -51.97529156 382.93743112 -57.31835938 388.40771484 C-59.09828387 389.70741219 -60.93285145 390.86967564 -62.80273438 392.03662109 C-72.52584973 398.18900616 -78.72424363 405.53200531 -82.27148438 416.50927734 C-84.36869791 427.50022974 -83.11361556 438.60887005 -77.18554688 448.14599609 C-70.80445002 456.97565337 -62.47363351 463.46263575 -51.69335938 465.72021484 C-39.38000722 466.92545718 -28.38791615 465.4658668 -18.53710938 457.41162109 C-10.66893317 450.19356961 -5.19444641 442.08865857 -4.45507812 431.21630859 C-4.11915301 418.95352871 -6.11885868 409.02572136 -14.69335938 399.72021484 C-19.00073049 395.43965309 -23.46838067 392.00289982 -28.83398438 389.15380859 C-32.36922105 386.42811141 -34.39869923 383.6659141 -35.06648254 379.25640869 C-35.21433001 376.17361759 -35.23364626 373.11317147 -35.2109375 370.02685547 C-35.21794678 368.85543503 -35.22495605 367.68401459 -35.23217773 366.47709656 C-35.24976396 362.60997726 -35.23813178 358.74359142 -35.22460938 354.87646484 C-35.22550044 352.18655812 -35.23118037 349.49666441 -35.23620605 346.8067627 C-35.24347413 341.1712247 -35.23391705 335.5358967 -35.21484375 329.90039062 C-35.19307635 323.39391517 -35.20012833 316.88794115 -35.22214937 310.38147783 C-35.24032755 304.78551216 -35.24284998 299.18969705 -35.2323947 293.59371138 C-35.22617283 290.25564172 -35.22686817 286.91799616 -35.23854065 283.57991028 C-35.24870063 279.85745357 -35.23321066 276.13595926 -35.2109375 272.41357422 C-35.21903442 271.31313278 -35.22713135 270.21269135 -35.23547363 269.0789032 C-35.16988987 263.1615208 -34.90618771 259.25917144 -30.69335938 254.72021484 C-26.03075446 250.46378355 -20.06613681 251.29189067 -14.11352539 251.31616211 C-12.35661377 251.30586723 -12.35661377 251.30586723 -10.56420898 251.29536438 C-6.69177128 251.27706045 -2.81973732 251.28093919 1.05273438 251.28662109 C3.06384368 251.28414546 5.07494304 251.27979856 7.08604866 251.27526802 C13.40775211 251.26123066 19.72932039 251.26277732 26.05102539 251.27416992 C32.56484863 251.28564962 39.07826006 251.27157661 45.59202904 251.24477345 C51.1922067 251.22259549 56.7922553 251.21598377 62.39247376 251.22184986 C65.73393427 251.22521585 69.07491999 251.22111573 72.41637993 251.20559883 C76.14370266 251.19072918 79.87011786 251.20133787 83.59741211 251.21850586 C85.25043083 251.20400391 85.25043083 251.20400391 86.93684387 251.18920898 C93.03946443 251.24809619 96.67192737 251.6188895 101.30664062 255.72021484 C102.95898438 257.79833984 102.95898438 257.79833984 104.24414062 259.97021484 C109.47205344 268.21839854 115.07720857 273.53372397 123.30664062 278.72021484 C127.74998916 281.59248787 130.10615489 284.50534685 131.70440674 289.64331055 C133.11768847 296.86398136 132.73339218 304.32868422 132.70507812 311.65771484 C132.70710223 313.50659296 132.71001647 315.3554703 132.71377563 317.2043457 C132.71818313 321.06746061 132.71181885 324.93036654 132.69775391 328.79345703 C132.680663 333.7260146 132.69051265 338.65808232 132.7084713 343.59062195 C132.7193518 347.40494425 132.71584328 351.21915189 132.70808792 355.03347778 C132.70609769 356.85141051 132.70850346 358.66935392 132.71552658 360.48727417 C132.78090514 382.16322975 132.78090514 382.16322975 126.68164062 388.40771484 C124.90171613 389.70741219 123.06714855 390.86967564 121.19726562 392.03662109 C111.47415027 398.18900616 105.27575637 405.53200531 101.72851562 416.50927734 C99.63130209 427.50022974 100.88638444 438.60887005 106.81445312 448.14599609 C113.19554998 456.97565337 121.52636649 463.46263575 132.30664062 465.72021484 C144.61999278 466.92545718 155.61208385 465.4658668 165.46289062 457.41162109 C173.33106683 450.19356961 178.80555359 442.08865857 179.54492188 431.21630859 C179.88084699 418.95352871 177.88114132 409.02572136 169.30664062 399.72021484 C164.99926951 395.43965309 160.53161933 392.00289982 155.16601562 389.15380859 C151.97517534 386.69364392 149.67476486 383.72544038 148.93351746 379.6877594 C148.78746365 377.28555042 148.76608302 374.91195699 148.7890625 372.50537109 C148.78205322 371.59729706 148.77504395 370.68922302 148.76782227 369.75363159 C148.75027031 366.76301154 148.76185521 363.7733439 148.77539062 360.78271484 C148.77269491 358.69815897 148.76881183 356.61360432 148.76379395 354.52905273 C148.75790268 350.16459151 148.76645007 345.8004582 148.78515625 341.43603516 C148.80794535 335.8472127 148.79482031 330.25915865 148.77086639 324.67036438 C148.75639851 320.36716951 148.761019 316.06415621 148.77137756 311.76095581 C148.7740421 309.70050973 148.77078472 307.64004706 148.76145935 305.57962036 C148.75127765 302.69765684 148.7668178 299.81693021 148.7890625 296.93505859 C148.78096558 296.0870871 148.77286865 295.2391156 148.76452637 294.365448 C148.84086824 289.01504156 149.77335041 285.97751803 153.30664062 281.72021484 C155.38476563 280.06787109 155.38476563 280.06787109 157.55664062 278.78271484 C164.91325307 274.11990301 170.28124116 269.26004299 174.93554688 261.86865234 C177.66409744 257.59314577 180.39539896 253.51518901 185.30664062 251.72021484 C187.9831095 251.5214773 190.55723068 251.42958985 193.23364258 251.43310547 C194.02943222 251.42627243 194.82522186 251.41943939 195.64512634 251.41239929 C197.3725687 251.39882037 199.10005116 251.38976125 200.82753944 251.38468933 C203.57512307 251.37637344 206.32237854 251.3558363 209.06987 251.33215332 C214.91957767 251.28393358 220.76931912 251.25107986 226.61914062 251.22021484 C233.36484477 251.18436386 240.11039214 251.14198776 246.85594749 251.08427429 C249.53820922 251.06447572 252.22034531 251.05593673 254.90266418 251.04797363 C277.81582642 250.90618773 296.73471958 247.81989771 313.83789062 231.27099609 C328.86015886 215.32235466 332.06254138 198.11423721 331.90820312 177.00537109 C331.91371889 175.05438862 331.92185744 173.103412 331.9324646 171.15245056 C331.95514147 166.06455017 331.95120782 160.97708306 331.93865967 155.88916016 C331.92021139 147.72443497 331.93044946 139.55995803 331.9645195 131.39529228 C331.97057987 128.56297672 331.95742807 125.73121307 331.9425354 122.89894104 C331.94548475 121.15194561 331.94914023 119.40495118 331.95361328 117.65795898 C331.94432297 116.88323746 331.93503265 116.10851593 331.92546082 115.31031799 C331.97448654 108.49857633 333.06005755 102.02028799 337.93164062 97.03271484 C339.71156512 95.7330175 341.5461327 94.57075405 343.41601562 93.40380859 C353.13913098 87.25142353 359.33752488 79.90842438 362.88476562 68.93115234 C364.96375156 58.03572607 363.70277039 47.05576865 357.98632812 37.51708984 C351.81620561 28.68336253 343.84098626 22.39522845 333.30664062 19.72021484 C321.28230294 18.11348955 310.40971138 19.73169757 300.49414062 27.03271484 C291.86822856 34.32091862 285.8248985 42.43653376 284.82226562 54.07568359 C284.24439015 66.16494093 286.52472883 75.56429443 294.43164062 85.03271484 C298.44569699 89.22831145 302.77607728 92.21748881 307.82617188 95.05224609 C311.21459636 97.33076146 313.4828856 100.07270479 315.30664062 103.72021484 C315.42091692 106.58575961 315.4745059 109.42754314 315.48364258 112.29394531 C315.49021378 113.18204391 315.49678497 114.07014252 315.5035553 114.9851532 C315.52332497 117.93590375 315.5349641 120.88660312 315.54492188 123.83740234 C315.5489974 124.84661869 315.55307293 125.85583504 315.55727196 126.8956337 C315.57815644 132.24568732 315.59244324 137.59571518 315.60180664 142.94580078 C315.61282677 148.45111143 315.6471688 153.95601294 315.68697834 159.46117973 C315.71324534 163.7096731 315.72150781 167.95807093 315.72508812 172.20663834 C315.72993449 174.23424136 315.74149228 176.26184067 315.76012611 178.28936386 C315.90495209 195.10406216 314.24717186 208.20690207 302.20507812 220.94287109 C292.67599377 229.95004447 282.02968657 234.02480911 269.07006836 234.01074219 C268.17160187 234.01745941 267.27313538 234.02417664 266.34744263 234.03109741 C263.39498276 234.05000455 260.4427509 234.05399728 257.49023438 234.05615234 C255.42952889 234.06258305 253.36882431 234.06931161 251.30812073 234.07632446 C246.9968148 234.08827733 242.6855889 234.0920071 238.37426758 234.09082031 C232.85390923 234.09061671 227.33406331 234.11797016 221.81382656 234.15236473 C217.56128078 234.17460963 213.30885907 234.17865866 209.05626106 234.17760086 C207.02091765 234.17995847 204.98557091 234.18879097 202.95028496 234.20426559 C200.1044304 234.22388575 197.25969129 234.21810413 194.41381836 234.20605469 C193.57676865 234.2172937 192.73971893 234.22853271 191.87730408 234.2401123 C186.55094921 234.1828744 183.54644362 233.23295595 179.30664062 229.72021484 C177.65429688 227.64208984 177.65429688 227.64208984 176.36914062 225.47021484 C171.70632879 218.1136024 166.84646878 212.74561431 159.45507812 208.09130859 C155.11606644 205.32223023 151.29967214 202.61145733 149.30664062 197.72021484 C149.04937172 195.77675056 149.04937172 195.77675056 149.03921509 193.71096802 C149.02642014 192.52933075 149.02642014 192.52933075 149.0133667 191.32382202 C149.01472626 190.04107895 149.01472626 190.04107895 149.01611328 188.73242188 C149.00939606 187.82463989 149.00267883 186.91685791 148.99575806 185.98156738 C148.97675869 182.9803317 148.97285289 179.97931942 148.97070312 176.97802734 C148.96427659 174.89061389 148.95754834 172.80320135 148.95053101 170.71578979 C148.93855342 166.33947664 148.93485069 161.96324245 148.93603516 157.58691406 C148.93623838 151.98239661 148.90893452 146.37838604 148.87449074 140.77398872 C148.85224054 136.4622465 148.84819704 132.15062662 148.84925461 127.83883286 C148.84689589 125.77278776 148.83805714 123.70673943 148.82258987 121.64075089 C148.80296808 118.749073 148.80875311 115.85849289 148.82080078 112.96679688 C148.80956177 112.11568329 148.79832275 111.2645697 148.78674316 110.38766479 C148.84346781 105.02286156 149.75891769 101.9875175 153.30664062 97.72021484 C155.38476562 96.06787109 155.38476562 96.06787109 157.55664062 94.78271484 C167.30283165 88.60532612 175.50132618 80.82214326 178.83398438 69.42724609 C180.80829077 58.11985495 179.94060345 47.17537266 173.79882812 37.29443359 C167.41773127 28.46477632 159.08691476 21.97779394 148.30664062 19.72021484 C135.99328847 18.5149725 125.0011974 19.97456289 115.15039062 28.02880859 C107.28221442 35.24686007 101.80772766 43.35177111 101.06835938 54.22412109 C100.70887463 67.28647474 103.19294468 76.89511225 112.30664062 86.72021484 C115.74078989 90.13105541 119.32234303 92.7789407 123.49414062 95.22021484 C127.81341213 97.83186738 130.55057163 100.91639028 131.89422607 105.89923096 C132.4287811 109.55567592 132.46230309 113.16938383 132.46777344 116.85595703 C132.47273834 117.66153046 132.47770325 118.46710388 132.4828186 119.29708862 C132.49738499 121.9537645 132.50423336 124.61038064 132.50976562 127.26708984 C132.51552207 129.12168376 132.52127973 130.97627767 132.52703857 132.83087158 C132.53753317 136.71781693 132.54338577 140.6047417 132.546875 144.49169922 C132.55235337 149.455711 132.5763739 154.41944762 132.60484695 159.38337326 C132.62353451 163.21483132 132.62868221 167.04622393 132.63021088 170.87772369 C132.63322464 172.70683545 132.64120973 174.53594641 132.65439606 176.36501312 C132.67158338 178.93251565 132.66954559 181.49935674 132.66308594 184.06689453 C132.67230072 184.81214386 132.6815155 185.55739319 132.69100952 186.32522583 C132.63832774 193.0598246 131.48950442 199.4853781 126.68164062 204.40771484 C124.90171613 205.70741219 123.06714855 206.86967564 121.19726562 208.03662109 C113.14153959 213.13395119 107.14806587 219.41877548 102.70507812 227.89599609 C100.00206873 231.4219888 97.2268162 233.42932924 92.84269714 234.09347534 C89.75996195 234.24117673 86.69953463 234.26050127 83.61328125 234.23779297 C81.85615059 234.24830688 81.85615059 234.24830688 80.06352234 234.2590332 C76.19640304 234.27661943 72.3300172 234.26498725 68.46289062 234.25146484 C65.7729839 234.25235591 63.08309019 234.25803583 60.39318848 234.26306152 C54.75765049 234.2703296 49.12232248 234.26077251 43.48681641 234.24169922 C36.98034095 234.21993182 30.47436693 234.2269838 23.96790361 234.24900484 C18.37193794 234.26718302 12.77612283 234.26970545 7.18013716 234.25925016 C3.8420675 234.2530283 0.50442194 234.25372364 -2.83366394 234.26539612 C-6.55612065 234.2755561 -10.27761495 234.26006612 -14 234.23779297 C-15.10044144 234.24588989 -16.20088287 234.25398682 -17.33467102 234.2623291 C-23.25205342 234.19674534 -27.15440278 233.93304318 -31.69335938 229.72021484 C-35.94979067 225.05760993 -35.12168355 219.09299228 -35.09741211 213.14038086 C-35.10427536 211.96910645 -35.11113861 210.79783203 -35.11820984 209.59106445 C-35.13651377 205.71862675 -35.13263503 201.84659279 -35.12695312 197.97412109 C-35.12942876 195.96301179 -35.13377566 193.95191243 -35.1383062 191.94080681 C-35.15234355 185.61910336 -35.1507969 179.29753508 -35.1394043 172.97583008 C-35.1279246 166.46200684 -35.14199761 159.94859541 -35.16880077 153.43482643 C-35.19097872 147.83464877 -35.19759045 142.23460016 -35.19172436 136.63438171 C-35.18835837 133.2929212 -35.19245849 129.95193548 -35.20797539 126.61047554 C-35.22284504 122.8831528 -35.21223635 119.15673761 -35.19506836 115.42944336 C-35.20473633 114.32743088 -35.2144043 113.2254184 -35.22436523 112.0900116 C-35.16547802 105.98739104 -34.79468472 102.35492809 -30.69335938 97.72021484 C-28.61523438 96.06787109 -28.61523438 96.06787109 -26.44335938 94.78271484 C-16.69716835 88.60532612 -8.49867382 80.82214326 -5.16601562 69.42724609 C-3.19170923 58.11985495 -4.05939655 47.17537266 -10.20117188 37.29443359 C-16.58226873 28.46477632 -24.91308524 21.97779394 -35.69335938 19.72021484 C-52.41947156 18.08304746 -65.23353137 22.57764545 -76.15429688 35.56787109 Z " fill="#000000" transform="translate(115.693359375,13.27978515625)"/>
</svg>
