<svg xmlns="http://www.w3.org/2000/svg" viewBox="0 0 90 75" width="100%" height="auto">
  <path d="M73.615,60.086c-4.237,0-7.685-3.447-7.685-7.684c0-4.237,3.447-7.685,7.685-7.685c4.236,0,7.684,3.447,7.684,7.685C81.299,56.639,77.852,60.086,73.615,60.086z M73.615,47.718c-2.583,0-4.685,2.102-4.685,4.685s2.102,4.684,4.685,4.684s4.684-2.101,4.684-4.684S76.198,47.718,73.615,47.718z"/>
  <path d="M19.939,60.086c-4.237,0-7.684-3.447-7.684-7.684c0-4.237,3.447-7.685,7.684-7.685s7.684,3.447,7.684,7.685C27.623,56.639,24.176,60.086,19.939,60.086z M19.939,47.718c-2.583,0-4.684,2.102-4.684,4.685s2.101,4.684,4.684,4.684c2.583,0,4.684-2.101,4.684-4.684S22.521,47.718,19.939,47.718z"/>
  <path d="M73.609,54.899c-0.649,0-1.3-0.26-1.76-0.729c-0.12-0.11-0.22-0.24-0.31-0.38c-0.09-0.141-0.17-0.28-0.23-0.431c-0.069-0.149-0.109-0.31-0.149-0.47c-0.03-0.16-0.04-0.33-0.04-0.49c0-0.659,0.26-1.3,0.729-1.76c0.58-0.59,1.44-0.859,2.25-0.689c0.16,0.029,0.32,0.08,0.47,0.14c0.15,0.07,0.301,0.14,0.431,0.229c0.14,0.091,0.27,0.2,0.38,0.32c0.47,0.46,0.729,1.101,0.729,1.76c0,0.16-0.01,0.33-0.05,0.49c-0.029,0.16-0.08,0.32-0.14,0.47c-0.061,0.15-0.14,0.29-0.23,0.431c-0.09,0.14-0.189,0.27-0.31,0.38C74.92,54.64,74.27,54.899,73.609,54.899z"/>
  <path d="M19.94,54.899c-0.66,0-1.31-0.27-1.77-0.729s-0.73-1.11-0.73-1.771c0-0.659,0.27-1.3,0.73-1.77c0.93-0.93,2.61-0.93,3.54,0c0.46,0.47,0.73,1.11,0.73,1.77c0,0.66-0.27,1.301-0.73,1.771C21.24,54.63,20.6,54.899,19.94,54.899z"/>
  <g>
    <path d="M85.347,42.526l-23.367-4.73l-8.231-4.776c-3.501-2.031-7.491-3.105-11.538-3.105h-4.915c-0.002,0-0.004,0-0.006,0h-5.612c-4.288,0-8.558,1.058-12.35,3.06l-6.167,3.255c-1.226,0.647-2.607,0.99-3.993,0.99H6.703c-2.427,0-4.529,1.729-4.998,4.11l-1.642,8.345c-0.342,1.738,0.735,3.44,2.451,3.875l8.903,2.259c-0.423-1.054-0.662-2.202-0.662-3.405c0-5.064,4.12-9.185,9.184-9.185s9.184,4.12,9.184,9.185c0,1.473-0.357,2.861-0.976,4.096h37.26c-0.619-1.235-0.976-2.623-0.976-4.096c0-5.064,4.12-9.185,9.185-9.185c5.063,0,9.184,4.12,9.184,9.185c0,1.359-0.305,2.646-0.837,3.808l4.523-0.491C88.488,55.502,90,53.817,90,51.801v-3.584C90,45.465,88.043,43.072,85.347,42.526z M25.017,39.643c-2.192,0-4.313-0.647-6.132-1.872l-0.975-0.656l2.819-1.488c3.361-1.775,7.148-2.713,10.949-2.713h4.432l1.485,6.729H25.017z M53.366,39.643h-12.7l-1.485-6.729h3.029c3.519,0,6.988,0.934,10.032,2.7l5.752,3.337C56.496,39.405,54.948,39.643,53.366,39.643z"/>
  </g>
</svg>
