<svg xmlns="http://www.w3.org/2000/svg" viewBox="0 0 90 75" width="100%" height="auto">
  <g>
    <path d="M75.095,65.053c-4.807,0-8.717-3.91-8.717-8.717s3.91-8.717,8.717-8.717s8.717,3.91,8.717,8.717S79.901,65.053,75.095,65.053z M75.095,50.619c-3.152,0-5.717,2.564-5.717,5.717s2.564,5.717,5.717,5.717s5.717-2.564,5.717-5.717S78.247,50.619,75.095,50.619z"/>
    <path d="M17.997,65.053c-4.807,0-8.717-3.91-8.717-8.717s3.91-8.717,8.717-8.717s8.717,3.91,8.717,8.717S22.804,65.053,17.997,65.053z M17.997,50.619c-3.152,0-5.717,2.564-5.717,5.717s2.564,5.717,5.717,5.717s5.717-2.564,5.717-5.717S21.149,50.619,17.997,50.619z"/>
    <path d="M75.09,59.34c-0.79,0-1.56-0.32-2.12-0.88c-0.13-0.141-0.26-0.29-0.37-0.46c-0.109-0.16-0.2-0.34-0.28-0.521c-0.069-0.18-0.13-0.37-0.17-0.56c-0.04-0.19-0.05-0.39-0.05-0.58c0-0.2,0.01-0.4,0.05-0.59c0.04-0.19,0.101-0.38,0.17-0.561c0.08-0.18,0.171-0.359,0.28-0.52c0.11-0.16,0.23-0.32,0.37-0.46c0.7-0.69,1.73-1.01,2.71-0.82c0.19,0.04,0.38,0.101,0.561,0.17c0.18,0.08,0.359,0.17,0.52,0.28s0.32,0.24,0.46,0.37c0.13,0.14,0.26,0.3,0.37,0.46s0.2,0.34,0.27,0.52c0.08,0.181,0.141,0.37,0.171,0.561c0.039,0.189,0.06,0.39,0.06,0.59c0,0.19-0.021,0.39-0.06,0.58c-0.03,0.189-0.091,0.38-0.171,0.56C77.79,57.66,77.7,57.84,77.59,58c-0.11,0.17-0.24,0.319-0.37,0.46c-0.14,0.14-0.3,0.26-0.46,0.37c-0.16,0.109-0.34,0.2-0.52,0.279c-0.181,0.07-0.37,0.131-0.561,0.171C75.49,59.319,75.29,59.34,75.09,59.34z"/>
    <path d="M18,59.34c-0.2,0-0.39-0.021-0.59-0.06c-0.19-0.04-0.38-0.101-0.56-0.171c-0.18-0.079-0.36-0.17-0.52-0.279c-0.16-0.11-0.32-0.23-0.46-0.37c-0.13-0.141-0.26-0.29-0.37-0.46c-0.11-0.16-0.2-0.34-0.27-0.521c-0.08-0.18-0.14-0.37-0.17-0.56c-0.04-0.19-0.06-0.39-0.06-0.58c0-0.79,0.32-1.57,0.87-2.13c0.14-0.13,0.3-0.26,0.46-0.37c0.16-0.11,0.34-0.2,0.52-0.28c0.18-0.069,0.37-0.13,0.56-0.17c0.97-0.189,2.01,0.13,2.71,0.82c0.56,0.56,0.88,1.34,0.88,2.13s-0.32,1.56-0.88,2.12C19.56,59.02,18.79,59.34,18,59.34z"/>
    <g>
      <path d="M89.958,52.184l-1.087-10.356c-0.34-3.235-2.939-5.79-6.18-6.073L63.917,34.11l-5.919-6.621c-1.444-1.616-3.516-2.543-5.683-2.543H13.346c-2.135,0-4.14,1.14-5.232,2.974L0.917,40.003C0.317,41.01,0,42.162,0,43.334v8.725c0,2.701,1.625,5.081,4.14,6.063l3.631,1.419c-0.318-1.012-0.49-2.088-0.49-3.204c0-5.909,4.808-10.717,10.717-10.717c5.91,0,10.717,4.808,10.717,10.717c0,1.62-0.372,3.152-1.019,4.53h37.701c-0.647-1.378-1.019-2.91-1.019-4.53c0-5.909,4.808-10.717,10.717-10.717s10.717,4.808,10.717,10.717c0,1.347-0.26,2.631-0.716,3.82C88.265,58.923,90.326,55.697,89.958,52.184z M13.647,38.459l5.264-10.513h6.171l-3.63,10.513H13.647z M24.626,38.459l3.63-10.513h10.392l2.522,10.513H24.626z M58.512,37.565c-0.678,0.577-1.542,0.894-2.432,0.894H44.255l-2.522-10.513h10.582c1.314,0,2.57,0.562,3.446,1.542l5.29,5.917L58.512,37.565z"/>
    </g>
  </g>
</svg>
